<?xml version="1.0" encoding="UTF-8"?>
<svg width="24px" height="24px" viewBox="0 0 24 24" version="1.1" xmlns="http://www.w3.org/2000/svg" xmlns:xlink="http://www.w3.org/1999/xlink">
    <!-- Generator: Sketch 52.4 (67378) - http://www.bohemiancoding.com/sketch -->
    <title>youtube (1)</title>
    <desc>Created with Sketch.</desc>
    <g id="Symbols" stroke="none" stroke-width="1" fill="none" fill-rule="evenodd">
        <g id="footer/components/socials" transform="translate(-120.000000, -32.000000)">
            <g id="social-media">
                <g transform="translate(0.000000, 32.000000)" id="youtube-(1)">
                    <g transform="translate(120.000000, 0.000000)">
                        <rect id="Rectangle" fill="#DC472E" x="0" y="0" width="23.9858421" height="23.9858421"></rect>
                        <g id="Group" transform="translate(4.842105, 3.315789)" fill="#FFFFFF">
                            <path d="M9.01363158,12.0386316 C9.01310526,11.9491579 8.98678947,11.856 8.95363158,11.7723158 C8.90942105,11.6623158 8.81468421,11.6075789 8.69573684,11.596 C8.55626316,11.5823158 8.44468421,11.6386316 8.34363158,11.7281053 C8.30310526,11.7633684 8.28468421,11.816 8.28468421,11.816 L8.28678947,14.6565263 L8.28678947,14.7265263 C8.28678947,14.7265263 8.311,14.7591579 8.31468421,14.7633684 C8.39678947,14.8523158 8.49257895,14.9228421 8.61521053,14.9481053 C8.81731579,14.9896842 8.95994737,14.9054737 8.99942105,14.7181053 C9.00942105,14.6712632 9.01521053,14.6228421 9.01521053,14.5749474 C9.01626316,13.7291579 9.01784211,12.8838947 9.01363158,12.0386316 Z M9.01363158,12.0386316 C9.01310526,11.9491579 8.98678947,11.856 8.95363158,11.7723158 C8.90942105,11.6623158 8.81468421,11.6075789 8.69573684,11.596 C8.55626316,11.5823158 8.44468421,11.6386316 8.34363158,11.7281053 C8.30310526,11.7633684 8.28468421,11.816 8.28468421,11.816 L8.28678947,14.6565263 L8.28678947,14.7265263 C8.28678947,14.7265263 8.311,14.7591579 8.31468421,14.7633684 C8.39678947,14.8523158 8.49257895,14.9228421 8.61521053,14.9481053 C8.81731579,14.9896842 8.95994737,14.9054737 8.99942105,14.7181053 C9.00942105,14.6712632 9.01521053,14.6228421 9.01521053,14.5749474 C9.01626316,13.7291579 9.01784211,12.8838947 9.01363158,12.0386316 Z M12.1941579,7.75494737 C8.83257895,7.68284211 5.46942105,7.68284211 2.10731579,7.75494737 C0.941,7.77968421 0.00836842105,8.73336842 0.00836842105,9.90021053 L0.00836842105,15.1507368 C0.00836842105,16.3181053 0.941,17.2717895 2.10731579,17.2965263 C5.46942105,17.3686316 8.83257895,17.3686316 12.1941579,17.2965263 C13.361,17.2717895 14.2936316,16.3181053 14.2936316,15.1507368 L14.2936316,9.90021053 C14.2936316,8.73342105 13.361,7.77968421 12.1941579,7.75494737 Z M3.09468421,15.6292105 L2.12521053,15.6292105 L2.12521053,10.1486842 L1.12152632,10.1486842 L1.12152632,9.23184211 L4.10047368,9.23184211 L4.10047368,10.1465789 L3.09468421,10.1465789 L3.09468421,15.6292105 Z M6.56415789,13.3544211 L6.56415789,15.6296842 L5.70573684,15.6296842 L5.70573684,15.1096842 C5.67468421,15.1428421 5.65731579,15.1607368 5.641,15.1791579 C5.45626316,15.3875789 5.24678947,15.5612632 4.97942105,15.6533684 C4.84889474,15.6981053 4.71468421,15.7133684 4.57731579,15.6896842 C4.38994737,15.6586316 4.26415789,15.5507368 4.18836842,15.3802105 C4.11784211,15.2228421 4.09994737,15.0544211 4.09942105,14.8849474 C4.09731579,14.2586316 4.09836842,10.9438947 4.09836842,10.9117895 L4.95468421,10.9117895 C4.95626316,10.9407368 4.95942105,13.3202105 4.95994737,14.4807368 C4.95994737,14.5438947 4.96047368,14.6086316 4.97310526,14.6702105 C5.00468421,14.826 5.12415789,14.8928421 5.27415789,14.8381053 C5.44678947,14.7749474 5.57836842,14.656 5.68889474,14.5133684 C5.70521053,14.4928421 5.70521053,14.456 5.70521053,14.4265263 L5.70521053,10.9065263 L6.56415789,10.9044211 C6.56415789,10.9044737 6.56415789,12.566 6.56415789,13.3544211 Z M9.82994737,15.1749474 C9.71521053,15.5202105 9.46257895,15.696 9.09942105,15.6923158 C8.80415789,15.6896842 8.56468421,15.5723158 8.36731579,15.3581053 C8.34521053,15.3344211 8.28415789,15.2696842 8.28415789,15.2696842 L8.28415789,15.6286316 L7.42415789,15.6286316 L7.42415789,9.23126316 L8.28415789,9.23126316 C8.28415789,9.91231579 8.28415789,11.3370526 8.28415789,11.3370526 C8.28415789,11.3370526 8.33257895,11.2402105 8.37678947,11.1902105 C8.50994737,11.0412632 8.67205263,10.926 8.87205263,10.8754737 C9.20205263,10.7928421 9.58257895,10.8949474 9.76363158,11.2807368 C9.87047368,11.5086316 9.90047368,11.7517895 9.90047368,11.9991579 C9.90205263,12.8933684 9.90205263,13.7875789 9.901,14.6817895 C9.90047368,14.8491579 9.88310526,15.0144737 9.82994737,15.1749474 Z M13.0062632,14.995 C12.8573158,15.4313158 12.5494211,15.6734211 12.0978421,15.7397368 C11.8178421,15.7807895 11.5404737,15.775 11.2778421,15.6560526 C10.9183684,15.4939474 10.7146842,15.2007895 10.6273158,14.8276316 C10.5867895,14.6539474 10.5667895,14.4718421 10.5646842,14.2934211 C10.5578421,13.5928947 10.561,12.8918421 10.5625789,12.1913158 C10.5631053,11.825 10.6504737,11.4871053 10.9015263,11.2065789 C11.1878421,10.8860526 11.5541579,10.7665789 11.9725789,10.7934211 C12.0983684,10.8013158 12.2267895,10.8218421 12.3462632,10.8613158 C12.7531053,10.995 12.9704737,11.2997368 13.0557368,11.7039474 C13.0883684,11.8597368 13.1004737,12.0213158 13.1031053,12.1807895 C13.1099474,12.5544737 13.1004737,13.3781579 13.1004737,13.3781579 L11.4536316,13.3781579 L11.4536316,14.5586842 C11.4536316,14.7707895 11.6252105,14.9423684 11.8373158,14.9423684 C12.0488947,14.9423684 12.2204737,14.7707895 12.2204737,14.5586842 L12.2204737,13.9518421 L13.1052105,13.9518421 C13.1052105,13.9517895 13.1183684,14.6681579 13.0062632,14.995 Z M12.2204737,11.9834211 C12.2204737,11.7718421 12.0488947,11.5997368 11.8373158,11.5997368 C11.6252105,11.5997368 11.4536316,11.7718421 11.4536316,11.9834211 L11.4536316,12.6460526 L12.2204737,12.6460526 L12.2204737,11.9834211 Z M8.95363158,11.7723684 C8.90942105,11.6623684 8.81468421,11.6076316 8.69573684,11.5960526 C8.55626316,11.5823684 8.44468421,11.6386842 8.34363158,11.7281579 C8.30310526,11.7634211 8.28468421,11.8160526 8.28468421,11.8160526 L8.28678947,14.6565789 L8.28678947,14.7265789 C8.28678947,14.7265789 8.311,14.7592105 8.31468421,14.7634211 C8.39678947,14.8523684 8.49257895,14.9228947 8.61521053,14.9481579 C8.81731579,14.9897368 8.95994737,14.9055263 8.99942105,14.7181579 C9.00942105,14.6713158 9.01521053,14.6228947 9.01521053,14.575 C9.01626316,13.7292105 9.01784211,12.8839474 9.01363158,12.0386842 C9.01310526,11.9491579 8.98678947,11.856 8.95363158,11.7723684 Z" id="Shape" fill-rule="nonzero"></path>
                            <path d="M11.1519474,1.68368421 L11.1516842,6.43336842 L10.2715789,6.43336842 L10.2726316,5.92310526 C10.1753158,6.01894737 10.0922632,6.10847368 10.001,6.18889474 C9.83921053,6.33142105 9.65594737,6.43768421 9.44157895,6.47963158 C9.11247368,6.544 8.83215789,6.43994737 8.72721053,6.09910526 C8.69226316,5.98557895 8.67115789,5.86321053 8.67026316,5.74468421 L8.67026316,1.68368421 L9.54373684,1.68368421 L9.54373684,5.30584211 C9.54373684,5.35384211 9.54757895,5.40236842 9.556,5.44942105 C9.58252632,5.59868421 9.69284211,5.66894737 9.83657895,5.61910526 C10.0117895,5.55847368 10.1454737,5.43715789 10.2588947,5.29421053 C10.275,5.27378947 10.2721053,5.23568421 10.2721053,5.20573684 L10.2721053,1.68368421 L11.1519474,1.68368421 Z" id="Path"></path>
                            <path d="M3.87252632,2.50905263 C3.68147368,1.70373684 3.28121053,0.00368421053 3.28121053,0.00368421053 L2.27968421,0.00368421053 C2.27968421,0.00368421053 3.04915789,2.55563158 3.39326316,3.69373684 C3.40563158,3.73489474 3.41131579,3.77957895 3.41131579,3.82268421 L3.41094737,6.43236842 L4.33447368,6.43236842 L4.33410526,3.82268421 C4.33410526,3.77957895 4.33978947,3.73489474 4.35215789,3.69373684 C4.69626316,2.55563158 5.46573684,0.00368421053 5.46573684,0.00368421053 L4.46421053,0.00368421053 C4.46421053,0.00368421053 4.06389474,1.70373684 3.87289474,2.50905263 L3.87252632,2.50905263 Z" id="Path"></path>
                            <path d="M6.67115789,1.56478947 C5.97515789,1.56478947 5.41094737,2.129 5.41094737,2.825 L5.41094737,5.29126316 C5.41094737,5.98726316 5.97515789,6.55147368 6.67115789,6.55147368 C7.36715789,6.55147368 7.93136842,5.98726316 7.93136842,5.29126316 L7.93136842,2.825 C7.93142105,2.129 7.36715789,1.56478947 6.67115789,1.56478947 Z M7.03484211,5.34105263 C7.03484211,5.54157895 6.87168421,5.70468421 6.67121053,5.70468421 C6.47073684,5.70468421 6.30757895,5.54157895 6.30757895,5.34105263 L6.30757895,2.77515789 C6.30757895,2.57463158 6.47073684,2.41152632 6.67121053,2.41152632 C6.87168421,2.41152632 7.03484211,2.57468421 7.03484211,2.77515789 L7.03484211,5.34105263 Z" id="Shape" fill-rule="nonzero"></path>
                        </g>
                    </g>
                </g>
            </g>
        </g>
    </g>
</svg>