<?xml version="1.0" encoding="UTF-8"?>
<svg width="24px" height="24px" viewBox="0 0 24 24" version="1.1" xmlns="http://www.w3.org/2000/svg" xmlns:xlink="http://www.w3.org/1999/xlink">
    <!-- Generator: Sketch 52.4 (67378) - http://www.bohemiancoding.com/sketch -->
    <title>instagram (1)</title>
    <desc>Created with Sketch.</desc>
    <defs>
        <linearGradient x1="9.1540625%" y1="90.8465625%" x2="90.8459375%" y2="9.1534375%" id="linearGradient-1">
            <stop stop-color="#FFC107" offset="0%"></stop>
            <stop stop-color="#F44336" offset="50.7%"></stop>
            <stop stop-color="#9C27B0" offset="99%"></stop>
        </linearGradient>
        <linearGradient x1="14.645625%" y1="85.354375%" x2="85.354375%" y2="14.645625%" id="linearGradient-2">
            <stop stop-color="#FFC107" offset="0%"></stop>
            <stop stop-color="#F44336" offset="50.7%"></stop>
            <stop stop-color="#9C27B0" offset="99%"></stop>
        </linearGradient>
        <linearGradient x1="14.6482176%" y1="85.3611632%" x2="85.3517824%" y2="14.6482176%" id="linearGradient-3">
            <stop stop-color="#FFC107" offset="0%"></stop>
            <stop stop-color="#F44336" offset="50.7%"></stop>
            <stop stop-color="#9C27B0" offset="99%"></stop>
        </linearGradient>
    </defs>
    <g id="Symbols" stroke="none" stroke-width="1" fill="none" fill-rule="evenodd">
        <g id="footer/components/socials" transform="translate(-40.000000, -32.000000)">
            <g id="social-media">
                <g transform="translate(0.000000, 32.000000)" id="instagram-(1)">
                    <g transform="translate(40.000000, 0.000000)">
                        <path d="M16.5,0 L7.5,0 C3.3585,0 0,3.3585 0,7.5 L0,16.5 C0,20.6415 3.3585,24 7.5,24 L16.5,24 C20.6415,24 24,20.6415 24,16.5 L24,7.5 C24,3.3585 20.6415,0 16.5,0 Z M21.75,16.5 C21.75,19.395 19.395,21.75 16.5,21.75 L7.5,21.75 C4.605,21.75 2.25,19.395 2.25,16.5 L2.25,7.5 C2.25,4.605 4.605,2.25 7.5,2.25 L16.5,2.25 C19.395,2.25 21.75,4.605 21.75,7.5 L21.75,16.5 Z" id="Shape" fill="url(#linearGradient-1)" fill-rule="nonzero"></path>
                        <path d="M12,6 C8.6865,6 6,8.6865 6,12 C6,15.3135 8.6865,18 12,18 C15.3135,18 18,15.3135 18,12 C18,8.6865 15.3135,6 12,6 Z M12,15.75 C9.933,15.75 8.25,14.067 8.25,12 C8.25,9.9315 9.933,8.25 12,8.25 C14.067,8.25 15.75,9.9315 15.75,12 C15.75,14.067 14.067,15.75 12,15.75 Z" id="Shape" fill="url(#linearGradient-2)" fill-rule="nonzero"></path>
                        <circle id="Oval" fill="url(#linearGradient-3)" cx="18.45" cy="5.55" r="1"></circle>
                    </g>
                </g>
            </g>
        </g>
    </g>
</svg>