<?xml version="1.0" standalone="no"?>
<!DOCTYPE svg PUBLIC "-//W3C//DTD SVG 1.1//EN" "http://www.w3.org/Graphics/SVG/1.1/DTD/svg11.dtd" >
<svg xmlns="http://www.w3.org/2000/svg">
<metadata>Generated by IcoMoon</metadata>
<defs>
<font id="moyo" horiz-adv-x="1024">
<font-face units-per-em="1024" ascent="960" descent="-64" />
<missing-glyph horiz-adv-x="1024" />
<glyph unicode="&#x20;" horiz-adv-x="512" d="" />
<glyph unicode="&#xe900;" glyph-name="001" d="M439.001 953.571c-9.857-9.51-7.89-22.824 0-30.432v0c13.772-11.412 23.59-22.824 33.447-32.334v0c-41.337 3.804-92.492 5.706-147.582-1.902v0c-70.83-9.51-133.77-32.334-182.958-68.472v0c-45.272-32.334-80.687-72.275-104.277-119.825v0c-21.642-45.648-35.415-95.099-37.382-150.257v0c-1.967-53.256 7.85-108.413 25.558-163.571v0c17.707-57.060 47.22-112.217 84.602-163.571v0c21.642-28.53 47.24-55.158 76.752-79.883v0c25.577-22.824 57.057-43.746 90.505-62.766v0c59.025-32.334 123.952-58.962 184.925-76.079v0h5.902c9.857 0 19.695 5.706 21.662 15.216v0c1.967 9.51-3.955 20.922-15.74 24.726v0c-76.752 20.922-141.66 55.158-173.14 72.275v0c-31.5 19.020-59.025 38.040-84.622 58.962v0c-27.525 22.824-51.155 47.55-68.862 72.275v0c-68.862 95.099-106.245 201.611-102.29 300.514v0c1.967 47.55 13.753 93.197 33.428 133.139v0c21.662 39.942 51.155 76.079 90.525 104.609v0c96.407 70.373 228.21 70.373 302.995 62.766v0c-13.772-11.412-25.597-24.726-39.37-39.942v0c-7.85-7.608-7.85-20.922 1.987-28.53v0c3.935-3.804 9.837-5.706 13.753-5.706v0c5.922 0 11.825 1.902 15.74 7.608v0c23.63 26.628 47.24 49.452 72.797 66.57v0c5.922 3.804 9.857 9.51 9.857 15.216v0c0 7.608-1.967 13.314-5.902 17.118v0c-23.63 26.628-41.337 45.648-70.83 72.275v0c-4.643 4.489-10.192 6.429-15.543 6.429v0c-6.001 0-11.785-2.416-15.937-6.429v0zM649.523 805.216c-3.955-9.51 0-22.824 11.785-26.628v0c66.895-26.628 131.842-68.472 184.965-119.825v0c49.187-47.55 86.57-102.707 106.245-154.061v0c13.772-34.236 21.642-68.472 25.558-102.707v0c3.935-32.334 1.967-62.766-1.948-93.197v0c-5.902-30.432-13.792-57.060-25.577-83.687v0c-11.805-24.726-25.597-47.55-45.272-68.472v0c-31.48-36.138-64.927-64.668-100.342-83.687v0c-31.46-17.118-64.908-28.53-106.245-38.040v0c9.857 13.314 17.707 26.628 23.63 41.844v0c5.883 11.412 0 22.824-11.805 26.628v0c-11.825 5.706-23.61 0-27.545-11.412v0c-13.772-34.236-41.337-62.766-57.077-77.981v0c-5.883-5.706-7.85-13.314-5.883-20.922v0c1.967-7.608 7.85-13.314 15.74-15.216v0c31.48-7.608 59.005-17.118 98.355-39.942v0c1.987-1.902 5.922-1.902 9.857-1.902v0c7.85 0 15.74 3.804 19.675 11.412v0c5.883 9.51 1.948 22.824-7.87 28.53v0c-15.74 7.608-29.512 15.216-41.337 20.922v0c45.272 9.51 80.687 22.824 114.135 41.844v0c39.35 20.922 76.713 51.354 112.147 91.295v0c21.623 24.726 39.33 51.354 53.103 79.883v0c13.792 28.53 21.642 60.864 27.565 93.197v0c2.105 18.392 3.66 36.784 3.719 55.196v0 2.492c-0.059 15.007-1.141 30.013-3.719 45.020v0c-3.955 36.138-13.772 74.177-27.565 112.217v0c-9.818 30.432-25.558 58.962-45.233 87.491v0c-19.695 28.53-43.305 55.158-70.83 81.785v0c-57.077 55.158-127.907 100.805-200.705 129.335v0c-2.459 0.951-5.155 1.426-7.89 1.426v0c-8.204 0-16.684-4.279-19.636-12.838v0zM553.096 784.294c-9.818 0-15.74-1.902-19.655-7.608v0l-114.115-159.767c-3.955-5.706-5.922-9.51-5.922-13.314v0-34.236c0-7.608 5.922-11.412 13.772-11.412v0h112.147v-57.060c0-5.706 3.955-9.51 11.805-9.51v0h49.207c11.805 0 9.818 5.706 9.818 9.51v0 57.060h23.63c5.883 0 9.818 3.804 9.818 9.51v0 39.942c0 5.706-1.967 9.51-9.818 9.51v0h-23.63v157.865c0 5.706-3.935 9.51-11.785 9.51v0h-45.272zM486.201 616.92l55.11 74.177v-76.079h-55.11v1.902zM250.101 729.137c-15.74-1.902-29.512-5.706-39.33-9.51v0c-9.857-3.804-15.74-11.412-13.792-19.020v0l3.935-24.726c1.967-9.51 5.922-11.412 19.675-9.51v0c35.415 3.804 57.077 5.706 68.862 5.706v0c25.597 0 33.447-7.608 33.447-28.53v0c0-15.216-5.883-30.432-19.655-43.746v0c-3.935-3.804-19.675-22.824-49.207-55.158v0l-47.2-49.452c-5.922-5.706-7.89-11.412-7.89-17.118v0-30.432c0-5.706 3.935-9.51 11.825-9.51v0h179.042c9.837 0 11.805 1.902 11.805 9.51v0 38.040c0 7.608-1.967 9.51-11.805 9.51v0h-90.505l-1.967 3.804 23.59 24.726 17.707 20.922c3.935 3.804 7.89 9.51 13.792 15.216v0c15.74 17.118 25.558 30.432 31.48 43.746v0c5.902 13.314 9.818 26.628 9.818 45.648v0c0 53.256-31.48 83.687-104.277 83.687v0c-9.818 0-23.59-1.902-39.35-3.804v0zM844.306 500.899c-255.795-34.236-458.427-97.001-619.762-195.905v0c-7.89-5.706-11.805-17.118-5.922-24.726v0c1.967-5.706 7.89-7.608 15.74-7.608v0c3.935 0 5.922 0 9.857 1.902v0c157.4 95.099 354.15 155.963 605.99 190.199v0c9.837 1.902 17.707 11.412 15.74 20.922v0c-1.771 8.521-9.857 15.501-18.573 15.501v0c-1.023 0-2.046-0.095-3.069-0.285v0zM513.766 352.544c-7.87 0-11.825-3.804-11.825-9.51v0-38.040c0-5.706 3.955-9.51 11.825-9.51v0h114.095l-94.42-213.022c-3.935-7.608-1.967-11.412 5.883-15.216v0l39.37-13.314c9.818-3.804 15.74-1.902 19.675 5.706v0l106.245 233.944c3.935 7.608 5.902 17.118 5.902 22.824v0 26.628c0 7.608-1.967 9.51-11.825 9.51v0h-184.925z" />
<glyph unicode="&#xe901;" glyph-name="002" d="M296.401 124.018c-10.385-13.184-42.813-100.192-69.721-175.042-2.279-8.504-10.385-13.184-19.997-15.165-2.15 0.543-4.857-0.994-6.967-0.428-6.393 1.713-10.048 4.954-13.161 10.345l-40.891 77.050c-32.943-20.777-85.722-47.682-116.050-41.817-10.645 2.852-20.693 7.807-24.8 18.054-17.139 29.639 12.577 80.952 89.107 153.915l-74.858 26.877c-8.504 2.279-15.302 10.919-15.165 19.997s4.557 17.007 12.663 21.687l169.395 70.832c10.217 4.115 25.113 0.123 28.623-12.227 4.115-10.217 0.123-25.113-12.235-28.654l-117.755-48.179 56.267-19.667c8.504-2.279 13.726-8.235 13.598-17.281 2.539-7.532-1.881-15.462-7.846-20.716-50.966-45.585-94.545-97.74-102.948-120.535 18.712 1.805 60.732 22.445 97.475 49.089 5.391 3.113 12.358 3.541 17.175 4.512 6.393-1.713 12.19-5.528 15.294-10.95l29.015-53.345c17.931 49.913 46.376 122.056 57.892 139.461 7.104 9.506 21.564 12.45 31.070 5.346 8.949-9.183 11.885-23.675 4.82-33.157zM571.514 512.925c-15.731 17.886-18.362 50.524-2.885 82.833 18.329 42.954 58.339 39.086 79.628 33.381l14.835-3.975c28.218-5.299 38.389-35.367 39.086-58.339-1.016-29.365-19.208-63.242-57.779-71.135-33.18-4.781-59.265-0.086-72.885 17.234zM743.892 569.319c1.887 49.622-26.255 89.095-70.945 101.070-8.473 2.27-52.023 18.497-92.881 2.069-23.132-9.735-42.157-29.717-53.818-56.23-20.073-49.339-17.134-97.959 11.176-128.363 12.022-14.597 29.457-26.121 48.606-31.252s42.12-4.434 66.223 0.484c62.179 10.715 90.287 64.72 91.64 112.223zM529.911 102.43c-21.296-28.455-50.966-45.585-87.97-56.193 11.807 35.621 20.683 85.632 3.125 122.269 34.885 11.143 76.308 29.681 122.717 58.259-0.037-34.151-6.78-84.767-37.872-124.335zM238.23 349.229c60.055 173.108 132.065 263.216 305.625 392.173 154.146 115.964 306.712 106.984 348.801 102.558 6.119-19.868 17.95-77.756-10.708-193.15-37.772-149.409-127.729-230.15-272.302-344.155-100.593-77.858-194.514-105.115-235.226-112.434-21.963 87.978-100.194 136.282-136.19 155.008zM166.154 446.078c-15.462 1.881-31.467 1.613-44.391-4.039 29.279 58.248 64.072 94.496 103.782 106.641 24.677 7.059 46.532 3.465 60.832-2.629-26.267-38.566-46.759-80.907-66.801-130.254-17.841 18.452-35.85 27.834-53.423 30.281zM924.537 639.432c30.874 123.915 18.607 188.738 10.607 218.224l60.723 56.675c9.268 8.893 8.434 22.787 1.613 31.467-8.901 9.237-22.826 8.411-31.475 1.582l-64.035-60.345c-46.341 5.565-211.663 17.963-382.578-109.441-91.387-68.949-157.564-128.72-206.702-193.056-20.12 9.948-56.275 19.636-98.127 8.065-64.41-19.164-118.405-84.495-158.648-192.228-2.844-10.614-0.871-20.257 9.169-25.242 2.11-0.565 3.686-3.25 5.828-3.823 6.393-1.713 16.005 0.269 22.001 5.514 9.237 8.901 40.59 32.433 68.807 27.134 15.431-1.873 28.049-14.368 38.932-33.217-2.287-8.535-6.102-14.331-8.38-22.835-2.861-10.676 2.799-23.568 12.878-28.531 2.11-0.565 117.231-47.378 132.574-151.744 1.973-9.643 7.219-15.639 15.722-17.917 2.11-0.565 4.252-1.139 9.069-0.168 2.11-0.565 18.72 1.836 43.397 8.895 23.095-24.416 1.578-96.154-13.938-128.486-4.381-7.907-1.873-15.431 3.381-21.396 3.717-3.258 7.364-6.53 11.616-7.67 2.11-0.565 4.252-1.139 9.038-0.16 67.967 6.869 121.281 35.892 156.242 81.208 49.107 64.345 47.82 144.454 45.19 177.092 8.632 6.768 16.739 11.448 25.41 18.238 118.496 93.651 237.069 187.214 281.685 362.165z" />
<glyph unicode="&#xe902;" glyph-name="003" d="M290.668 587.169c-44.406-60.622-182.87-279.046-182.87-279.046l-107.78-31.724c35.22 88.106 72.895 161.373 113.062 219.875 29.604 42.286 58.316 68.692 86.172 79.255 27.819 10.562 58.279 14.43 91.416 11.641zM639.448 236.269c2.12-32.431-2.083-62.556-12.682-90.375-10.562-27.856-36.968-56.568-79.255-86.135-57.089-40.204-129.649-77.879-217.755-113.099l31.724 107.78c0 0 218.796 136.009 277.968 181.828zM747.824 568.387c17.815 17.145 26.778 38.084 26.778 62.89 0 24.769-8.963 46.192-26.778 64.304-18.819 17.145-40.427 25.736-64.824 25.736-24.435 0-45.113-8.591-62.035-25.736-16.885-18.112-25.364-39.534-25.364-64.304 0-24.807 8.48-45.745 25.364-62.89 17.852-17.145 39.237-25.736 64.155-25.736 24.881 0 45.782 8.591 62.705 25.736zM1012.588 959.23c2.789-56.382-1.971-108.338-14.281-155.906-12.348-47.568-35.071-102.536-68.172-164.906-33.137-62.37-83.866-127.715-152.224-196.072-41.58-41.58-86.135-80.668-133.703-117.301-47.53-36.633-91.416-68.692-131.583-96.177s-87.028-57.461-140.583-89.854l-179.671 179.671c32.394 53.555 62.37 100.602 89.854 141.104 27.484 40.538 59.506 84.387 96.177 131.62 36.633 47.196 75.721 91.565 117.301 133.145 68.358 68.358 133.703 119.086 196.072 152.224 62.37 33.1 117.338 55.824 164.906 68.172 47.568 12.31 99.524 17.071 155.906 14.281z" />
<glyph unicode="&#xe903;" glyph-name="chast2" horiz-adv-x="931" d="M427.236 960c-91.906 0-177.668-26.127-251.295-70.85l245.963-434.703-421.905-248.481c85.153-150.898 244.389-252.726 427.186-252.726 272.367 0 493.094 225.336 493.094 503.38 0.051 277.993-220.727 503.38-493.043 503.38v0z" />
<glyph unicode="&#xe904;" glyph-name="chast1" horiz-adv-x="747" d="M0 317.201c0-135.741 35.928-262.618 97.821-372.368l627.005 369.364-365.47 645.804c-214.889-130.483-359.356-369.138-359.356-642.799v0z" />
<glyph unicode="&#xe905;" glyph-name="005" d="M508.82 960l-508.82-225.789v-572.422l508.82-225.789 508.82 225.789v572.422l-508.82 225.789zM372.075 829.615l136.745 60.391 397.516-174.875-136.745-63.602-397.516 178.087zM108.124 715.13l184.447 79.503 400.696-174.907-184.447-82.683-400.696 178.087zM540.621 482.981l413.384 184.447v-461.15l-413.384-184.415v461.118zM63.602 203.13v461.086l413.416-181.235v-464.298l-413.416 184.447zM618.958 407.824v-248.050l254.41 114.484v248.050l-254.41-114.484zM682.529 366.451l127.237 54.094v-108.124l-127.237-57.242v111.273z" />
<glyph unicode="&#xe906;" glyph-name="006" d="M1018.88 712.533l-353.28 168.96-170.667-131.413-138.24 131.413-354.987-168.96 129.707-134.827v-401.067l368.64-162.133 368.64 162.133v395.947l150.187 139.947zM669.013 842.24l290.133-138.24-110.933-104.107-314.027 138.24 134.827 104.107zM477.867 448l-285.013 131.413 285.013 124.587v-256zM512 441.173v267.947l303.787-133.12-303.787-134.827zM349.867 840.533l112.64-105.813-305.493-133.12-97.28 102.4 290.133 136.533zM165.547 553.813l319.147-146.773v-349.867l-319.147 141.653v354.987zM518.827 60.587v346.453l315.733 139.947v-348.16l-315.733-138.24z" />
<glyph unicode="&#xe907;" glyph-name="007" d="M774-64c-48 0-96 9.667-144 29s-93.833 43-137.5 71c-43.667 28-84 58-121 90s-68.5 61-94.5 87c-26 26-55 57.5-87 94.5s-62 77.5-90 121.5c-28 44-51.667 90-71 138s-29 95.666-29 143c0 39.334 7.333 73.833 22 103.5s32 55 52 76c20 21 40.667 37.167 62 48.5s39 18 53 20c2 0 4.5 0.333 7.5 1s5.833 1 8.5 1c25.333 0 45.167-7.333 59.5-22s24.833-27 31.5-37l2-5c5.333-8 17.167-26 35.5-54s34.5-53.333 48.5-76c6-8.667 11.167-16.333 15.5-23s7.167-11 8.5-13c10.667-17.333 16.333-40.333 17-69s-14-55-44-79l-6-4c-12-10-21.5-18.667-28.5-26s-10.5-16-10.5-26c-0.667-12 5.167-30.167 17.5-54.5s40.166-57.833 83.5-100.5c42-41.334 74.833-68.5 98.5-81.5s41.5-19.5 53.5-19.5c11.333 0 20.833 3.5 28.5 10.5s16.5 16.5 26.5 28.5l4 6c15.333 18.667 30.833 30.833 46.5 36.5s29.5 8.5 41.5 8.5c15.333 0 28.167-2.333 38.5-7s17.5-8.333 21.5-11c2.667-1.333 7.5-4.333 14.5-9s14.833-10 23.5-16c22.667-14.667 47.667-31 75-49s45-29.333 53-34l5-4c11.333-6.667 25-18.333 41-35s21.333-40.667 16-72c-2-13.333-8.667-30.5-20-51.5s-27.5-41.5-48.5-61.5c-21-20-46.333-37.333-76-52s-64.166-22-103.5-22zM203 896h-6c-11.333-1.333-36.333-17.167-75-47.5s-58-76.5-58-138.5c0-30.667 5.833-63.666 17.5-99s28.5-72.333 50.5-111c22-38.667 49-78.5 81-119.5s68.666-81.833 110-122.5c40.667-41.334 81.333-77.833 122-109.5s80.333-58.5 119-80.5c38.667-22 75.833-38.833 111.5-50.5s68.5-17.5 98.5-17.5c61.334 0 107 19.333 137 58s45.667 63.667 47 75c2 9.333 0.5 17.167-4.5 23.5s-13.5 13.5-25.5 21.5l-5 3c-7.333 4.667-24.667 16-52 34s-52 34.333-74 49c-10 6.667-18.333 12.167-25 16.5s-11.667 7.5-15 9.5c-2.667 1.333-6.167 2.667-10.5 4s-8.833 2-13.5 2c-7.333 0-14.167-1.667-20.5-5s-12.5-8.667-18.5-16l-4-6c-10-12.667-23.167-26.5-39.5-41.5s-37.833-22.5-64.5-22.5c-27.333 0-57.167 9.667-89.5 29s-68.833 49-109.5 89c-42 42.667-72.667 80.5-92 113.5s-28 63.5-26 91.5c1.333 24.667 9 44.667 23 60s27 28 39 38l7 4c17.333 14.667 24.167 28.333 20.5 41s-5.833 20-6.5 22c-1.333 2-4.333 6.333-9 13s-9.667 14.667-15 24c-13.333 21.333-29.333 46.167-48 74.5s-31 46.167-37 53.5l-3 4c-5.333 11.333-10.833 19.833-16.5 25.5s-12.5 8.5-20.5 8.5z" />
<glyph unicode="&#xe908;" glyph-name="008" d="M969.8 652.8h-96.4c-23.4 172.9-172.6 307.2-351.7 307.2-183.4 0-335.3-140.7-353.3-319.6 0 0 0 0 0 0h-101.2c-27.7 0-50.2-22.5-50.2-50.2v-259.2c0-27.7 22.5-50.2 50.2-50.2h167.8v297.7c0 0 0 0 0 0 6.4 1.6 13.5 3.6 21.1 5.9 36.8 11.1 73.5 27.1 108.1 48.9 50.1 31.7 91 72.9 119 124.6 8.6-6.3 18.4-12.7 29.2-19.1 78.2-46.1 172.4-64.2 279.9-39.1 0 0 0 0 0 0 10.5-29.7 16.2-61.6 16.2-94.7v-240.7c0-115.8-70.3-218.3-172.9-263-12.3 45.2-53.6 78.4-102.6 78.4-58.7 0-106.3-47.6-106.3-106.3s47.6-106.4 106.3-106.4c41.6 0 77.6 23.9 95.1 58.7 123 38.8 215.6 142.2 241.4 267.5h100.4c27.7 0 50.2 22.5 50.2 50.2v259.2c-0.1 27.7-22.6 50.2-50.3 50.2zM166.7 349.1h-81.4v223h81.3v-223zM547 797.5c-15 8.9-28 18.3-38.9 27.7-6.2 5.4-10.2 9.3-11.8 11.1l-37.9 42.5-19.6-53.5c-21.1-57.6-59.6-101.7-111.3-134.3-27.5-17.4-57.1-30.5-89-40.6 22 136.3 140.9 241.3 283.1 241.3 99.5 0 187.6-51.4 239.1-128.9-82.7-15.7-153.8-0.6-213.7 34.7zM533 35.2c-21 0-38 17.1-38 38.1s17 38.1 38 38.1c21 0 38.1-17.1 38.1-38.1s-17.1-38.1-38.1-38.1zM951.7 361.4h-75.1c0 0.9 0 1.9 0 2.8v220.3h75v-223.1zM447.7 548.4c0-19.9-16.2-36.1-36.1-36.1s-36.1 16.2-36.1 36.1 16.2 36.1 36.1 36.1 36.1-16.1 36.1-36.1zM686.6 548.4c0-19.9-16.2-36.1-36.1-36.1s-36.1 16.2-36.1 36.1 16.2 36.1 36.1 36.1 36.1-16.1 36.1-36.1zM359.4 388.7c4.2-17.1 14.2-40.5 33-64 31.6-39.5 77.5-63.6 137.6-63.6 61.1 0 105.1 25.2 131.6 66.6 9.1 14.2 15.4 29.3 19.4 44.3 2.5 9.2 3.7 16.8 4.2 21.9 1.6 18.8-12.3 35.3-31.1 36.9s-35.3-12.3-36.9-31.1c0 0.1-0.1-0.5-0.3-1.7-0.4-2.4-1-5.1-1.8-8.2-2.4-8.7-6-17.5-11.1-25.4-14.1-22.1-36.7-35-74-35-38.4 0-65.2 14-84.3 38-6.8 8.6-12.2 17.8-16.2 27.1-2.3 5.3-3.5 9.1-3.9 10.5-4.5 18.3-23 29.5-41.3 25s-29.4-23-24.9-41.3v0z" />
<glyph unicode="&#xe909;" glyph-name="009" d="M762.88 523.093c100.693 0 180.907 81.92 180.907 180.907 0 100.693-81.92 180.907-180.907 180.907-100.693 0-180.907-81.92-180.907-180.907 0-100.693 81.92-180.907 180.907-180.907zM762.88 801.28c54.613 0 97.28-44.373 97.28-97.28 0-54.613-44.373-97.28-97.28-97.28-54.613 0-97.28 44.373-97.28 97.28 0 54.613 44.373 97.28 97.28 97.28zM860.16 193.707c0-53.726-43.554-97.28-97.28-97.28s-97.28 43.554-97.28 97.28c0 53.726 43.554 97.28 97.28 97.28s97.28-43.554 97.28-97.28zM204.8 144.213v-122.88h85.333v124.587l129.707 216.747h-83.627l-83.627-150.187-83.627 150.187h-85.333zM0 960v-1024h1024v1024h-1024zM68.267 874.667h97.28l85.333-203.093 85.333 203.093h107.52v-341.333h-85.333v197.973l-87.040-197.973h-42.667l-69.973 174.080-5.12 18.773v-192.853h-85.333v341.333zM762.88 12.8c-98.987 0-180.907 80.213-180.907 180.907 0 98.987 80.213 180.907 180.907 180.907 98.987 0 180.907-80.213 180.907-180.907s-80.213-180.907-180.907-180.907zM989.867 448h-477.867v-477.867h-477.867v477.867h477.867v477.867h477.867v-477.867z" />
<glyph unicode="&#xe90a;" glyph-name="010" d="M329.032 196.6c-11.118-25.383 26.357-67.515 76.161-66.593 12.306 0.228 23.67 10.301 40.068 35.644 4.116 6.361 20.021 32.474 23.787 38.398 10.188 16.029 20.32 29.897 30.846 41.617-89.808 42.984-144.059 12.129-170.862-49.066zM605.14 293.917c109.278 0 161.841-37.556 216.926-121.31 9.731-14.795-6.729-32.791-22.332-24.415-87.939 47.211-210.022-19.046-318.393-135.049-93.112-99.67-217.351-109.817-304.463 11.060-36.119 50.118-52.861 106.126-53.833 169.333-12.745-59.418-17.722-114.322-14.965-164.696 0.515-9.412-6.697-17.459-16.108-17.974s-17.459 6.697-17.974 16.108c-6.372 116.381 25.884 253.545 96.413 411.68 8.606 19.296 37.691 8.831 32.029-11.525-2.594-9.325-11.961-42.277-12.395-43.816-21.154-75.009-30.839-121.394-32.654-170.218-2.403-64.644 11.9-119.982 47.179-168.935 72.959-101.237 172.019-93.147 251.829-7.715 99.192 106.178 209.382 174.443 305.569 159.84-38.806 44.495-81.583 63.499-156.828 63.499-46.027 0-74.669-22.732-107.284-74.046-3.502-5.509-19.505-31.782-23.936-38.631-22.114-34.175-40.781-50.722-68.093-51.228-72.482-1.342-130.293 63.654-108.059 114.415 12.803 29.23 34.913 56.95 66.323 73.537 43.778 23.119 98.357 20.493 162.849-13.581 22.148 15.81 47.138 23.667 78.201 23.667zM324.022 346.185c-9.431-39.172-4.601-72.987 15.075-100.151 5.529-7.634 16.2-9.339 23.833-3.81s9.339 16.2 3.81 23.833c-13.392 18.488-16.765 42.103-9.533 72.138 2.206 9.164-3.434 18.381-12.598 20.587s-18.381-3.434-20.587-12.598zM556.258 96.184c119.468-81.738 218.364-122.942 297.559-122.942 70.459 0 123.927 51.981 118.333 125.83-6.383 84.274-84.691 184.089-237.789 287.825-7.803 5.287-18.415 3.248-23.702-4.555s-3.248-18.415 4.555-23.702c145.339-98.48 217.467-190.416 222.9-262.146 4.028-53.183-32.936-89.119-84.297-89.119-70.921 0-163.973 38.77-278.285 116.98-7.779 5.322-18.4 3.331-23.722-4.448s-3.331-18.4 4.448-23.722zM701.841 830.65c-48.077 63.384-111.061 94.574-190.078 94.574-159.492 0-321.95-129.901-321.95-281.256 0-145.029 140.771-245.2 296.963-245.2 71.211 0 152.084 38.009 200.87 101.366 60.207 78.189 70.216 187.434 15.41 323.118-0.981 2.428-1.363 4.948-1.216 7.399zM714.692 479.309c-55.392-71.935-146.331-114.675-227.915-114.675-173.037 0-331.096 112.473-331.096 279.333 0 172.096 179.207 315.39 356.083 315.39 107.129 0 189.864-51.499 246.288-152.783 4.286-7.694 1.986-17.273-5.051-22.239 37.341-123.552 21.5-227.354-38.309-305.026zM470.271 612.031c-13.251-78.706 22.969-122.469 101.719-122.469 77.427 0 119.668 41.661 121.062 119.33 0.169 9.424-7.334 17.201-16.758 17.37s-17.201-7.334-17.37-16.758c-1.060-59.090-28.151-85.809-86.934-85.809-57.46 0-77.833 24.616-68.060 82.669 1.565 9.295-4.702 18.098-13.996 19.663s-18.098-4.702-19.663-13.996zM298.985 788.529c-47.729 1.679-125.603-35.644-132.31-71.19-1.748-9.262 4.344-18.188 13.606-19.935s18.188 4.344 19.935 13.606c0.992 5.26 14.947 16.938 35.628 26.849 21.977 10.533 46.628 17.096 61.941 16.557 29.505-1.038 48.351-15.81 74.951-58.73 8.868-14.308 30.902-8.497 31.56 8.324 3.276 83.755 44.37 131.207 170.090 150.245 102.374 15.502 197.994 9.878 287.031-16.798 9.029-2.705 18.542 2.422 21.247 11.451s-2.422 18.542-11.451 21.247c-94.003 28.163-194.705 34.087-301.938 17.849-119.716-18.129-176.226-64.432-193.412-138.269-22.549 25.993-45.69 37.697-76.88 38.794zM294.567 666.368c-49.511 22.173-78.962-5.011-78.962-66.268 0-43.525 38.079-67.998 79.414-50.077 8.648 3.749 12.619 13.799 8.869 22.447s-13.799 12.619-22.447 8.869c-18.953-8.217-31.702-0.023-31.702 18.76 0 39.125 7.163 45.736 30.878 35.116 8.602-3.852 18.699-0.002 22.552 8.601s0.002 18.699-8.601 22.552zM524.015 735.834c0-9.693-7.794-17.551-17.408-17.551s-17.408 7.858-17.408 17.551c0 9.693 7.794 17.551 17.408 17.551s17.408-7.858 17.408-17.551zM649.353 749.874c0-9.693-7.794-17.551-17.408-17.551s-17.408 7.858-17.408 17.551c0 9.693 7.794 17.551 17.408 17.551s17.408-7.858 17.408-17.551z" />
<glyph unicode="&#xe90b;" glyph-name="011" d="M810.763 563.335c0 7.545-5.928 13.474-13.474 13.474s-13.474-5.928-13.474-13.474c0-7.545 5.928-13.474 13.474-13.474s13.474 5.928 13.474 13.474zM489.55 489.499c0 7.545-5.928 13.474-13.474 13.474s-13.474-5.928-13.474-13.474c0-7.545 5.928-13.474 13.474-13.474s13.474 5.928 13.474 13.474zM901.306 566.029c0 33.954-10.779 70.602-35.032 70.602-53.356 0-107.251-14.013-132.042-21.558 2.695-8.623 4.851-17.246 5.928-26.408 1.078 5.389 5.928 9.701 11.318 10.24 1.078 5.389 5.928 9.701 11.857 10.24l101.861 10.779c6.467 0.539 12.935-3.773 14.552-10.24 7.545-30.181 1.078-81.92-23.175-113.179-13.474-17.246-30.72-26.408-50.661-26.408-9.701 0-17.785 2.695-24.792 6.467 2.695-3.234 5.389-7.545 6.467-11.857 1.078-3.234 1.078-5.928 1.078-9.162 11.857-4.851 24.253-7.006 38.265-7.006 28.025 0 45.272 19.402 54.973 36.109 12.396 22.636 19.402 51.739 19.402 81.381zM805.912 498.122c11.318 0 21.019 5.389 29.103 16.168 15.629 19.941 22.097 53.895 20.48 78.147l-88.387-9.162c0.539-25.869 8.623-85.154 38.804-85.154zM763.335 490.038c2.156-1.078 4.312-1.617 6.467-3.234-17.785 18.863-25.869 50.661-28.564 78.147-0.539-11.318-2.156-21.558-4.851-28.564-1.078-3.234-3.773-7.545-9.162-12.396 2.156-6.467 7.545-18.324 16.168-30.72 6.467 0 13.474-1.078 19.941-3.234zM712.135 491.116c-4.312 7.545-7.545 14.552-9.701 19.941-15.629-5.389-37.726-10.24-70.602-11.857 3.773-12.396 5.928-23.714 7.545-34.493 19.402 10.779 46.888 21.558 72.758 26.408zM617.28 525.608c45.811 1.617 89.465 10.24 92.699 19.941 5.928 16.168 5.928 54.434-8.623 74.375-5.928 8.084-12.396 11.318-21.019 11.857-24.253-0.539-60.362-18.863-87.309-34.493 5.389-9.162 19.402-37.726 24.253-71.68zM101.508 343.983c0 1.617-0.539 3.773-2.156 6.467l-1.617 3.234c0 0 0 0.539-0.539 0.539v-1.078c1.617-4.851 3.234-7.545 4.312-9.162zM928.253 566.029c0-33.954-8.623-68.446-23.714-94.316-18.863-31.798-46.349-49.044-78.147-49.044-17.785 0-35.032 3.234-50.122 9.701-24.253-28.025-78.686-56.589-116.413-73.836-1.617-1.078-3.773-1.078-5.389-1.078-4.851 0-9.701 2.695-12.396 8.084-3.234 7.006 0 14.552 6.467 17.785 52.817 24.253 101.861 56.051 111.562 71.141 0 0.539 0.539 1.078 0.539 1.617s0.539 0.539 0.539 1.078c0 0.539 0.539 1.078 0.539 1.617-0.539 2.156-2.695 4.851-8.084 7.006-22.636 8.084-75.992-7.545-106.712-26.408-1.617-1.078-3.773-1.617-5.389-2.156-2.156-57.667-36.109-86.771-61.44-100.783-24.792-13.474-54.973-20.48-84.615-20.48-41.499 0-80.842 12.935-99.166 36.648-37.187 47.427-33.954 125.036-32.337 156.295-33.415-3.234-101.322-40.96-148.211-66.829-32.337-17.785-59.823-32.876-79.225-40.421-21.019-8.084-23.714-12.935-23.714-14.013-1.078-2.695 4.312-12.396 8.623-20.48l1.617-3.234c5.389-9.701 7.006-19.402 4.312-28.564 22.097 45.272 78.686 66.291 111.562 71.141 7.545 1.078 14.013-3.773 15.091-11.318s-3.773-14.013-11.318-15.091c-1.078 0-98.627-16.168-98.627-85.693 0-29.103 18.863-33.415 29.642-33.415 16.168 0 37.187 17.246 46.349 28.564l0.539 0.539v0.539c21.558 23.175 35.032 56.051 35.032 56.589 2.695 7.006 10.779 10.24 17.785 7.545s10.24-10.779 7.545-17.785c-0.539-1.617-13.474-32.337-35.032-58.206 38.804-104.556 102.939-192.943 180.547-249.533 72.758-52.817 154.678-74.914 224.202-60.901 134.198 26.947 129.347 224.202 129.347 226.358 0 7.545 5.389 13.474 12.935 14.013 7.545 0 13.474-5.389 14.013-12.935 0-2.156 1.617-55.512-15.629-113.179-23.175-78.686-70.063-127.192-135.276-140.665-15.091-3.234-31.259-4.851-47.427-4.851-134.198 0-298.577 104.017-383.192 319.596-14.013-11.857-32.876-23.175-51.739-23.175-28.025 0-56.589 18.863-56.589 60.362 0 12.396 2.156 23.714 6.467 33.954-0.539-0.539-0.539-1.078-1.078-1.617-5.928-8.084-15.629-12.396-25.331-10.24-5.928 1.078-20.48 6.467-26.408 30.72-6.467 25.869-0.539 52.817 18.324 80.842 50.661 75.992 175.697 136.893 262.467 149.827 35.571 5.389 61.44 23.175 61.44 23.175 5.928 4.312 14.552 2.695 18.863-3.234s2.695-14.552-3.234-18.863c-1.078-1.078-31.259-21.558-73.297-28.025-93.777-14.013-192.943-74.375-235.52-126.653 1.617 0.539 3.773 1.617 5.389 2.156 17.246 6.467 45.811 22.097 75.992 38.804 82.459 45.272 143.36 77.069 177.853 68.985 4.851-1.078 7.545-3.773 9.162-7.545v0.539c-0.539 7.545 4.851 14.013 12.396 14.552s14.013-4.851 14.552-12.396c4.312-61.44 24.792-135.276 97.011-135.276 12.935 0 21.558 4.312 28.564 12.935 21.558 27.486 13.474 92.699 6.467 124.497-26.947-0.539-79.764-16.168-110.484-27.486-7.006-2.695-14.552 1.078-17.246 8.084s1.078 14.552 8.084 17.246c9.701 3.773 95.933 35.032 133.12 28.025 5.389-1.078 9.162-4.851 10.779-9.701 0.539-1.078 7.006-27.486 9.701-59.284 3.773-44.733-2.695-77.608-18.324-98.088-11.857-15.091-29.103-23.175-49.583-23.175-68.446 0-111.562 51.2-122.341 144.438v-3.773c-1.617-27.486-4.851-99.705 26.947-140.126 22.097-28.025 98.627-37.726 149.827-9.701 45.811 25.869 58.745 73.836 37.187 140.126-6.467 0.539-11.318 5.928-11.857 12.396-2.156 27.486-12.396 52.817-18.863 66.291-29.642-7.545-92.16-14.013-113.179-16.168-7.545-0.539-14.013 4.851-14.552 11.857-0.539 7.545 4.851 14.013 11.857 14.552 31.798 3.234 66.829 7.545 90.543 11.318l1.078 1.078c3.234 2.156 80.303 57.667 130.964 58.745 16.168 0.539 30.181-6.467 40.96-19.402 23.175 7.006 83.537 24.253 145.516 24.253 36.109 1.078 60.901-38.265 60.901-96.472zM702.434 262.602c-57.128-45.272-112.64-65.213-164.918-58.206-68.446 8.623-108.867 60.362-109.406 61.44-4.312 5.928-12.935 7.006-18.863 2.695s-7.006-12.935-2.695-18.863c2.156-2.695 46.888-61.44 127.192-71.68 8.084-1.078 15.629-1.617 23.714-1.617 52.817 0 106.712 22.097 161.684 65.213 5.928 4.851 7.006 12.935 2.156 18.863-4.312 5.389-12.935 6.467-18.863 2.156zM786.51 746.038c1.078 0 2.695 0 3.773 0.539l79.764 22.636c7.006 2.156 11.318 9.701 9.162 16.707s-9.701 11.318-16.707 9.162l-79.225-22.636c-7.006-2.156-11.318-9.701-9.162-16.707 1.617-5.928 7.006-9.701 12.396-9.701zM359.664 619.385c5.389 0 10.24 3.234 12.396 8.623 8.623 21.558 86.771 63.057 139.587 85.693 7.006 2.695 10.24 10.779 7.006 17.785s-10.779 10.24-17.785 7.006c-1.617-0.539-33.954-14.552-68.985-33.415-73.836-39.882-81.92-60.362-84.615-67.368s0.539-14.552 7.545-17.785c1.617-0.539 3.234-0.539 4.851-0.539zM949.811 940.598c0.539-7.545-5.389-14.013-12.396-14.013-209.112-12.396-335.225-80.303-410.678-120.724-52.817-28.025-87.848-46.888-113.718-24.792-22.097 19.402 5.389 57.667 39.882 106.712 9.162 12.396 21.019 29.642 28.025 41.499-31.798-15.629-80.842-82.459-114.796-128.808-46.888-64.135-70.602-94.855-92.16-94.855-8.084 0-14.552 3.234-18.324 9.701-9.162 13.474-3.773 38.804 12.935 79.764-60.362-70.063-95.933-133.12-115.874-177.314-26.947-59.823-32.876-98.088-32.876-98.627-1.078-6.467-6.467-11.318-13.474-11.318h-2.156c-7.545 1.078-12.396 8.084-11.318 15.091 1.078 6.467 24.792 163.301 205.339 344.926 5.928 5.928 13.474 5.389 18.324 2.156 10.24-7.006 7.006-14.013-5.389-42.577-8.084-18.863-31.798-71.68-32.876-92.16 14.552 10.779 44.194 51.2 66.291 81.381 61.44 84.076 108.328 143.36 148.749 143.36 11.318 0 16.168-7.006 17.785-9.701 7.545-15.091-5.389-34.493-36.109-77.608-15.091-21.019-42.038-59.284-42.577-71.68 12.935-8.084 40.421 7.006 81.92 29.103 77.608 41.499 206.956 111.023 421.996 123.958 7.006-0.539 12.935-5.928 13.474-13.474z" />
<glyph unicode="&#xe90c;" glyph-name="012" d="M208.613 276.092c2.883-4.037 6.92-5.767 11.533-5.767 2.883 0 5.767 1.153 8.65 2.883 59.972 44.979 223.741 110.717 291.209 136.666 5.19-4.613 11.533-8.073 19.029-9.226 19.606-2.883 37.482 10.38 40.366 29.409 2.307 15.57-5.767 30.563-19.606 37.482 2.307 67.468 10.38 226.047 35.176 360.407 1.73 8.073-3.46 15.57-11.533 16.723-8.073 1.73-15.57-3.46-16.723-11.533-25.373-135.513-33.446-295.822-35.752-364.444-10.956-4.613-19.606-14.416-21.913-27.103 0-1.73-0.577-2.883-0.577-4.613-68.621-26.526-233.544-93.418-296.975-140.703-6.343-4.613-7.496-13.84-2.883-20.183zM366.038 224.193l-41.519-31.716c-6.343-4.613-7.496-13.84-2.883-20.183 2.883-3.46 6.92-5.767 11.533-5.767 2.883 0 6.343 1.153 8.65 2.883l41.519 31.716c6.343 4.613 7.496 13.84 2.883 20.183-5.19 6.343-14.416 7.496-20.183 2.883zM319.33 651.492c-10.956 4.613-21.913 8.65-21.913 8.65-7.496 2.883-15.57-0.577-18.453-8.073s0.577-15.57 8.073-18.453c13.84-5.19 29.986-11.533 37.482-14.993 1.73-2.307 4.613-3.46 7.496-4.037 1.153 0 2.307-0.577 3.46-0.577 7.496 0 12.686 5.19 14.416 10.38 2.883 13.263-6.343 16.723-30.563 27.103zM434.083 713.77c3.46-3.46 7.496-5.19 10.956-5.19s6.92 1.153 9.226 3.46c10.38 8.65 5.19 17.3-9.226 39.212-6.343 9.803-13.263 19.606-13.263 19.606-4.613 6.343-13.263 8.073-20.183 4.037-6.343-4.613-8.073-13.263-4.037-20.183 8.073-12.11 17.876-26.526 21.913-33.446 1.153-2.883 2.883-5.767 4.613-7.496zM662.437 163.645c3.46-3.46 7.496-5.19 10.956-5.19s6.92 1.153 9.226 3.46c10.38 8.65 5.19 17.3-9.226 39.212-6.343 9.803-13.263 19.606-13.263 19.606-4.613 6.343-13.263 8.073-20.183 4.037-6.343-4.613-8.073-13.263-4.037-20.183 8.073-12.11 17.876-26.526 21.913-33.446 1.153-2.883 2.307-5.767 4.613-7.496zM867.148 602.476l-65.738-19.606c-7.496-2.307-12.11-10.38-9.803-17.876 1.73-6.343 7.496-10.38 13.84-10.38 1.153 0 2.883 0 4.037 0.577l65.738 19.606c7.496 2.307 12.11 10.38 9.803 17.876-1.73 8.073-9.803 12.11-17.876 9.803zM776.037 748.369c-16.146-8.073-55.935-47.285-63.432-55.359-5.767-5.767-5.767-14.993 0-20.183 2.883-2.883 6.343-4.037 10.38-4.037s7.496 1.153 10.38 4.037c17.876 17.876 47.285 45.555 55.935 49.592 6.92 3.46 9.803 12.11 6.343 19.606-4.037 6.92-12.686 9.803-19.606 6.343zM195.35 449.664c0-8.073 6.343-14.416 14.416-14.416h86.498c8.073 0 14.416 6.343 14.416 14.416s-6.343 14.416-14.416 14.416h-86.498c-8.073 0-14.416-6.343-14.416-14.416zM900.594 434.671c0 8.073-6.343 14.416-14.416 14.416h-86.498c-8.073 0-14.416-6.343-14.416-14.416s6.343-14.416 14.416-14.416h86.498c8.073 0 14.416 6.92 14.416 14.416zM774.884 280.128c-6.92 4.037-15.57 1.73-19.606-5.19s-1.73-15.57 5.19-19.606c24.796-14.993 54.205-35.752 58.242-43.249 2.883-4.613 7.496-7.496 12.686-7.496 2.307 0 4.613 0.577 6.92 1.73 6.92 4.037 9.803 12.686 5.767 19.606-9.803 17.876-55.359 46.132-69.198 54.205zM537.88 180.944c-8.073 0.577-14.993-5.767-14.993-13.263-0.577-10.956-3.46-65.162 0.577-82.461 1.73-6.92 7.496-10.956 13.84-10.956 1.153 0 2.307 0 3.46 0.577 7.496 1.73 12.686 9.803 10.956 17.3-2.307 9.803-1.153 49.015 0.577 73.811-0.577 7.496-6.343 14.416-14.416 14.993zM1023.997 482.533c0-388.663-258.34-527.059-500.533-527.059-129.747 0-251.42 44.402-342.531 124.557-98.607 87.074-150.506 205.864-150.506 343.684 0 80.155 14.416 155.696 42.096 226.047-25.949-21.336-48.439-35.752-50.169-36.906-6.92-4.037-15.57-2.307-20.183 4.037-4.037 6.92-2.307 15.57 4.037 20.183 0.577 0.577 69.775 45.555 103.221 89.958 0.577 0.577 0.577 1.153 1.153 1.73 0.577 1.153 1.73 2.307 2.883 3.46 3.46 4.037 9.803 5.767 14.993 4.037 5.767-1.73 9.803-7.496 9.803-13.84 0-58.818 2.883-149.353 9.803-165.499 2.883-7.496 0-15.57-7.496-19.029-1.73-0.577-4.037-1.153-5.767-1.153-5.767 0-10.956 3.46-13.263 8.65-7.496 17.3-10.38 74.388-11.533 119.943-34.022-74.388-51.322-155.696-51.322-242.194 0-129.747 49.015-241.040 141.28-322.348 85.921-75.541 200.675-117.060 322.925-117.060 129.17 0 245.077 40.942 326.385 115.33 96.301 87.651 144.739 216.821 144.739 382.896 0 427.299-380.59 449.211-456.708 449.211-185.105 0-321.771-104.951-323.501-106.104-6.343-5.19-15.57-4.037-20.183 2.307-5.19 6.343-4.037 15.57 2.307 20.183 5.767 4.613 145.316 112.447 340.801 112.447 69.775 0 203.558-12.686 316.582-97.454 113.6-83.038 170.689-211.054 170.689-380.013z" />
<glyph unicode="&#xe90d;" glyph-name="013" d="M989.48 429.99c-44.914 47.291-136.598 178.801-181.089 243.020-1.128-26.14-2.844-54.473-5.695-84.852-2.078-25.298-4.811-48.657-7.358-69.128 21.507-22.803 44.111-45.901 65.912-67.607l0.548-0.147c47.655-48.025 90.2-88.805 108.428-101.916 5.357 15.605 13.916 49.743 19.255 80.631zM881.177 392.023c-6.099 5.747-12.051 12.043-18.551 18.486-1.351 1.537-2.301 2.379-3.651 3.916-3.203-18.533-3.224-36.155 1.083-42.010 0.401-0.695 0.401-0.695 1.498-0.989 12.796-0.491 17.966 12.226 19.621 20.597zM774.108 591.117c15.15 163.995 1.4 222.327-3.592 236.592-8.78 26.444-49.271 41.995-126.602 69.179-77.184 27.733-116.414 28.255-155.507 20.514 0 0-13.276-3.494-15.073-69.412-1.149-43.762 2.625-97.658 6.45-140.403l1.075-17.916c0.43-7.167 1.115-15.576 1.652-24.535 4.136-56.931 12.477-174.924 21.522-193.8 12.119-16.175 138.254-47.622 205.336-53.844 18.973-1.558 32.543 3.032 42.816 32.598 10.821 29.419 16.033 77.381 21.923 141.027zM457.777 618.88c-0.86 14.333-2.122 29.361-3.384 44.389-0.538 8.958-1.222 17.368-1.652 24.535l-1.222 17.368c-0.753 12.541-1.652 24.535-2.699 35.979l-212.567-122.262c-10.301-23.094-20.241-49.224-26.586-66.327 42.354 13.331 142.541 51.71 179.96 66.363 16.35 6.196 26.885 10.424 30.067 11.335 22.019 7.615 33.668-3.733 37.134-10.538 0.548-0.147 0.95-0.842 0.95-0.842zM362.249 562.8c10.427 6.020 16.214 14.459 19.514 22.389-12.473-4.884-24.251-9.367-35.334-13.449 2.114-5.267 4.522-9.438 7.665-10.868 2.046-1.136 6.070 0.724 8.155 1.928zM982.255 319.694c-4.171-2.408-7.901-3.171-12.835-1.849-8.772 2.35-20.059 10.663-40.001 28.346-7.597 6.736-15.996 14.863-25.893 23.979-7.001-15.165-20.582-28.566-44.235-26.929-2.34 0.039-4.533 0.627-6.726 1.215-6.579 1.763-12.022 5.572-16.329 11.427-14.527 20.345-6.652 62.893-2.059 82.229-17.053 17.497-32.755 33.456-44.806 45.499-2.762-16.888-6.582-31.142-10.509-43.605-13.719-38.044-36.992-54.724-71.904-51.246-19.522 1.705-82.139 11.432-137.512 26.269-44.408 11.899-83.254 27.009-91.242 43.251-8.79 17.633-14.786 78.588-20.439 151.79-1.175-4.386-3.995-8.331-8.019-10.191-5.669-1.419-11.699 0.197-15.752 4.808-0.695-0.401-1.939-0.656-3.877-1.312s-7.754-2.623-16.35-6.196c-1.773-15.39-9.118-42.802-37.619-59.257-11.817-6.823-21.872-7.067-28.999-5.157-2.193 0.588-3.838 1.028-5.336 2.017-11.474 5.425-17.895 16.547-21.722 26.387-105.161-39.397-123.958-43.762-131.085-41.852-1.096 0.294-2.046 1.136-3.691 1.577-12.678 7.51-10.102 21.51 7.867 66.642 9.205 23.388 19.506 46.482 19.506 46.482 1.283 2.594 3.114 5.042 5.894 6.647l228.702 132.041c-5.406 96.053-1.082 164.819 36.219 172.452 42.128 8.103 87.281 7.756 170.496-21.592 81.57-28.908 130.432-46.114 144.203-86.823 8.271-23.957 11.733-63.667 11.562-114.743 19.744-29.382 155.039-228.4 204.886-277.013 3.25-3.221 4.963-7.793 4.336-12.326-17.269-101.729-31.867-110.157-36.733-112.967zM626.649 492.542c-10.015 2.096-49.636 12.125-51.28 12.565-12.61 3.379-25.67-3.699-29.891-17.258-3.927-12.463 1.025-29.067 17.58-35.266 5.884-2.164 12.463-3.927 19.59-5.837 13.158-3.526 27.158-6.102 37.065-6.406 12.943 0.058 23.155 9.661 24.487 23.406 2.175 14.695-5.343 26.111-17.551 28.795zM636.374 645.063c-9.331-6.314-18.368-11.531-26.562-15.799 7.371-11.964 15.731-22.431 21.027-26.788 2.752 8.077 4.525 23.467 5.535 42.587zM665.132 693.18c2.696-68.884-4.444-108.691-20.433-117.922-5.561-3.211-11.631-3.935-17.662-2.319l-0.548 0.147c-16.849 5.102-33.382 28.923-42.76 44.363-11.484-3.386-21.138-4.325-28.265-2.416-2.193 0.588-4.239 1.723-5.737 2.712-4.493 2.967-7.45 7.285-8.468 12.258-2.544 12.434 7.453 25.62 24.774 48.597 12.376 15.487 15.393 31.132 15.393 31.132 1.508 7.822 9.302 12.785 16.429 10.876 7.822-1.508 12.932-8.754 11.424-16.576-0.294-1.096-4.633-21.675-20.965-43.154-3.515-4.347-8.166-10.739-11.975-16.182 11.484 3.386 30.909 12.284 61.574 34.623-0.068 4.131-0.136 8.263-0.205 12.394-0.283 7.715 5.611 14.362 13.874 14.498 6.765 1.125 13.265-5.317 13.549-13.032zM722.992 801.661c-18.64 4.995-75.51 20.821-105.517 29.448-45.21 13.289-76.206 20.419-90.352 22.447-2.217-49.94 4.481-257.396 10.108-291.222 10.377-5.131 41.842-17.088 77.585-28.428 48.754-15.414 72.916-19.538 82.276-19.695 12.035 36.145 31.38 253.076 25.9 287.45zM744.165 652.612c-13.23-148.057-23.99-157.513-28.053-161.713-5.454-5.002-12.591-11.904-70.157 3.521-10.417 2.791-22.879 6.718-36.987 11.086-1.096 0.294-83.401 26.46-94.101 36.966-4.601 4.758-9.349 8.969-14.34 146.043-2.119 62.266-3.669 142.008-1.953 170.341 0.265 7.568 0.931 14.441 6.933 19.296 6.55 4.709 13.247 9.965 119.165-20.178 36.037-10.244 110.852-31.466 111.401-31.613 4.386-1.175 8.184-4.543 9.349-8.969 0.401-0.695 0.803-1.39 1.204-2.085 9.417-13.1 3.761-95.612-2.462-162.694zM76.136-35.693c-21.048 9.165-34.156 23.842-37.17 41.103-3.161 16.712 3.332 34.364 18.048 49.811 3.916 3.651 6.991 6.353 9.37 8.654 1.792 0.108 3.035 0.362 4.827 0.47 13.237 1.154 19.425 8.898 20.639 15.623s-1.702 13.383-7.841 16.791c-6.686 3.554-15.243 2.322-25.523-3.15-6.726 1.215-14.215 6.159-18.805 19.729-9.034 27.688 3.012 72.643 31.66 89.647 6.951 4.013 9.302 12.785 5.142 19.188-4.013 6.951-12.785 9.302-19.188 5.142-41.709-24.080-57.173-83.986-44.605-122.609 4.59-13.57 12.255-24.438 22.192-31.213-19.915-21.694-28.758-48.117-23.669-72.984 5.196-26.659 24.109-48.18 53.489-61.341l2.193-0.588c6.579-1.763 13.932 1.555 16.791 7.841s-0.165 14.734-7.547 17.887zM518.925 358.052c-6.54 4.103-15.243 2.322-19.346-4.218-181.134-283.461-365.601-265.764-367.794-265.177-7.969 0.96-14.666-4.297-15.626-12.266-0.813-7.421 3.347-13.824 10.474-15.734l1.645-0.441c7.969-0.96 203.107-22.692 395.413 278.342 3.956 5.991 1.773 15.39-4.766 19.493zM557.524 320.092c-7.528 2.605-15.723-1.663-17.633-8.79-0.441-1.645-52.176-155.249-115.767-195.208-6.403-4.16-8.754-12.932-4.593-19.335 2.154-2.927 5.002-5.454 8.292-6.335 3.838-1.028 7.568-0.265 11.044 1.742 72.080 45.323 125.685 203.715 127.448 210.294 2.458 6.98-1.81 15.175-8.79 17.633zM281.861 326.382c7.607 2.075 12.004 9.711 9.929 17.318s-9.711 12.004-17.318 9.929c-23.517-6.626-64.57-32.645-54.177-85.964 0.871-5.522 5.071-9.585 10.553-11.054 2.193-0.588 3.985-0.48 6.471 0.029 7.46 1.527 12.953 8.869 11.427 16.329-7.995 40.337 29.238 52.101 33.115 53.413zM317.538 229.269c130.529 66.093 162.777 157.932 163.952 162.318 2.605 7.528-1.663 15.723-8.79 17.633-7.528 2.605-15.723-1.663-17.633-8.79-0.294-1.096-29.789-84.859-150.038-145.48-6.805-3.465-9.703-12.090-6.238-18.895 1.86-4.024 5.404-6.149 9.241-7.177 3.143-1.43 6.726-1.215 9.506 0.391zM585.671 773.82c2.057 7.675-2.358 15.322-10.034 17.379s-15.322-2.358-17.379-10.034c-2.057-7.675 2.358-15.322 10.034-17.379s15.322 2.358 17.379 10.034zM637.951 771.563c2.057 7.675 9.703 12.090 17.379 10.034s12.090-9.703 10.034-17.379c-2.057-7.675-9.703-12.090-17.379-10.034s-12.090 9.703-10.034 17.379z" />
<glyph unicode="&#xe90e;" glyph-name="014" d="M936.247 377.837h-35.354c-9.414 0-17.046 7.641-17.046 17.067s7.632 17.067 17.046 17.067h35.354c29.475 0 53.662 24.217 53.662 53.728s-24.187 53.728-53.662 53.728h-388.893c-11.11 0-19.251 10.471-16.524 21.255 0.249 0.983 0.74 3.008 1.439 6.025 1.18 5.094 2.5 11.081 3.923 17.913 4.084 19.592 8.173 41.969 11.993 66.733 10.922 70.81 17.477 146.447 17.477 223.718 0 29.512-24.187 53.728-53.662 53.728s-53.662-24.217-53.662-53.728l-0.275-3.053c-0.159-0.873-0.463-2.461-0.92-4.716-0.749-3.692-1.663-7.956-2.75-12.745-3.090-13.614-6.95-28.755-11.635-45.048-13.389-46.566-30.73-93.148-52.508-136.758-63.343-126.841-151.051-204.121-267.142-204.121h-89.016v-390.637h159.724c32.141 0 65.024-8.979 146.806-36.273 77.311-25.802 109.243-34.522 136.025-34.522h353.539c29.475 0 53.662 24.217 53.662 53.728s-24.187 53.728-53.662 53.728c-22.727 0-22.727 34.133 0 34.133h35.354c29.475 0 53.662 24.217 53.662 53.728s-24.187 53.728-53.662 53.728c-22.727 0-22.727 34.133 0 34.133h35.354c29.475 0 53.662 24.217 53.662 53.728s-24.187 53.728-53.662 53.728c-9.414 0-17.046 7.641-17.046 17.067s7.632 17.067 17.046 17.067c25.712 0 48.915-11.191 64.995-28.954-9.267-3.351-19.249-5.179-29.641-5.179zM988.646 324.109c0-37.959-24.302-70.457-58.112-82.683 14.129-15.607 22.759-36.288 22.759-58.908 0-37.959-24.302-70.457-58.112-82.683 14.129-15.607 22.759-36.288 22.759-58.908 0-48.363-39.45-87.862-87.753-87.862h-353.539c-32.141 0-65.024 8.979-146.806 36.273-77.311 25.802-109.243 34.522-136.025 34.522h-176.769c-9.414 0-17.046 7.641-17.046 17.067v424.77c0 9.426 7.632 17.067 17.046 17.067h106.062c100.452 0 178.464 68.736 236.65 185.252 20.757 41.565 37.389 86.242 50.239 130.936 4.499 15.648 8.2 30.166 11.152 43.17 1.501 6.614 2.529 11.566 3.113 14.616 0.894 47.6 39.991 86.195 87.738 86.195 48.303 0 87.753-39.499 87.753-87.862 0-79.142-6.703-156.489-17.877-228.928-3.914-25.373-8.11-48.335-12.313-68.497-0.291-1.395-0.578-2.758-0.86-4.087h367.543c48.303 0 87.753-39.499 87.753-87.862 0-37.959-24.302-70.457-58.112-82.683 14.129-15.607 22.759-36.288 22.759-58.908z" />
<glyph unicode="&#xe90f;" glyph-name="015" d="M219.023 487.706c-29.277 0-53.011-23.391-53.011-52.245v-376.163c0-28.854 23.734-52.245 53.011-52.245h572.514c29.277 0 53.011 23.391 53.011 52.245v376.163c0 28.854-23.734 52.245-53.011 52.245h-572.514zM219.023 550.4h572.514c64.409 0 116.623-51.46 116.623-114.939v-376.163c0-63.479-52.214-114.939-116.623-114.939h-572.514c-64.409 0-116.623 51.46-116.623 114.939v376.163c0 63.479 52.214 114.939 116.623 114.939zM680.084 542.041v177.633c0 98.104-80.694 177.633-180.236 177.633s-180.236-79.529-180.236-177.633v-177.633h360.472zM499.848 960c134.674 0 243.848-107.598 243.848-240.327v-223.26h-487.697v223.26c0 132.729 109.175 240.327 243.848 240.327zM477.867 314.253v-159.784c0-17.312 14.24-31.347 31.806-31.347s31.806 14.035 31.806 31.347v159.784c0 17.312-14.24 31.347-31.806 31.347s-31.806-14.035-31.806-31.347z" />
<glyph unicode="&#xe910;" glyph-name="016" d="M917.061 563.19l-111.026-264.797h-450.829l-288.062 607.311c-8.348 17.599-29.382 25.099-46.981 16.751s-25.099-29.382-16.751-46.981l307.181-647.62h542.354l170.178 405.874h-637.291c-19.479 0-35.269-15.791-35.269-35.269s15.791-35.269 35.269-35.269h531.227zM377.772 140.8c48.406 0 87.639-39.233 87.639-87.639s-39.233-87.639-87.639-87.639c-48.406 0-87.639 39.233-87.639 87.639s39.262 87.639 87.639 87.639zM804.439 140.8c48.406 0 87.639-39.233 87.639-87.639s-39.233-87.639-87.639-87.639c-48.406 0-87.639 39.233-87.639 87.639s39.233 87.639 87.639 87.639z" />
<glyph unicode="&#xe911;" glyph-name="017" d="M0 811.027h666.217c132.627 0 240.578-107.952 240.578-240.578s-107.952-240.578-240.578-240.578h-431.807l138.795 138.795c24.675 24.675 24.675 61.687 0 86.361s-61.687 24.675-86.361 0l-286.843-283.759 283.759-283.759c12.337-12.337 27.759-18.506 43.181-18.506s30.843 6.169 43.181 18.506c24.675 24.675 24.675 61.687 0 86.361l-138.795 138.795h431.807c197.398 0 360.867 160.386 360.867 360.867 0 197.398-160.386 360.867-360.867 360.867h-663.133v-123.373z" />
<glyph unicode="&#xe912;" glyph-name="018" d="M593.796 942.933c-13.568 0-26.624-5.376-36.198-15.002l-525.517-525.517c-20.019-20.019-20.019-52.429 0-72.397l131.584-131.635c9.984-9.984 23.091-15.002 36.198-15.002s26.214 5.018 36.198 15.002c1.792 1.792 3.84 2.15 5.274 2.15 1.382 0 3.43-0.358 5.222-2.15 2.918-2.918 2.918-7.629 0-10.496-19.968-20.019-19.968-52.429 0-72.397l131.635-131.635c9.984-9.984 23.091-15.002 36.198-15.002s26.214 5.018 36.198 15.002l525.568 525.517c19.968 20.019 19.968 52.429 0 72.448l-131.584 131.533c-9.574 9.574-22.63 15.002-36.198 15.002-0.154 0-0.256 0-0.41 0-13.773-0.154-26.88-5.786-36.403-15.667-0.256-0.205-0.461-0.461-0.717-0.717-1.587-1.28-3.379-1.587-4.608-1.587-1.485 0-3.584 0.41-5.427 2.253s-2.202 3.942-2.202 5.376c0 1.28 0.307 3.021 1.587 4.659 0.256 0.256 0.563 0.512 0.819 0.768 9.83 9.574 15.411 22.63 15.514 36.352s-5.274 26.931-15.002 36.608l-131.533 131.533c-9.574 9.626-22.63 15.002-36.198 15.002zM593.796 891.733l131.533-131.533c-0.205-0.205-0.461-0.358-0.717-0.614-22.938-22.938-22.938-60.211 0-83.149 11.52-11.52 26.573-17.254 41.626-17.254s30.106 5.734 41.574 17.254c0.205 0.205 0.358 0.461 0.563 0.717l131.533-131.533-525.517-525.568-131.584 131.635c22.835 22.886 22.835 60.006-0.051 82.893-11.418 11.418-26.419 17.152-41.421 17.152s-30.003-5.683-41.472-17.152l-131.584 131.635 525.517 525.517zM260.13 383.249l171.725-171.725 316.621 316.621-171.725 171.725-316.621-316.621zM431.855 139.127l-244.122 244.122 389.018 389.018 244.122-244.122-389.018-389.018z" />
<glyph unicode="&#xe913;" glyph-name="019" d="M128 483.485v66.915l-43.008-36.499 43.008-30.416zM832.512 896.127h-640v-458.265l154.624-108.483c19.456 18.25 44.032 31.43 73.728 40.554s60.416 13.18 92.16 13.18c31.744 0 62.464-4.055 92.16-13.18s54.272-22.305 72.704-40.554l154.624 108.483v458.265zM939.008 513.901l-43.008 36.499v-66.915l43.008 30.416zM722.944 284.768l236.544-239.271v405.545l-236.544-166.273zM389.12 282.741l-280.576-282.867h805.888l-280.576 282.867c-12.288 12.166-29.696 22.305-52.224 28.388s-46.080 9.125-69.632 9.125c-24.576 0-48.128-3.042-70.656-9.125s-39.936-15.208-52.224-28.388v0zM301.056 284.768l-236.544 166.273v-404.531l236.544 238.257zM896 633.537l128-107.469v-590.067h-1024v590.067l128 108.483v325.45h768v-326.463zM483.328 513.901l-142.336 140.927 50.176 50.693 92.16-91.248 149.504 149.038 50.176-50.693-199.68-198.717z" />
<glyph unicode="&#xe914;" glyph-name="114" d="M740.694 960h-457.386c-157.014 0-283.306-126.294-283.306-283.306v-459.094c0-155.306 126.294-281.6 283.306-281.6h459.094c155.306 0 281.6 126.294 281.6 283.306v457.386c0 157.014-126.294 283.306-283.306 283.306zM933.546 219.306c0-105.814-85.334-191.146-191.146-191.146h-459.094c-105.814 0-191.146 85.334-191.146 191.146v457.386c0 105.814 85.334 191.146 191.146 191.146h459.094c105.814 0 191.146-85.334 191.146-191.146v-457.386zM512 712.534c-145.066 0-264.534-117.76-264.534-264.534 0-145.066 117.76-264.534 264.534-264.534s264.534 119.466 264.534 264.534c0 145.066-119.466 264.534-264.534 264.534zM512 275.626c-95.574 0-172.374 76.8-172.374 172.374s76.8 172.374 172.374 172.374 172.374-76.8 172.374-172.374c0-95.574-76.8-172.374-172.374-172.374zM786.774 789.334c-17.066 0-34.134-6.826-47.786-18.774-11.946-11.946-18.774-29.014-18.774-47.786 0-17.066 6.826-34.134 18.774-47.786 11.946-11.946 29.014-18.774 47.786-18.774 17.066 0 34.134 6.826 47.786 18.774 11.946 11.946 18.774 29.014 18.774 47.786 0 17.066-6.826 34.134-18.774 47.786-13.654 11.946-30.72 18.774-47.786 18.774z" />
<glyph unicode="&#xe915;" glyph-name="020" d="M128 483.485v66.915l-43.008-36.499 43.008-30.416zM832.512 896.127h-640v-458.265l154.624-108.483c19.456 18.25 44.032 31.43 73.728 40.554s60.416 13.18 92.16 13.18c31.744 0 62.464-4.055 92.16-13.18s54.272-22.305 72.704-40.554l154.624 108.483v458.265zM939.008 513.901l-43.008 36.499v-66.915l43.008 30.416zM722.944 284.768l236.544-239.271v405.545l-236.544-166.273zM389.12 282.741l-280.576-282.867h805.888l-280.576 282.867c-12.288 12.166-29.696 22.305-52.224 28.388s-46.080 9.125-69.632 9.125c-24.576 0-48.128-3.042-70.656-9.125s-39.936-15.208-52.224-28.388v0zM301.056 284.768l-236.544 166.273v-404.531l236.544 238.257zM896 633.537l128-107.469v-590.067h-1024v590.067l128 108.483v325.45h768v-326.463zM272.21 772.267h174.021v51.2h-174.021zM395.030 635.733h358.252v51.2h-358.252zM272.21 499.2h481.073v51.2h-481.073z" />
<glyph unicode="&#xe916;" glyph-name="021" d="M460.8 482.133h120.209v-121.442h-120.209v121.442zM665.6 482.133h120.209v-121.442h-120.209v121.442zM665.6 277.333h120.209v-121.442h-120.209v121.442zM460.8 277.333h120.209v-121.442h-120.209v121.442zM256 277.333h120.209v-121.442h-120.209v121.442zM892.661 119.054c-45.479-32.587-199.667-102.092-380.661-102.092s-335.182 69.505-380.661 102.092v446.138h761.322v-446.138zM892.661 838.436h-126.9v60.843c0 33.397-27.047 60.721-60.104 60.721s-60.104-27.324-60.104-60.721v-121.685c0-26.231 16.829-48.536 40.070-56.956-6.291-2.267-12.983-3.765-20.035-3.765-33.057 0-60.104 27.324-60.104 60.721v60.843h-224.59v49.913c0 33.397-27.047 60.721-60.104 60.721s-60.104-27.324-60.104-60.721v-121.645c0-19.471 9.336-36.716 23.601-47.848-4.648-1.174-9.416-1.984-14.385-1.984-33.057 0-60.104 27.324-60.104 60.721v60.843h-78.456c-44.077 0-80.139-35.299-80.139-78.452v-667.041c0-43.152 220.383-156.944 460.8-156.944s460.8 113.791 460.8 156.944v667.041c0 43.152-36.063 78.452-80.139 78.452v0z" />
<glyph unicode="&#xe917;" glyph-name="022" d="M512 58.88c214.905 0 389.12 174.215 389.12 389.12s-174.215 389.12-389.12 389.12c-214.905 0-389.12-174.215-389.12-389.12s174.215-389.12 389.12-389.12zM512-64c-282.77 0-512 229.23-512 512s229.23 512 512 512c282.77 0 512-229.23 512-512s-229.23-512-512-512zM577.118 710.214c0 33.932-27.508 61.44-61.44 61.44s-61.44-27.508-61.44-61.44v-286.901l163.686-163.686c23.994-23.994 62.895-23.994 86.889 0s23.994 62.895 0 86.889l-127.696 127.696v236.003z" />
<glyph unicode="&#xe918;" glyph-name="023" d="M113.294 22.78c13.072 26.034 30.502 56.407 65.362 69.424 17.43 8.678 43.574 13.017 65.362 17.356 61.004 8.678 148.153 26.034 178.655 125.831 26.145-13.017 56.647-17.356 87.149-17.356s61.004 4.339 87.149 17.356c30.502-99.797 117.651-117.153 178.655-125.831 26.145-4.339 47.932-8.678 65.362-17.356 34.86-13.017 56.647-43.39 69.719-69.424h-797.413zM335.523 521.763v177.898c0 95.458 78.434 173.559 174.298 173.559s174.298-78.102 174.298-173.559v-177.898c0-104.136-74.077-216.949-174.298-216.949s-174.298 112.814-174.298 216.949v0zM1015.285-11.932c0 4.339-26.145 143.186-139.438 186.576-26.145 8.678-56.647 17.356-82.791 21.695-69.719 13.017-108.936 21.695-117.651 91.119 61.004 60.746 95.864 147.525 95.864 234.305v177.898c0 143.186-117.651 260.339-261.447 260.339s-261.447-117.153-261.447-260.339v-177.898c0-86.78 34.86-173.559 95.864-234.305-8.715-73.763-47.932-82.441-117.651-91.119-26.145-4.339-56.647-8.678-82.791-21.695-113.294-43.39-139.438-182.237-139.438-186.576l-4.357-52.068h1024l-8.715 52.068z" />
<glyph unicode="&#xe919;" glyph-name="024" d="M512 482.133c-75.093 0-136.533 61.44-136.533 136.533s61.44 136.533 136.533 136.533c75.093 0 136.533-61.44 136.533-136.533s-61.44-136.533-136.533-136.533zM512 960c-187.733 0-341.333-153.6-341.333-341.333 0-307.2 341.333-682.667 341.333-682.667s341.333 375.467 341.333 682.667c0 187.733-153.6 341.333-341.333 341.333z" />
<glyph unicode="&#xe91a;" glyph-name="025" d="M762.184 859.992c-69.653 66.689-153.666 100.008-252.091 100.008s-182.437-33.319-252.040-100.008c-69.653-66.638-104.454-147.125-104.454-241.308 0-48.446 7.665-88.255 22.945-119.325l254.186-516.037c6.95-14.667 17.733-26.216 32.399-34.648 14.615-8.432 30.253-12.674 46.964-12.674s32.399 4.242 47.015 12.674c14.615 8.432 25.654 19.981 33.064 34.648l253.47 516.037c15.331 31.071 22.996 70.88 22.996 119.325 0 94.183-34.801 174.67-104.454 241.308zM510.094 448c-49.212 0-91.219 16.66-126.020 50.030-34.801 33.319-52.227 73.537-52.227 120.654 0 47.066 17.426 87.335 52.227 120.654s76.808 49.979 126.020 49.979c49.212 0 91.219-16.66 126.071-49.979 34.801-33.319 52.227-73.588 52.227-120.654 0-47.117-17.426-87.335-52.227-120.654-34.852-33.37-76.859-50.030-126.071-50.030z" />
<glyph unicode="&#xe91b;" glyph-name="026" d="M322.039 25.385c386.432 0 597.751 320.143 597.751 597.751 0 9.101-0.184 18.159-0.602 27.158 41.016 29.655 76.68 66.661 104.81 108.781-37.644-16.723-78.155-27.989-120.647-33.073 43.37 26.007 76.67 67.156 92.375 116.219-40.598-24.066-85.544-41.569-133.399-50.997-38.33 40.835-92.934 66.375-153.351 66.375-116.028 0-210.122-94.087-210.122-210.076 0-16.485 1.847-32.522 5.456-47.9-174.606 8.78-329.438 92.383-433.039 219.504-18.064-31.045-28.456-67.118-28.456-105.601 0-72.887 37.093-137.227 93.487-174.871-34.453 1.059-66.832 10.532-95.145 26.283-0.046-0.875-0.046-1.76-0.046-2.683 0-101.754 72.423-186.699 168.548-205.965-17.646-4.8-36.215-7.389-55.387-7.389-13.532 0-26.694 1.342-39.491 3.79 26.739-83.468 104.295-144.206 196.267-145.92-71.926-56.348-162.5-89.926-260.931-89.926-16.957 0-33.672 0.969-50.117 2.905 92.982-59.585 203.373-94.365 322.039-94.365z" />
<glyph unicode="&#xe91c;" glyph-name="027" d="M324.267 960h360.761l-45.095-647.711h-270.571zM409.6 209.067h187.733c18.851 0 34.133-15.282 34.133-34.133v-204.8c0-18.851-15.282-34.133-34.133-34.133h-187.733c-18.851 0-34.133 15.282-34.133 34.133v204.8c0 18.851 15.282 34.133 34.133 34.133z" />
<glyph unicode="&#xe91d;" glyph-name="028" d="M770.626 952.616v-162.475h-96.624c-35.289 0-59.077-7.352-71.365-22.16-12.341-14.756-18.485-36.917-18.485-66.429v-116.316h180.329l-23.998-182.167h-156.331v-467.049h-188.311v467.049h-156.908v182.167h156.908v134.17c0 76.301 21.373 135.483 64.013 177.493 42.693 42.063 99.512 63.12 170.457 63.12 60.337 0 107.074-2.468 140.314-7.404z" />
<glyph unicode="&#xe91e;" glyph-name="029" d="M325.818 497.98v-109.712h184.784c-7.44-47.088-55.856-138.064-184.784-138.064-111.248 0-202 90.512-202 202.064 0 111.536 90.752 202.048 202 202.048 63.296 0 105.664-26.512 129.856-49.36l88.448 83.648c-56.784 52.112-130.336 83.664-218.304 83.664-180.128 0-325.824-143.088-325.824-320s145.696-320 325.824-320c188.048 0 312.784 129.824 312.784 312.688 0 21.024-2.32 37.024-5.12 53.024h-307.664zM930.909 497.98v91.424h-93.088v-91.424h-93.088v-91.424h93.088v-91.424h93.088v91.424h93.088v91.424z" />
<glyph unicode="&#xe91f;" glyph-name="030" d="M512 960c282.766 0 512-126.009 512-281.429s-229.234-281.429-512-281.429c-282.766 0-512 126.009-512 281.429s229.234 281.429 512 281.429zM512.006 321.129c-195.84 0-400.299 63.26-502.443 183.012-6.116-17.38-9.557-35.271-9.557-53.646 0-155.449 229.234-281.429 512-281.429s512 125.98 512 281.429c0 18.375-3.442 36.267-9.557 53.646-102.144-119.751-306.603-183.012-502.443-183.012zM512.006 93.047c-195.84 0-400.299 63.26-502.443 183.012-6.116-17.38-9.557-35.271-9.557-53.646 0-155.449 229.234-281.429 512-281.429s512 125.98 512 281.429c0 18.375-3.442 36.267-9.557 53.646-102.144-119.751-306.603-183.012-502.443-183.012z" />
<glyph unicode="&#xe920;" glyph-name="031" d="M512-64c-282.77 0-512 229.23-512 512s229.23 512 512 512c282.77 0 512-229.23 512-512s-229.23-512-512-512zM241.004 486.175l-72.408-72.408 239.425-239.425 442.254 442.254-72.408 72.408-369.846-369.846-167.018 167.018z" />
<glyph unicode="&#xe921;" glyph-name="117" d="M727.040 408.747h-139.947c-37.547 0-68.267-30.72-68.267-68.267v-107.52c0-37.547 30.72-68.267 68.267-68.267h139.947c37.547 0 68.267 30.72 68.267 68.267v107.52c1.707 37.547-29.013 68.267-68.267 68.267v0zM745.813 232.96c0-10.24-8.533-18.773-18.773-18.773h-139.947c-10.24 0-18.773 8.533-18.773 18.773v107.52c0 10.24 8.533 18.773 18.773 18.773h139.947c10.24 0 18.773-8.533 18.773-18.773v-107.52zM1024 601.6c0 5.12-1.707 8.533-3.413 11.947l-151.893 267.947c-5.12 8.533-11.947 11.947-22.187 11.947h-669.013c-8.533 0-17.067-5.12-22.187-11.947l-151.893-266.24c-1.707-5.12-3.413-8.533-3.413-13.653 0-59.733 35.84-110.933 87.040-134.827v-442.027c0-13.653 11.947-25.6 25.6-25.6h797.013c13.653 0 25.6 11.947 25.6 25.6v440.32c0 1.707 0 1.707 0 3.413 52.907 22.187 88.747 73.387 88.747 133.12v0zM191.147 843.947h640l119.467-209.92h-877.227l117.76 209.92zM728.747 584.533c-8.533-44.373-47.787-80.213-95.573-80.213s-87.040 34.133-95.573 80.213h191.147zM484.693 584.533c-8.533-44.373-47.787-80.213-95.573-80.213s-87.040 34.133-95.573 80.213h191.147zM51.2 584.533h189.44c-8.533-44.373-47.787-80.213-95.573-80.213-46.080 1.707-85.333 35.84-93.867 80.213v0zM421.547 50.347h-145.067v271.36c0 20.48 15.36 35.84 35.84 35.84h73.387c20.48 0 35.84-15.36 35.84-35.84v-271.36zM885.76 50.347h-413.013v271.36c0 47.787-39.253 85.333-85.333 85.333h-73.387c-47.787 0-85.333-39.253-85.333-85.333v-271.36h-90.453v404.48c3.413 0 5.12 0 8.533 0 51.2 0 95.573 25.6 121.173 64.853 25.6-39.253 71.68-64.853 121.173-64.853 51.2 0 95.573 25.6 121.173 64.853 25.6-39.253 71.68-64.853 121.173-64.853 51.2 0 95.573 25.6 121.173 64.853 25.6-39.253 71.68-64.853 121.173-64.853 3.413 0 5.12 0 8.533 0v-404.48zM877.227 506.027c-47.787 0-87.040 34.133-95.573 80.213h191.147c-8.533-46.080-47.787-80.213-95.573-80.213v0z" />
<glyph unicode="&#xe922;" glyph-name="032" d="M357.394 960l-219.935-127.059 96.222-171.734 175.261-151.296-202.753 58.33h-206.189v-254.209h202.753l189.007 54.984-154.642-127.15-99.658-168.388 219.935-127.15 99.658 168.388 44.674 199.316 68.639-219.935 92.785-158.078 220.116 127.059-86.003 144.423-171.915 161.515 209.626-54.984h189.007v250.863h-195.789l-223.281-54.984 164.951 147.678 103.004 178.788-219.935 120.277-96.312-168.388-51.366-189.007-51.547 202.662z" />
<glyph unicode="&#xe923;" glyph-name="033" d="M512-64c-282.77 0-512 229.23-512 512s229.23 512 512 512c282.77 0 512-229.23 512-512s-229.23-512-512-512zM403.153 789.333l28.059-431.807h168.355l28.059 431.807h-224.474zM469.144 288.711c-18.851 0-34.133-15.282-34.133-34.133v-113.778c0-18.851 15.282-34.133 34.133-34.133h91.022c18.851 0 34.133 15.282 34.133 34.133v113.778c0 18.851-15.282 34.133-34.133 34.133h-91.022z" />
<glyph unicode="&#xe924;" glyph-name="116" d="M1006.933 690.347c-11.947 54.613-56.32 93.867-110.933 100.693-128 13.653-256 13.653-384 13.653s-256 0-384-13.653c-52.907-6.827-97.28-46.080-110.933-100.693-17.067-78.507-17.067-162.133-17.067-242.347s0-163.84 17.067-242.347c11.947-54.613 56.32-93.867 110.933-100.693 126.293-13.653 256-13.653 384-13.653s256 0 384 13.653c52.907 6.827 98.987 46.080 110.933 100.693 17.067 76.8 17.067 162.133 17.067 242.347s0 163.84-17.067 242.347zM380.587 289.28c0 112.64 0 225.28 0 337.92 109.227-56.32 216.747-112.64 325.973-170.667-109.227-54.613-218.453-110.933-325.973-167.253z" />
<glyph unicode="&#xe925;" glyph-name="118" d="M997.053 865.617h-970.105c-14.88 0-26.947-12.064-26.947-26.947v-781.336c0-14.88 12.067-26.947 26.947-26.947h970.105c14.88 0 26.947 12.067 26.947 26.947v781.336c0 14.883-12.067 26.947-26.947 26.947zM922.368 132.015h-820.736v631.97h820.736v-631.97zM203.601 196.573h616.801c13.8 0 24.983 11.186 24.983 24.986v143.239c0 6.521-2.541 12.781-7.106 17.451l-68.646 70.37c-9.364 9.591-24.611 10.092-34.573 1.145l-129.423-116.159-223.469 202.803c-9.027 8.187-22.63 8.674-32.216 1.153-31.472-24.697-102.020-80.055-161.773-126.906-6.039-4.737-9.569-11.986-9.569-19.663v-173.428c0.003-13.8 11.191-24.991 24.991-24.991zM613.327 426.922c30.944 0 56.121 25.177 56.121 56.118 0 30.944-25.177 56.118-56.121 56.118-30.936 0-56.113-25.174-56.113-56.118-0.005-30.941 25.169-56.118 56.113-56.118z" />
<glyph unicode="&#xe926;" glyph-name="2" horiz-adv-x="1094" d="M928.070 715.155c-29.002 41.83-66.37 80.314-109.874 114.336-93.699 72.505-205.804 109.316-316.235 102.623-118.797-7.251-222.536-63.024-299.503-162.301-51.312-65.813-86.449-138.318-104.854-215.285 27.887 34.022 64.139 75.852 80.314 84.776 5.020 2.789 10.597 2.231 15.059-1.115 1.115-1.115 2.789-2.789 3.904-4.462 3.904-7.251 1.115-15.059-5.577-18.963-15.059-8.366-70.832-75.852-105.969-120.471-3.904-5.020-10.039-6.693-15.617-5.020-5.020 1.673-8.924 6.693-8.924 11.712 0 1.673-0.558 3.346 0 4.462 0 0.558 0 1.115 0 2.231 1.115 53.542-25.098 129.394-25.098 129.952-2.231 7.251 1.673 15.059 8.924 17.847 7.251 2.231 15.059-1.673 17.847-8.924 0.558-1.673 9.481-26.214 16.174-58.004 20.636 70.275 54.658 136.645 102.065 197.438 81.987 105.412 191.861 165.089 319.024 172.898 117.124 7.251 236.479-31.233 335.198-108.2 44.619-34.58 85.333-76.41 117.682-123.259 11.712-20.636-20.078-18.405-24.54-12.27zM169.551 183.634c28.444-41.272 64.697-79.756 107.085-113.778 92.584-73.621 204.131-111.547 314.562-105.969 118.797 5.577 223.094 60.235 301.176 158.397 52.427 65.255 88.122 137.203 107.085 214.17-28.444-34.022-64.697-75.294-80.871-83.66-5.020-2.789-11.155-2.231-15.059 1.673-1.115 1.115-2.789 2.789-3.904 4.462-3.346 7.251-1.115 15.059 5.577 18.963 15.059 7.808 71.948 74.736 107.085 119.355 3.904 5.020 10.597 6.693 15.617 4.462 5.020-1.673 8.924-6.693 8.924-12.27 0-1.673 0.558-3.346 0-4.462 0-0.558 0-1.115 0-2.231-1.673-53.542 23.983-129.394 23.983-130.51 2.231-7.251-1.673-15.059-8.924-17.847-7.251-2.231-15.059 1.673-17.847 8.924-0.558 1.673-8.924 26.214-15.617 58.004-21.752-69.717-56.331-135.529-104.296-196.322-83.102-104.296-194.092-162.858-321.255-168.993-117.124-5.577-235.922 34.022-334.083 112.105-44.619 35.695-84.776 78.083-117.124 126.048 2.231 13.943 16.174 15.617 27.887 9.481zM184.052 406.17l-51.312-13.943 13.943-153.935-20.636-5.577-14.501 153.935-51.312-13.943-1.673 18.405 123.259 33.464 2.231-18.405zM275.521 344.261l-37.926-10.597 6.693-69.717-21.194-6.135-16.174 173.455 49.638 13.386c17.29 4.462 31.791 3.904 42.946-2.231 11.712-6.693 18.405-16.732 20.636-32.349 2.231-10.597 0.558-20.636-3.904-30.118s-11.712-17.847-21.752-25.098l44.061-62.466 0.558-1.673-22.309-6.135-41.272 59.678zM235.922 352.627l31.233 8.366c11.155 2.789 19.521 8.366 25.656 16.174s7.808 16.732 6.693 26.771c-1.673 10.039-5.577 16.174-11.712 20.636-6.693 3.904-14.501 5.020-25.098 2.231l-32.906-8.924 6.135-65.255zM446.745 364.898l-66.928-17.847-11.155-49.081-22.867-6.135 45.734 188.514 18.405 5.020 76.967-155.608-20.636-5.577-19.521 40.715zM384.837 367.686l54.1 14.501-34.58 73.063-19.521-87.564zM509.769 336.453l-16.174 171.782 42.946 11.712c13.386 3.346 25.656 3.346 37.368-0.558s20.636-11.712 28.444-21.752c7.251-10.597 12.27-23.425 14.501-39.041l1.115-8.366c2.789-25.098-1.115-46.292-12.27-64.697-11.712-18.405-29.002-30.675-51.869-36.81l-44.061-12.27zM517.020 495.407l12.27-134.972 20.636 5.577c16.174 4.462 28.444 12.828 36.81 25.656s11.712 28.444 10.597 46.85c-1.115 14.501-3.346 26.214-6.693 36.253-4.462 11.712-10.597 19.521-18.963 24.54s-18.405 6.135-29.56 2.789l-25.098-6.693zM741.786 480.349l-69.159-18.405 5.577-61.351 80.871 21.752 1.673-18.405-101.508-27.329-16.174 172.34 100.392 26.771 1.673-18.405-79.756-21.194 5.020-55.773 69.159 18.405 2.231-18.405zM820.427 485.368l-53.542-14.501-1.673 17.847 53.542 14.501 1.673-17.847zM873.412 434.057l-20.636-5.577-16.174 172.34 20.636 5.577 16.174-172.34zM1035.712 477.56l-20.636-5.577-93.142 112.105 12.27-133.856-21.194-6.135-16.174 172.34 20.636 5.577 93.699-112.662-12.27 134.414 20.636 5.577 16.174-171.782z" />
<glyph unicode="&#xe927;" glyph-name="115" d="M1007.814 254.761h-990.968c-9.122 0-16.516 7.395-16.516 16.516v0 589.626c0 9.122 7.395 16.516 16.516 16.516v0h990.968c9.122 0 16.516-7.395 16.516-16.516v0-589.626c0-9.122-7.395-16.516-16.516-16.516v0zM34.023 287.794h957.935v556.594h-957.935v-556.594zM276.48 27.499c-45.243 0-81.92 36.677-81.92 81.92s36.677 81.92 81.92 81.92c45.243 0 81.92-36.677 81.92-81.92v0c-0.187-45.168-36.752-81.733-81.902-81.92h-0.018zM276.48 159.628c-27 0-48.888-21.888-48.888-48.888s21.888-48.888 48.888-48.888c27 0 48.888 21.888 48.888 48.888v0c-0.737 26.425-22.335 47.566-48.87 47.566-0.006 0-0.013 0-0.019 0h0.001zM413.234 421.905c-9.122 0-16.516 7.395-16.516 16.516v0 255.339c0.432 8.776 7.653 15.728 16.497 15.728 3.46 0 6.671-1.064 9.324-2.882l-0.056 0.037 198.194-127.505c4.574-2.987 7.555-8.082 7.555-13.874s-2.981-10.886-7.491-13.835l-0.063-0.039-198.194-127.835c-2.158-1.106-4.707-1.755-7.408-1.755-0.649 0-1.289 0.037-1.918 0.11l0.077-0.007zM429.75 663.37v-194.89l151.618 97.445zM16.846 92.903c-9.122 0-16.516 7.395-16.516 16.516s7.395 16.516 16.516 16.516v0h193.899c9.122 0 16.516-7.395 16.516-16.516s-7.395-16.516-16.516-16.516v0h-193.899zM1007.814 92.903h-665.93c-9.122 0-16.516 7.395-16.516 16.516s7.395 16.516 16.516 16.516v0h665.93c9.122 0 16.516-7.395 16.516-16.516s-7.395-16.516-16.516-16.516v0z" />
<glyph unicode="&#xe928;" glyph-name="1142" d="M511.104 167.712c-278.784 0-497.152 106.080-497.152 241.568 0 75.392 68.896 144.8 189.056 190.4 8.288 3.104 17.504-1.056 20.672-9.28 3.136-8.288-1.024-17.504-9.28-20.672-107.072-40.608-168.448-99.104-168.448-160.48 0-113.6 212.992-209.568 465.152-209.568 8.832 0 16-7.168 16-16s-7.136-15.968-16-15.968zM630.656 174.752c-7.968 0-14.88 5.984-15.84 14.080-1.056 8.768 5.184 16.736 13.984 17.792 201.344 24.128 347.456 109.344 347.456 202.656 0 61.28-61.184 119.68-167.872 160.256-8.256 3.168-12.416 12.416-9.28 20.672 3.168 8.256 12.448 12.256 20.672 9.28 119.776-45.568 188.512-114.88 188.512-190.176 0-111.52-154.464-207.904-375.648-234.4-0.704-0.128-1.344-0.16-1.984-0.16zM429.44 81.792c-4.096 0-8.192 1.568-11.328 4.672-6.24 6.24-6.24 16.384 0 22.624l73.76 73.76-73.76 73.728c-6.24 6.24-6.24 16.384 0 22.624s16.384 6.24 22.624 0l96.384-96.352-96.384-96.384c-3.104-3.104-7.2-4.672-11.296-4.672zM322.496 647.168c6.016-0.224 12 0.192 17.984 1.28 6.016 1.056 11.36 2.944 16.096 5.632s8.512 6.368 11.392 11.104 4.352 10.496 4.352 17.376c0 9.632-3.296 17.344-9.824 23.136-6.528 5.824-14.944 8.672-25.248 8.672-6.4 0-12-1.28-16.704-3.84-4.704-2.624-8.608-6.080-11.712-10.496-3.136-4.384-5.44-9.312-6.944-14.784s-2.112-11.104-1.92-16.864h-36.64c0.416 10.944 2.464 21.056 6.080 30.368 3.648 9.344 8.64 17.408 14.976 24.288 6.304 6.848 13.984 12.224 22.976 16.096 9.024 3.84 19.2 5.792 30.56 5.792 8.768 0 17.408-1.28 25.888-3.872 8.48-2.56 16.096-6.304 22.848-11.264s12.16-11.2 16.224-18.816c4.096-7.584 6.112-16.352 6.112-26.176 0-11.36-2.56-21.28-7.712-29.76s-13.184-14.624-24.128-18.496v-0.64c12.864-2.592 22.88-8.96 30.048-19.168s10.784-22.56 10.784-37.12c0-10.72-2.144-20.32-6.432-28.768s-10.048-15.648-17.344-21.536c-7.328-5.92-15.776-10.464-25.408-13.696-9.664-3.232-19.84-4.8-30.56-4.8-13.056 0-24.512 1.888-34.24 5.632s-17.888 9.056-24.448 15.904c-6.528 6.88-11.488 15.136-14.944 24.768-3.424 9.632-5.248 20.352-5.472 32.16h36.672c-0.448-13.728 2.944-25.152 10.112-34.24 7.2-9.12 17.984-13.696 32.32-13.696 12.224 0 22.464 3.488 30.72 10.464s12.384 16.864 12.384 29.76c0 8.768-1.728 15.744-5.152 20.864-3.392 5.152-7.936 9.056-13.504 11.744s-11.84 4.352-18.816 4.992c-6.976 0.64-14.080 0.832-21.376 0.64v27.36zM554.944 683.456c-0.832 9.216-4.128 16.672-9.792 22.368-5.696 5.664-13.344 8.512-23.008 8.512-6.656 0-12.384-1.216-17.216-3.68-4.8-2.464-8.864-5.76-12.224-9.824-3.328-4.064-6.016-8.736-8.032-14.016s-3.68-10.752-4.96-16.544c-1.312-5.824-2.208-11.52-2.752-17.216s-0.992-11.008-1.44-15.904l0.64-0.672c4.928 8.992 11.744 15.712 20.448 20.096 8.672 4.416 18.048 6.592 28.128 6.592 11.168 0 21.12-1.952 29.92-5.792 8.768-3.872 16.256-9.152 22.336-15.904 6.112-6.752 10.784-14.752 14.016-23.968s4.8-19.2 4.8-29.92c0-10.944-1.76-21.056-5.312-30.368-3.52-9.344-8.64-17.472-15.264-24.448-6.656-6.976-14.592-12.384-23.808-16.256-9.216-3.84-19.392-5.792-30.528-5.792-16.544 0-30.048 3.072-40.672 9.152-10.624 6.112-18.976 14.464-25.088 25.088-6.080 10.592-10.336 23.040-12.672 37.28-2.368 14.24-3.52 29.664-3.52 46.144 0 13.504 1.44 27.136 4.352 40.832 2.88 13.728 7.648 26.176 14.304 37.44 6.624 11.296 15.36 20.448 26.176 27.488 10.848 7.104 24.192 10.624 40.032 10.624 8.992 0 17.472-1.504 25.408-4.512s14.976-7.2 21.056-12.576c6.112-5.344 11.104-11.776 14.976-19.296 3.84-7.488 6.016-15.872 6.4-25.088h-36.704zM519.616 541.344c6.624 0 12.416 1.344 17.344 4.032s9.056 6.144 12.384 10.432c3.328 4.32 5.824 9.28 7.392 14.976s2.4 11.52 2.4 17.536-0.8 11.776-2.4 17.344c-1.6 5.6-4.064 10.464-7.392 14.656-3.328 4.16-7.424 7.52-12.384 10.112-4.928 2.56-10.72 3.84-17.344 3.84-6.656 0-12.512-1.216-17.536-3.68-5.056-2.464-9.28-5.792-12.704-9.984s-6.016-9.056-7.712-14.624c-1.728-5.6-2.56-11.456-2.56-17.696s0.832-12.128 2.56-17.696c1.728-5.6 4.288-10.56 7.712-14.976 3.424-4.384 7.648-7.872 12.704-10.432 5.024-2.528 10.88-3.84 17.536-3.84zM696.096 744.896c16.096 0 29.216-3.712 39.392-11.104s18.112-16.832 23.776-28.32c5.696-11.456 9.568-24.064 11.584-37.792s3.072-27.008 3.072-39.872c0-12.832-1.024-26.144-3.072-39.872s-5.92-26.304-11.584-37.792c-5.664-11.456-13.6-20.864-23.776-28.288s-23.328-11.104-39.392-11.104c-16.064 0-29.184 3.68-39.36 11.104s-18.112 16.8-23.776 28.288c-5.696 11.456-9.568 24.064-11.584 37.792s-3.072 27.040-3.072 39.872c0 12.864 1.024 26.144 3.072 39.872s5.92 26.304 11.584 37.792c5.664 11.456 13.6 20.896 23.776 28.32 10.176 7.392 23.296 11.104 39.36 11.104zM696.096 541.344c7.936 0 14.592 2.304 19.936 6.944 5.376 4.608 9.6 10.816 12.704 18.624 3.104 7.84 5.312 16.992 6.592 27.488s1.952 21.664 1.952 33.44c0 11.808-0.672 22.88-1.952 33.28s-3.488 19.552-6.592 27.488c-3.136 7.936-7.328 14.176-12.704 18.816-5.344 4.608-12 6.912-19.936 6.912-8.128 0-14.848-2.304-20.096-6.912-5.248-4.64-9.44-10.88-12.544-18.816s-5.312-17.088-6.592-27.488-1.952-21.472-1.952-33.28c0-11.776 0.672-22.944 1.952-33.44s3.488-19.648 6.592-27.488c3.104-7.808 7.296-14.016 12.544-18.624 5.28-4.64 12-6.944 20.096-6.944zM793.024 777.248c2.848 6.656 6.784 12.48 11.776 17.472 4.992 4.96 10.88 8.896 17.696 11.776s14.016 4.32 21.568 4.32c7.84 0 15.104-1.44 21.76-4.32s12.576-6.816 17.696-11.776c5.152-4.992 9.152-10.816 12.032-17.472s4.32-13.92 4.32-21.792c0-7.552-1.44-14.752-4.32-21.536-2.88-6.816-6.88-12.704-12.032-17.696-5.12-4.992-11.040-8.928-17.696-11.808s-13.92-4.32-21.76-4.32c-7.552 0-14.752 1.44-21.568 4.32s-12.672 6.816-17.696 11.808c-4.992 4.96-8.928 10.88-11.776 17.696-2.912 6.784-4.32 13.984-4.32 21.536 0 7.872 1.408 15.136 4.32 21.792zM823.168 733.024c5.12-6.208 12.096-9.312 20.864-9.312 8.736 0 15.776 3.104 21.056 9.312 5.312 6.176 7.968 13.664 7.968 22.432s-2.656 16.256-7.968 22.464c-5.28 6.176-12.32 9.28-21.056 9.28-8.768 0-15.744-3.104-20.864-9.28-5.152-6.208-7.712-13.696-7.712-22.464s2.56-16.224 7.712-22.432z" />
<glyph unicode="&#xe929;" glyph-name="1162" d="M510.635-14.507l-420.864 420.181c-55.656 54.076-90.41 129.405-91.135 212.856l-0.001 0.136c0 0.105 0 0.229 0 0.354 0 168.154 136.316 304.469 304.469 304.469 0.96 0 1.919-0.004 2.877-0.013l-0.146 0.001c0.134 0 0.292 0 0.451 0 78.605 0 150.315-29.523 204.647-78.085l-0.297 0.261c54.102 48.563 126.001 78.259 204.836 78.259 168.014 0 304.526-134.88 307.161-302.267l0.003-0.248c0.001-0.272 0.001-0.593 0.001-0.915 0-83.756-34.202-159.523-89.402-214.097l-0.029-0.028zM305.835 855.211c-0.812 0.010-1.771 0.016-2.731 0.016-130.451 0-236.203-105.752-236.203-236.203 0-0.126 0-0.251 0-0.377v0.019c-0.004-0.497-0.006-1.085-0.006-1.674 0-64.283 26.094-122.472 68.268-164.551l0.004-0.004 375.467-370.688 375.467 373.077c42.184 42.188 68.276 100.468 68.276 164.842 0 0.728-0.003 1.455-0.010 2.181l0.001-0.111c-3.656 129.108-109.19 232.377-238.843 232.377-70.569 0-133.993-30.593-177.731-79.241l-0.193-0.219-26.965-30.037-25.941 29.696c-43.921 49.63-107.74 80.79-178.84 80.896h-0.019z" />
<glyph unicode="&#xe92a;" glyph-name="1172" horiz-adv-x="1038" d="M1003.582-63.654h-1003.582v989.048c0 19.113 15.494 34.606 34.606 34.606s34.606-15.494 34.606-34.606v0-919.835h934.37c19.113 0 34.606-15.494 34.606-34.606s-15.494-34.606-34.606-34.606v0zM980.396-63.654c-19.113 0-34.606 15.494-34.606 34.606v0 115.931c0 19.113 15.494 34.606 34.606 34.606s34.606-15.494 34.606-34.606v0-116.277c-0.196-18.963-15.614-34.26-34.605-34.26-0.001 0-0.001 0-0.002 0v0zM749.918-63.654c-19.113 0-34.606 15.494-34.606 34.606v0 115.931c0 19.113 15.494 34.606 34.606 34.606s34.606-15.494 34.606-34.606v0-116.277c-0.196-18.963-15.614-34.26-34.605-34.26-0.001 0-0.001 0-0.002 0v0zM519.094-63.654c-19.113 0-34.606 15.494-34.606 34.606v0 115.931c0 19.113 15.494 34.606 34.606 34.606s34.606-15.494 34.606-34.606v0-116.277c-0.196-18.963-15.614-34.26-34.605-34.26-0.001 0-0.001 0-0.002 0v0zM288.27-63.654c-19.113 0-34.606 15.494-34.606 34.606v0 115.931c0 19.113 15.494 34.606 34.606 34.606s34.606-15.494 34.606-34.606v0-116.277c-0.196-18.963-15.614-34.26-34.605-34.26-0.001 0-0.001 0-0.002 0v0zM979.704 486.932c-9.626 0.041-18.317 4.006-24.565 10.376l-0.005 0.006-212.483 213.867-207.638-101.050c-4.423-2.201-9.633-3.49-15.144-3.49-8.809 0-16.85 3.291-22.958 8.712l0.036-0.031-204.869 183.067-215.251-258.855c-6.401-7.662-15.959-12.501-26.647-12.501-19.136 0-34.65 15.513-34.65 34.65 0 8.448 3.023 16.19 8.047 22.203l-0.045-0.055 238.091 286.194c6.394 7.742 15.995 12.639 26.74 12.639 8.889 0 16.996-3.352 23.125-8.86l-0.032 0.028 213.521-191.027 209.714 101.742c4.407 2.183 9.596 3.46 15.084 3.46 9.678 0 18.428-3.973 24.708-10.376l0.005-0.006 229.094-231.862c6.123-6.238 9.902-14.795 9.902-24.234 0-18.822-15.027-34.135-33.738-34.596l-0.043-0.001zM815.67 487.278c-19.113 0-34.606 15.494-34.606 34.606s15.494 34.606 34.606 34.606v0h130.12v129.428c0 19.113 15.494 34.606 34.606 34.606v0 0c19.113 0 34.606-15.494 34.606-34.606v0-163.688c0-19.113-15.494-34.606-34.606-34.606v0h-164.726z" />
<glyph unicode="&#xe92b;" glyph-name="1182" d="M1023.461-20.884h-1024v26.408c-0.087 3.263-0.137 7.105-0.137 10.959 0 45.507 6.946 89.391 19.835 130.651l-0.835-3.1c14.982 47.373 43.648 86.847 81.318 114.906l0.602 0.429c56.435 34.878 121.582 63.927 190.619 83.786l5.557 1.368 29.103 9.701c18.253 5.696 33.955 12.461 48.779 20.623l-1.352-0.682c5.729 6.561 9.611 14.871 10.756 24.031l0.023 0.222v3.773c-58.577 86.336-94.167 192.44-95.927 306.752l-0.005 0.448c0 146.055 76.531 223.663 220.968 223.663s218.813-77.069 218.813-223.663c-1.215-111.361-34.196-214.777-90.285-301.909l1.359 2.254c0-4.312 0-8.623 0-12.935 1.244-9.19 5.114-17.306 10.82-23.762l-0.041 0.048c13.459-7.594 29.144-14.529 45.524-19.936l1.904-0.544 20.48-7.006c78.421-21.28 147.036-50.752 210.256-88.346l-3.839 2.114c38.188-27.682 66.615-66.756 80.443-112.191l0.4-1.527c12.053-38.182 18.998-82.092 18.998-127.624 0-3.828-0.049-7.644-0.147-11.448l0.011 0.563v-28.025zM53.356 33.011h916.211c-1.401 33.946-7.212 66.016-16.88 96.365l0.712-2.588c-10.609 35.075-31.391 64.404-58.88 85.396l-0.405 0.297c-54.549 33.153-117.512 61.071-184.091 80.514l-5.618 1.406-21.019 7.006c-22.184 7.286-41.252 15.861-59.214 26.147l1.547-0.816c-19.399 13.589-32.794 34.61-36.061 58.843l-0.049 0.441c-1.552 8.371-2.707 18.377-3.212 28.554l-0.022 0.549v10.24l5.928 7.545c50.889 78.157 81.215 173.76 81.381 276.436v0.044c0 117.491-53.895 169.768-167.074 169.768s-167.074-53.895-167.074-169.768c1.775-106.134 35.812-203.98 92.692-284.546l-1.071 1.599 6.467-8.623v-10.779c0-6.467 0-12.935 0-19.402-3.080-25.070-16.523-46.5-35.841-60.181l-0.269-0.181c-15.339-8.853-33.157-16.879-51.799-23.107l-2.096-0.607-31.798-10.779c-68.89-19.732-129.007-46.377-184.404-80.018l3.318 1.871c-28.386-22-49.409-52.277-59.526-87.188l-0.298-1.199c-10.234-27.294-17.496-58.949-20.383-91.86l-0.097-1.378z" />
<glyph unicode="&#xe92c;" glyph-name="036" d="M113.315 716.999l-113.315-113.315 453.258-453.258c31.291-31.291 82.024-31.291 113.315 0l453.258 453.258-113.315 113.315-396.601-396.601-396.601 396.601z" />
<glyph unicode="&#xe92d;" glyph-name="037" d="M906.516 149.037l113.315 113.315-453.258 453.258c-31.291 31.291-82.024 31.291-113.315 0l-453.258-453.258 113.315-113.315 396.601 396.601 396.601-396.601z" />
<glyph unicode="&#xe92e;" glyph-name="038" d="M225.934 53.484l113.315-113.315 453.258 453.258c31.291 31.291 31.291 82.024 0 113.315l-453.258 453.258-113.315-113.315 396.601-396.601-396.601-396.601z" />
<glyph unicode="&#xe92f;" glyph-name="039" d="M793.897 53.484l-113.315-113.315-453.258 453.258c-31.291 31.291-31.291 82.024 0 113.315l453.258 453.258 113.315-113.315-396.601-396.601 396.601-396.601z" />
<glyph unicode="&#xe930;" glyph-name="040" d="M141.729 561.421l-141.729-141.729 372.444-372.444 651.556 651.556-141.729 141.729-509.827-509.827z" />
<glyph unicode="&#xe931;" glyph-name="041" d="M0-64l276.2 28.579-247.608 247.617-28.593-276.196zM990.002 678.39c45.326 45.326 45.345 118.816 0 164.156l-83.456 83.456c-45.326 45.335-118.826 45.326-164.156 0l-80.738-80.742 247.617-247.603 80.733 80.733zM614.483 798.081l247.608-247.608-538.284-538.284-247.612 247.608 538.288 538.284z" />
<glyph unicode="&#xe932;" glyph-name="042" d="M0 550.4h409.6v409.6h-409.6zM614.4 550.4h409.6v409.6h-409.6zM0-64h409.6v409.6h-409.6zM614.4-64h409.6v409.6h-409.6z" />
<glyph unicode="&#xe933;" glyph-name="043" d="M85.333 960h853.333v-119.467h-853.333v119.467zM85.333 507.733h853.333v-119.467h-853.333v119.467zM85.333 55.467h853.333v-119.467h-853.333v119.467z" />
<glyph unicode="&#xe934;" glyph-name="044" d="M876.869 226.133l-364.884-221.867v223.79l-364.884-1.923c-80.922 0-147.131 66.56-147.131 147.911v369.778c0 81.351 66.209 147.911 147.131 147.911h729.768c80.922 0 147.131-66.56 147.131-147.911v-369.778c0-81.351-66.209-147.911-147.131-147.911z" />
<glyph unicode="&#xe935;" glyph-name="045" d="M511.431 153.374l-316.082-166.174 60.366 351.962-255.716 249.261 353.39 51.351 158.041 320.226 158.041-320.226 353.39-51.351-255.716-249.261 60.366-351.962z" />
<glyph unicode="&#xe936;" glyph-name="046" d="M949.422 598.868l45.364-6.591 8.075-24.85-32.826-31.995-74.578 10.836 53.965 52.6zM53.965 535.432l-32.826 31.995 8.075 24.85 45.364 6.591 53.965-52.6-74.578-10.836zM512 220.099l236.989-124.585-45.261 263.876 191.728 186.878-264.962 38.499-118.495 240.083-118.495-240.083-264.962-38.499 191.728-186.878-45.261-263.876 236.989 124.585zM512 152.523l-316.433-166.349 60.433 352.334-256 249.524 353.783 51.405 158.217 320.564 158.217-320.564 353.783-51.405-256-249.524 60.433-352.334-316.433 166.349z" />
<glyph unicode="&#xe937;" glyph-name="047" d="M0 443.818c0-246.353 201.562-447.915 447.915-447.915 119.977 0 231.956 46.391 316.74 131.175 12.798 12.798 12.798 31.994 0 44.791s-31.994 12.798-44.791 0c-73.586-71.986-169.568-111.979-271.948-111.979-211.16 0-383.927 172.767-383.927 383.927s172.767 383.927 383.927 383.927c209.56 0 379.128-167.968 383.927-375.929l-123.177 111.979c-12.798 12.798-33.594 11.198-44.791-1.6-12.798-12.798-11.198-33.594 1.6-44.791l204.761-185.565 148.772 222.358c9.598 14.397 4.799 33.594-9.598 44.791-14.397 9.598-35.193 4.799-44.791-9.598l-70.387-107.18c-19.196 228.757-212.76 409.522-446.315 409.522-246.353 0-447.915-201.562-447.915-447.915z" />
<glyph unicode="&#xe938;" glyph-name="048" d="M0 923.997l986.85-987.997 37.15 36.003-986.85 987.997zM986.85 960l-986.85-987.997 37.15-36.003 986.85 987.997z" />
<glyph unicode="&#xe939;" glyph-name="049" d="M770.409-29.867l-36.216-36.191-512.326 512.684 513.016 513.374 36.216-36.191-476.85-477.183z" />
<glyph unicode="&#xe93a;" glyph-name="050" d="M239.624-29.867l36.216-36.191 512.326 512.684-513.016 513.374-36.216-36.191 476.85-477.183z" />
<glyph unicode="&#xe93b;" glyph-name="051" d="M0 896.564l960.564-960.564 63.436 63.436-960.564 960.564zM960.84 960l-960.84-960.84 63.16-63.16 960.84 960.84z" />
<glyph unicode="&#xe93c;" glyph-name="052" d="M992 480c8.667 0 16.167-3.167 22.5-9.5s9.5-13.833 9.5-22.5c0-8.667-3.167-16.167-9.5-22.5s-13.833-9.5-22.5-9.5h-480l150-136c6.667-5.333 10-12.5 10-21.5s-2.667-16.833-8-23.5c-3.333-4-7.167-6.833-11.5-8.5s-8.5-2.5-12.5-2.5c-4 0-8 0.667-12 2s-7.333 3.333-10 6l-237 216 238 214c6.667 6.667 14.5 9.667 23.5 9s16.167-4 21.5-10c6.667-6.667 9.667-14.5 9-23.5s-4.333-16.167-11-21.5l-150-136h480zM544 672c-8.667 0-16.167 3.167-22.5 9.5s-9.5 13.833-9.5 22.5v64h-448v-544h480c8.667 0 16.167-3.167 22.5-9.5s9.5-13.833 9.5-22.5v-160c0-26.667-9.333-49.333-28-68s-41.333-28-68-28h-384c-26.667 0-49.333 9.333-68 28s-28 41.333-28 68v832c0 26.667 9.333 49.333 28 68s41.333 28 68 28h384c26.667 0 49.333-9.333 68-28s28-41.333 28-68v-160c0-8.667-3.167-16.167-9.5-22.5s-13.833-9.5-22.5-9.5zM512 160h-448v-128c0-8.667 3.167-16.167 9.5-22.5s13.833-9.5 22.5-9.5h384c8.667 0 16.167 3.167 22.5 9.5s9.5 13.833 9.5 22.5v128zM64 832h448v32c0 8.667-3.167 16.167-9.5 22.5s-13.833 9.5-22.5 9.5h-384c-8.667 0-16.167-3.167-22.5-9.5s-9.5-13.833-9.5-22.5v-32zM288 32c-6.667 0-13 1.167-19 3.5s-11 5.833-15 10.5c-4.667 4-8.167 9-10.5 15s-3.5 12.333-3.5 19c0 6.667 1.167 13 3.5 19s5.833 11 10.5 15c9.333 8.667 20.667 13 34 13s24.667-4.333 34-13c4.667-5.333 8.167-10.667 10.5-16s3.5-11.333 3.5-18c0-6.667-1.167-13-3.5-19s-5.833-11-10.5-15c-4-4.667-9-8.167-15-10.5s-12.333-3.5-19-3.5z" />
<glyph unicode="&#xe93d;" glyph-name="053" d="M324.267 891.733c-18.851 0-34.133-15.282-34.133-34.133v-819.2c0-18.851 15.282-34.133 34.133-34.133h375.467c18.851 0 34.133 15.282 34.133 34.133v819.2c0 18.851-15.282 34.133-34.133 34.133h-375.467zM324.267 960h375.467c56.554 0 102.4-45.846 102.4-102.4v-819.2c0-56.554-45.846-102.4-102.4-102.4h-375.467c-56.554 0-102.4 45.846-102.4 102.4v819.2c0 56.554 45.846 102.4 102.4 102.4zM290.133 755.2h443.733v68.267h-443.733zM290.133 174.933h443.733v68.267h-443.733zM563.2 89.6c0-28.277-22.923-51.2-51.2-51.2s-51.2 22.923-51.2 51.2c0 28.277 22.923 51.2 51.2 51.2s51.2-22.923 51.2-51.2z" />
<glyph unicode="&#xe93e;" glyph-name="054" d="M509.384 836.317h169.331l-61.439-53.322c-2.997-3.047-4.496-7.617-4.496-12.188 0-3.047 1.499-7.617 2.997-10.664 5.994-6.094 14.985-7.617 20.979-1.523l91.409 80.744c5.994 6.094 5.994 16.758 0 22.852l-91.409 80.744c-5.994 6.094-14.985 4.57-20.979-1.523s-4.496-15.235 1.499-21.329l61.439-53.322h-169.331c-8.991 0-14.985-6.094-14.985-15.235s5.994-15.235 14.985-15.235zM238.156 866.786h-169.331l61.439 53.322c5.994 6.094 7.493 15.235 1.499 21.329s-14.985 7.617-20.979 1.523l-91.409-80.744c-2.997-3.047-4.496-7.617-4.496-12.188s1.499-9.141 4.496-12.188l91.409-80.744c5.994-6.094 14.985-4.57 20.979 1.523s4.496 15.235-1.499 21.329l-61.439 56.369h169.331c8.991 0 14.985 6.094 14.985 15.235 0 7.617-5.994 15.235-14.985 15.235zM927.466 217.786h-5.994c-1.499 0-52.448-10.664-133.367-45.704-67.433-30.47-106.394-54.845-116.883-63.986-112.388 30.47-179.82 76.174-208.292 143.207l-32.967 77.697c-10.49 22.852 0 50.275 23.976 59.416 4.496 1.523 10.49 3.047 14.985 3.047l22.478-53.322c2.997-7.617 11.988-10.664 19.481-7.617s10.49 12.188 7.493 19.805l-173.826 405.245c-10.49 22.852 0 50.275 23.976 59.416 22.478 10.664 49.451 0 58.442-24.376l83.916-195.005 25.475-59.416 10.49-22.852c2.997-7.617 11.988-10.664 19.481-7.617s10.49 12.188 7.493 19.805l-10.49 24.376-25.475 59.416c-10.49 22.852 0 50.275 23.976 59.416 22.478 10.664 49.451 0 58.442-24.376l41.958-97.502c2.997-7.617 11.988-10.664 19.481-7.617s10.49 12.188 7.493 19.805l-41.958 97.502c-1.499 3.047-2.997 7.617-5.994 10.664 4.496 4.57 8.991 7.617 13.487 9.141 22.478 10.664 49.451 0 58.442-24.376l47.952-111.214c2.997-7.617 11.988-10.664 19.481-7.617s10.49 12.188 7.493 19.805l-40.46 94.456c2.997 3.047 7.493 6.094 11.988 9.141 22.478 10.664 49.451 0 58.442-24.376l67.433-156.918c47.952-102.073 62.937-205.669 41.958-257.467zM1021.872 91.337l-43.457 102.073c-4.496 9.141-10.49 16.758-19.481 21.329 20.979 62.463 5.994 164.535-41.958 275.749l-67.433 156.918c-16.484 38.087-59.94 56.369-98.901 39.61-4.496-3.047-10.49-4.57-13.487-9.141-19.481 30.47-58.442 42.657-92.907 27.423-8.991-3.047-16.484-9.141-22.478-15.235-20.979 13.711-47.952 18.282-71.928 7.617-14.985-6.094-26.973-18.282-34.466-31.993l-59.94 140.16c-16.484 38.087-59.94 56.369-98.901 39.61-37.463-16.758-55.445-60.939-38.961-100.549l137.862-322.977c-4.496-1.523-8.991-3.047-14.985-4.57-37.463-16.758-55.445-60.939-38.961-100.549l32.967-77.697c31.469-71.603 101.898-123.402 214.286-155.395-5.994-12.188-7.493-24.376-1.499-35.040l43.457-102.073c2.997-7.617 11.988-10.664 19.481-7.617s10.49 12.188 7.493 19.805l-43.457 102.073c-2.997 9.141 5.994 18.282 10.49 21.329 0 0 38.961 28.946 115.385 62.463s125.874 44.181 125.874 44.181c5.994 1.523 19.481 1.523 23.976-6.094l43.457-102.073c2.997-7.617 11.988-10.664 19.481-7.617 7.493 1.523 11.988 10.664 8.991 18.282z" />
<glyph unicode="&#xe93f;" glyph-name="055" d="M555.882 417.414c-20.187 0-36.571 16.388-36.571 36.662v260.298c0 20.237 16.384 36.662 36.571 36.662s36.571-16.424 36.571-36.662v-260.298c0-20.274-16.384-36.662-36.571-36.662zM394.971 252.436c-9.216 0-18.432 3.483-25.563 10.449-14.446 14.151-14.702 37.395-0.585 51.84l160.914 164.978c14.117 14.481 37.303 14.738 51.712 0.587 14.446-14.151 14.702-37.395 0.585-51.84l-160.914-164.978c-7.168-7.332-16.64-11.035-26.149-11.035zM555.882 923.338c-30.318 0-54.857-24.6-54.857-54.993s24.539-54.993 54.857-54.993c197.632 0 358.4-161.165 358.4-359.285 0-198.083-160.768-359.285-358.4-359.285-180.187 0-329.326 134.145-354.304 307.959h83.675l-142.629 179.642-142.629-179.642h90.734c25.6-234.672 224.366-417.944 465.152-417.944 258.121 0 468.114 210.548 468.114 469.27 0 258.758-209.993 469.27-468.114 469.27zM753.371 674.039c14.153 0 25.6-11.475 25.6-25.663s-11.447-25.663-25.6-25.663c-14.153 0-25.6 11.475-25.6 25.663s11.447 25.663 25.6 25.663zM753.371 281.758c14.153 0 25.6-11.475 25.6-25.663s-11.447-25.663-25.6-25.663c-14.153 0-25.6 11.475-25.6 25.663s11.447 25.663 25.6 25.663zM833.829 479.731c14.153 0 25.6-11.475 25.6-25.663s-11.447-25.663-25.6-25.663c-14.153 0-25.6 11.475-25.6 25.663s11.447 25.663 25.6 25.663zM555.886 201.102c14.153 0 25.6-11.475 25.6-25.663s-11.447-25.663-25.6-25.663c-14.153 0-25.6 11.475-25.6 25.663s11.447 25.663 25.6 25.663z" />
<glyph unicode="&#xe940;" glyph-name="056" d="M692.372 713.762c-83.615 0-147.854-47.584-182.475-47.584-40.318 0-100.508 44.725-178.068 44.725-119.308 0-246.496-106.821-246.496-310.458 0-206.972 150.276-464.446 269.206-464.446 41.509 0 105.273 41.827 169.512 41.827 63.029 0 109.541-40.318 169.373-40.318 130.246 0 226.684 271.43 226.684 271.43s-137.948 53.42-137.948 208.401c0 137.392 110.752 194.009 110.752 194.009s-56.616 102.414-200.54 102.414zM706.765 960c0 0-93.54-0.437-160.817-89.113-59.832-78.85-44.606-146.306-44.606-146.306s4.923-0.854 13.439-0.854c25.986 0 85.282 7.98 139.060 72.577 66.82 80.319 52.924 163.695 52.924 163.695zM692.372 674.059c73.133 0 118.871-30.71 143.348-54.532-39.088-33.073-93.243-97.769-93.243-202.168 0-128.419 79.644-197.165 127.764-226.982-35.951-85.163-108.985-213.146-176.797-213.146-22.353 0-43.753 8-68.527 17.251-28.943 10.819-61.738 23.067-100.846 23.067-42.581 0-81.689-14.174-116.211-26.68-20.526-7.444-41.768-15.147-53.301-15.147-80.26 0-229.503 218.327-229.503 424.743 0 106.404 37.182 170.266 68.388 205.106 37.361 41.728 87.803 65.649 138.405 65.649 37.678 0 72.299-13.34 102.831-25.092 26.204-10.085 50.959-19.633 75.217-19.633 21.261 0 43.157 8.834 68.508 19.038 31.524 12.705 70.79 28.527 113.967 28.527zM665.791 911.741c-4.308-24.755-15.405-57.49-42.482-90.027-29.241-35.137-59.793-49.331-82.225-54.889 3.454 20.626 12.844 48.914 36.487 80.061 28.467 37.539 62.254 55.882 88.22 64.855z" />
<glyph unicode="&#xe941;" glyph-name="057" d="M419.991 860.591v0c0-5.312 4.31-9.642 9.642-9.642s9.642 4.31 9.642 9.642c0 5.332-4.31 9.642-9.642 9.642s-9.642-4.31-9.642-9.642zM463.751 860.591v0c0-5.533 4.47-10.023 10.023-10.023h73.409c5.533 0 10.023 4.49 10.023 10.023s-4.49 10.023-10.023 10.023h-73.409c-5.533 0-10.023-4.49-10.023-10.023zM505.147 15.984c-18.803 0-34.058 15.255-34.058 34.058s15.255 34.058 34.058 34.058c18.803 0 34.058-15.255 34.058-34.058 0-18.823-15.255-34.058-34.058-34.058v0zM505.147 104.148c-29.829 0-54.105-24.276-54.105-54.105s24.276-54.105 54.105-54.105c29.829 0 54.105 24.276 54.105 54.105s-24.276 54.105-54.105 54.105v0zM690.053-23.908h-369.812c-22.772 0-41.215 18.463-41.215 41.215v109.172h452.242v-109.172c0-22.772-18.443-41.215-41.215-41.215v0zM279.026 146.746v635.926h452.242v-635.926h-452.242zM320.241 919.908h369.812c22.772 0 41.215-18.463 41.215-41.215v-75.755h-452.242v75.755c0 22.772 18.443 41.215 41.215 41.215v0zM690.053 960h-369.812c-44.843 0-81.307-36.484-81.307-81.307v-861.385c0-44.843 36.484-81.307 81.307-81.307h369.812c44.843 0 81.307 36.484 81.307 81.307v861.385c0 44.823-36.464 81.307-81.307 81.307v0z" />
<glyph unicode="&#xe942;" glyph-name="058" d="M227.32 758.223c7.054-7.054 7.054-18.469 0-25.523s-18.469-7.054-25.523 0c-7.054 7.054-7.054 18.469 0 25.523 7.054 7.035 18.488 7.035 25.523 0v0zM227.32 163.339c7.054-7.054 7.054-18.469 0-25.523s-18.469-7.054-25.523 0c-7.054 7.054-7.054 18.469 0 25.523s18.488 7.054 25.523 0v0zM798.027 136.469c-7.054 7.054-7.054 18.469 0 25.523s18.469 7.054 25.523 0c7.054-7.054 7.054-18.469 0-25.523-7.054-7.035-18.469-7.035-25.523 0v0zM796.68 732.699c-7.054 7.054-7.054 18.469 0 25.523s18.469 7.054 25.523 0c7.054-7.054 7.054-18.469 0-25.523s-18.469-7.054-25.523 0v0zM708.146 277.548l73.365-77.992c8.761-9.31 20.726-15.89 35.554-19.493 5.366-1.327 12.932-4.76 18.507-13.577 6.068-9.671 5.897-23.020-0.436-32.482-5.347-7.983-13.406-12.894-22.679-13.805-9.159-0.853-18.090 2.313-24.575 8.798-4.001 4.001-6.77 9.064-8.021 14.62-3.11 13.861-9.766 25.902-19.266 34.834l-77.688 73.043c-47.159 47.159-109.128 70.71-171.021 70.71-61.76 0-123.463-23.456-170.3-70.312l-78.125-73.46c-9.481-8.95-16.137-20.953-19.266-34.834-1.233-5.537-4.001-10.6-8.002-14.601-6.485-6.485-15.378-9.633-24.594-8.798-9.273 0.91-17.332 5.821-22.66 13.805-6.352 9.481-6.523 22.831-0.436 32.482 5.556 8.817 13.141 12.25 18.526 13.577 14.828 3.66 26.794 10.221 35.535 19.512l72.929 77.575c94.205 94.223 94.205 247.533 0.398 341.34l-73.441 78.106c-8.95 9.5-20.991 16.175-34.834 19.266-5.556 1.252-10.6 4.020-14.62 8.021-6.485 6.485-9.69 15.435-8.798 24.575 0.91 9.273 5.802 17.332 13.805 22.679 9.481 6.352 22.831 6.523 32.482 0.417 8.798-5.537 12.231-13.122 13.558-18.507 3.66-14.847 10.24-26.813 19.512-35.535l77.594-72.948c45.642-45.642 106.321-70.786 170.869-70.786s125.227 25.144 170.452 70.369l78.106 73.441c9.5 8.95 16.175 20.991 19.266 34.834 1.252 5.556 4.020 10.619 8.021 14.62 6.485 6.485 15.473 9.671 24.575 8.78 9.292-0.91 17.35-5.821 22.698-13.805 6.333-9.481 6.504-22.831 0.398-32.463-5.556-8.817-13.122-12.25-18.488-13.558-14.847-3.641-26.794-10.221-35.554-19.512l-72.948-77.594c-94.205-94.223-94.205-247.533-0.398-341.34v0zM809.139 670.503c3.698 3.944 9.254 6.77 16.99 8.666 4.096 1.005 8.021 2.446 11.795 4.153 8.343-9.5 17.028-18.697 26.642-26.964l130.252-113.736c4.494-3.944 13.501-5.802 19.057-0.247l10.126 10.126-118.419 157.311c-7.376 9.803-17.711 16.971-29.486 20.479 4.001 17.919 0.929 37.299-9.424 52.81-11.605 17.35-30.017 28.443-50.515 30.472-12.231 1.195-24.139-1.233-34.985-6.201-8.4 9.576-17.142 18.83-26.813 27.173l-130.252 113.736c-4.494 3.944-13.501 5.802-19.076 0.247-5.556-5.556-10.126-10.126-10.126-10.126l118.419-157.311c7.376-9.803 17.711-16.971 29.467-20.46-1.005-4.475-3.243-10.733-8.192-15.397l-78.523-73.839c-38.474-38.474-89.654-59.674-144.056-59.674-54.422 0-105.582 21.2-144.473 60.072l-78.011 73.346c-3.944 3.698-6.77 9.254-8.685 16.99-1.005 4.096-2.427 8.021-4.153 11.795 9.5 8.343 18.697 17.047 26.964 26.642l113.736 130.252c3.944 4.494 5.802 13.501 0.247 19.057s-10.126 10.126-10.126 10.126l-157.311-118.419c-9.803-7.376-16.971-17.711-20.479-29.486-17.938 4.020-37.356 0.948-52.848-9.443-17.332-11.624-28.424-30.017-30.434-50.496-1.195-12.212 1.252-24.139 6.201-34.985-9.576-8.4-18.83-17.142-27.173-26.813l-113.736-130.252c-3.944-4.494-5.802-13.501-0.247-19.076 5.556-5.556 10.126-10.126 10.126-10.126l157.311 118.419c9.803 7.376 16.952 17.711 20.46 29.448 4.475-1.005 10.714-3.224 15.378-8.192l73.858-78.523c79.414-79.433 79.414-208.68-0.398-288.549l-73.327-77.973c-3.698-3.925-9.273-6.77-16.99-8.685-4.096-1.005-8.021-2.427-11.813-4.153-8.343 9.5-17.028 18.697-26.642 26.964l-130.252 113.736c-4.494 3.944-13.501 5.802-19.076 0.247-5.556-5.556-10.126-10.126-10.126-10.126l118.419-157.311c7.376-9.803 17.73-16.971 29.486-20.479-4.020-17.919-0.929-37.318 9.443-52.848 11.605-17.332 30.017-28.424 50.496-30.415 2.257-0.228 4.513-0.341 6.751-0.341 9.917 0 19.493 2.313 28.349 6.371 8.362-9.519 17.066-18.735 26.68-27.021l130.252-113.736c4.494-3.944 13.501-5.802 19.057-0.247l10.126 10.126-118.419 157.311c-7.376 9.803-17.711 16.971-29.467 20.479 1.024 4.475 3.262 10.714 8.192 15.359l78.542 73.877c79.414 79.414 208.661 79.414 288.53-0.398l78.106-73.441c4.987-4.684 7.225-11.017 8.249-15.492 1.024-4.57 2.655-8.912 4.57-13.122-9.538-8.381-18.754-17.085-27.040-26.718l-113.717-130.233c-3.944-4.494-5.802-13.501-0.247-19.057l10.126-10.126 157.311 118.419c9.86 7.414 17.066 17.825 20.536 29.657l0.019 0.057c7.054-1.593 14.317-2.465 21.75-1.726 20.479 1.991 38.873 13.084 50.515 30.415 13.027 19.474 14.696 45.111 5.006 66.235 9.481 8.324 18.64 16.99 26.888 26.566l113.736 130.252c3.944 4.494 5.802 13.501 0.247 19.076l-10.126 10.126-157.311-118.419c-9.747-7.338-16.895-17.616-20.403-29.297-6.864 1.877-12.079 4.494-15.53 8.154l-73.763 78.409c-79.433 79.433-79.433 208.699 0.398 288.549l73.384 77.973z" />
<glyph unicode="&#xe943;" glyph-name="059" d="M544.352 329.987l50.852 50.852c4.195 4.195 11.014 4.195 15.208 0s4.195-11.014 0-15.208l-50.852-50.852c-2.108-2.108-4.861-3.141-7.615-3.141s-5.507 1.054-7.615 3.141c-4.173 4.195-4.173 10.992 0.022 15.208v0zM438.326 326.352c-4.195 4.195-4.195 11.014 0 15.208l132.162 132.162c4.195 4.195 11.014 4.195 15.208 0s4.195-11.014 0-15.208l-132.162-132.162c-2.108-2.108-4.861-3.141-7.615-3.141s-5.507 1.033-7.593 3.141v0zM512 558.669c87.463 0 158.621-71.158 158.621-158.621s-71.158-158.621-158.621-158.621c-87.463 0-158.621 71.158-158.621 158.621s71.158 158.621 158.621 158.621v0zM512 219.917c99.315 0 180.131 80.816 180.131 180.131s-80.795 180.131-180.131 180.131c-99.337 0-180.131-80.816-180.131-180.131s80.795-180.131 180.131-180.131v0zM956.886 104.103h-889.773c-13.272 0-24.092 10.798-24.092 24.071v63.693h271.724c51.497-48.83 120.848-79.009 197.254-79.009s145.736 30.18 197.254 79.009h271.724v-63.693c0-13.272-10.82-24.071-24.092-24.071v0zM799.191 400.048c0 53.368-14.907 103.209-40.354 146.058h222.142v-311.218h-234.425c33.019 46.764 52.637 103.661 52.637 165.16v0zM277.446 234.888h-234.425v311.218h222.142c-25.469-42.85-40.354-92.69-40.354-146.058 0-61.499 19.596-118.395 52.637-165.16v0zM267.831 400.048c0 134.636 109.533 244.169 244.169 244.169s244.169-109.533 244.169-244.169c0-134.636-109.533-244.169-244.169-244.169s-244.169 109.533-244.169 244.169v0zM76.363 633.29h195.555v81.763h684.968c13.272 0 24.092-10.82 24.092-24.092v-101.832h-253.376c-52.68 59.994-129.689 98.111-215.603 98.111s-162.923-38.117-215.603-98.111h-253.376v44.162h33.342zM149.887 689.433v-13.1h-65.651l-0.022 13.294 65.672-0.194zM899.582 780.079l0.022-21.984h-196.221v21.984h196.2zM956.886 758.074h-14.219v21.167c0 24.372-19.833 44.226-44.226 44.226h-194.372c-24.372 0-44.226-19.833-44.226-44.226v-21.167h-430.947v-81.763h-35.988v11.982c0 24.458-19.897 44.355-44.355 44.355h-64.339c-24.458 0-44.355-19.897-44.355-44.355v-11.982h-39.86v-548.138c0-36.999 30.094-67.092 67.114-67.092h889.773c37.020 0 67.114 30.094 67.114 67.092v562.787c0 37.020-30.115 67.114-67.114 67.114v0z" />
<glyph unicode="&#xe944;" glyph-name="060" d="M678.775 641.322c4.303-4.303 4.303-11.297 0-15.6l-165.75-165.728c-2.162-2.162-4.987-3.221-7.811-3.221s-5.649 1.081-7.811 3.221c-4.303 4.303-4.303 11.297 0 15.6l165.75 165.728c4.325 4.303 11.319 4.303 15.622 0v0zM584.25 738.87l-304.184-304.184c-2.162-2.162-4.987-3.221-7.811-3.221s-5.649 1.081-7.811 3.221c-4.303 4.303-4.303 11.297 0 15.6l304.184 304.184c4.303 4.303 11.297 4.303 15.6 0s4.325-11.297 0.022-15.6v0zM977.818 80.901c-1.103-1.699-4.325-5.649-10.437-5.649h-308.508v16.019c0 12.202-9.863 22.065-22.065 22.065h-249.574c-12.18 0-22.065-9.863-22.065-22.065v-16.019h-308.597c-6.046 0-9.267 3.928-10.392 5.626-1.103 1.677-3.42 6.222-0.971 11.76l32.722 74.733h866.436v4.016l34.443-78.661c2.427-5.582 0.132-10.128-0.993-11.827v0zM119.568 262.427h784.951l31.95-73.012h-848.873l31.972 73.012zM127.864 801.048c0 6.84 5.56 12.4 12.4 12.4h743.514c6.84 0 12.4-5.56 12.4-12.4v-494.492h-768.314v494.492zM1019.234 110.446l-78.925 180.268v510.356c0 31.177-25.352 56.53-56.53 56.53h-743.514c-31.177 0-56.53-25.352-56.53-56.53v-510.4l-78.97-180.291c-7.679-17.541-6.002-37.598 4.479-53.639s28.155-25.595 47.329-25.595h910.808c19.174 0 36.892 9.598 47.373 25.639s12.158 36.098 4.479 53.661v0z" />
<glyph unicode="&#xe945;" glyph-name="061" d="M560.498 339.135h56.633v-56.276h-17.837v-38.302l-83.126-82.601v-65.752c9.809-4.082 16.705-13.684 16.705-24.91 0-14.912-12.178-27.013-27.185-27.013s-27.185 12.101-27.185 27.013c0 11.226 6.896 20.827 16.705 24.91v35.823l-77.467 76.978v41.967c-9.809 4.082-16.705 13.684-16.705 24.91 0 14.912 12.178 27.013 27.185 27.013s27.185-12.101 27.185-27.013c0-11.226-6.896-20.827-16.705-24.91v-33.345l56.508-56.151v184.302h-22.322l32.592 56.088 32.592-56.088h-21.903v-154.394l62.167 61.774v29.679h-17.837v56.296zM598.204 759.036l98.092-0.437v-78.457c0-0.208-0.231-0.437-0.44-0.437l-98.092 0.437 0.44 78.894zM598.204 658.898h97.652c11.779 0 21.4 9.539 21.4 21.265v78.457c0 11.726-9.6 21.265-21.4 21.265h-97.652c-11.8 0-21.4-9.539-21.4-21.265v-78.457c0-11.726 9.6-21.265 21.4-21.265v0zM413.611 680.163c0-0.208-0.231-0.437-0.44-0.437l-98.092 0.437 0.44 78.894 98.092-0.437v-78.457zM413.171 779.864h-97.652c-11.779 0-21.4-9.539-21.4-21.265v-78.457c0-11.705 9.6-21.265 21.4-21.265h97.652c11.8 0 21.4 9.539 21.4 21.265v78.457c0 11.726-9.6 21.265-21.4 21.265v0zM798.789 8.583c0-17.078-13.938-30.929-31.125-30.929h-523.953c-17.187 0-31.125 13.85-31.125 30.929v467.533c0 17.078 13.917 30.908 31.104 30.908h523.994c17.187 0 31.104-13.829 31.104-30.908v-467.533zM277.436 918.345l217.542-0.396v-54.797h-21.735v-63.149h21.735v-131.296h-21.735v-63.17h21.735v-56.067h-218.338l0.796 368.874zM734.778 917.491v-368.020h-218.841v76.895h-21.735v21.515h21.735v172.951h-21.735v21.494h21.735v75.583l218.841-0.417zM776.698 547.784v369.707c0 23.431-19.199 42.509-42.779 42.509h-456.483c-23.58 0-42.779-19.078-42.779-42.509v-369.728c-35.967-4.478-63.99-34.719-63.99-71.646v-467.533c0-40.030 32.76-72.583 73.045-72.583h523.932c40.285 0 73.045 32.553 73.045 72.583v467.533c0.021 36.948-28.002 67.189-63.99 71.667v0z" />
<glyph unicode="&#xe946;" glyph-name="062" d="M268.998 597.563c0 24.742 17.712 45.437 41.187 50.301v-101.693h-41.187v51.392zM372.482 597.563v-51.392h-41.187v101.693c23.475-4.864 41.187-25.58 41.187-50.301v0zM258.442 525.182h124.595c5.827 0 10.555 4.697 10.555 10.484v61.875c0 39.901-32.679 72.359-72.853 72.359s-72.853-32.458-72.853-72.359v-61.875c0-5.787 4.708-10.484 10.555-10.484v0zM674.914 276.129v183.236h81.677v-183.236h-81.677zM777.702 276.129v183.236h81.677v-183.236h-81.677zM664.358 255.161h205.576c5.827 0 10.555 4.697 10.555 10.484v204.204c0 5.787-4.729 10.484-10.555 10.484h-205.576c-5.827 0-10.555-4.697-10.555-10.484v-204.204c0-5.787 4.729-10.484 10.555-10.484v0zM163.085 125.036v334.329h315.309v-334.329h-315.309zM321.331 755.763l230.592-229.029v-401.677h-52.418v344.792c0 5.787-4.729 10.484-10.555 10.484h-336.42c-5.827 0-10.555-4.697-10.555-10.484v-344.812h-52.439v400.523l231.795 230.203zM108.219 734.691c0 1.006 0.823 1.824 1.816 1.824h53.79c1.013 0 1.837-0.818 1.837-1.824v-74.204l-57.463-57.074v131.278h0.021zM892.628 125.036h-242.076c3.525 44.766 40.913 80.243 86.87 80.243 26.494 0 51.362-12.077 68.23-33.171l5.13-6.395 7.473 3.376c6.988 3.124 14.292 4.739 21.702 4.739 27.951 0.021 50.623-21.576 52.671-48.792v0zM940.148 125.036h-26.409c-2.090 38.769-34.22 69.759-73.761 69.759-7.79 0-15.453-1.237-22.905-3.69-20.667 22.414-49.293 35.142-79.651 35.142-57.59 0-104.413-44.871-107.981-101.211h-35.297v359.762l11.273-11.197c8.254-8.198 21.596-8.198 29.851 0s8.254 21.45 0 29.648l-11.548 11.469h316.428c0 0 0-389.683 0-389.683v0zM968.542 737.458c7.304 0 13.236-5.892 13.236-13.147v-154.447c0-7.297-5.974-13.231-13.321-13.231h-386.959l-182.037 180.825h569.081zM968.542 779.394h-611.302l-21.005 20.863c-3.969 3.942-9.331 6.144-14.925 6.144s-10.978-2.202-14.925-6.144l-98.502-97.814v32.269c0 24.134-19.76 43.759-44.058 43.759h-53.769c-24.277 0-44.037-19.626-44.037-43.759v-173.193l-59.828-59.443c-8.254-8.198-8.254-21.45 0-29.648 4.117-4.089 9.521-6.144 14.925-6.144s10.809 2.055 14.925 6.144l11.273 11.197v-379.556c0-11.595 9.458-20.968 21.111-20.968h892.834c11.674 0 21.111 9.373 21.111 20.968v412.601c23.855 6.185 41.63 27.572 41.63 53.195v154.447c0 30.382-24.889 55.082-55.458 55.082v0z" />
<glyph unicode="&#xe947;" glyph-name="063" d="M67.525 128.059c-15.537 0-28.16 12.642-28.16 28.16 0 4.844 0.492 9.433 0.63 14.218h150.626c127.764 0 246.745 68.785 310.489 179.535 56.734 98.56 162.619 159.783 276.342 159.783h165.711v-64.315c-31.232 14.415-65.221 21.918-99.879 21.918-132.017 0-239.419-107.402-239.419-239.419 0-34.678 7.522-68.647 21.918-99.879 0 0-558.257 0-558.257 0v0zM155.963 433.369c15.596 14.454 32.729 27.392 50.491 39.621l6.794-11.776c16.502-28.593 53.071-38.4 81.664-21.878 28.593 16.502 38.4 53.071 21.878 81.664l-5.218 9.039c166.026 69.986 366.887 81.014 475.884 81.014 47.97 0 78.139-2.107 79.695-2.206 36.293 0 66.639-25.62 74.142-59.687h-163.86c-127.744 0-246.725-68.785-310.469-179.515-56.734-98.58-162.619-159.803-276.342-159.803h-147.692c10.772 88.418 48.384 163.584 113.034 223.527v0zM260.588 618.397c-8.113 14.041-24.261 20.362-39.266 16.817-11.756 48.167 8.862 100.391 53.918 126.405l37.258 21.504c34.028 19.653 73.649 20.795 108.761 3.131 35.092-17.664 57.817-50.156 62.306-89.206l8.428-72.862c-74.949-14.316-141.942-34.087-200.487-59.353l-30.917 53.563zM643.23 227.958c0 110.297 89.738 200.015 200.034 200.015 38.676 0 76.308-11.166 108.82-32.354 6.085-3.938 13.804-4.273 20.126-0.807 6.341 3.446 10.299 10.082 10.299 17.31v120.714c0 63.586-51.692 115.318-113.782 115.318h-0.118c-5.061 0.394-125.991 9.236-277.957-8.743-13.686-1.615-27.136-3.426-40.369-5.356l-8.074 69.77c-6.735 58.289-42.023 108.82-94.444 135.188-52.401 26.368-114.038 24.596-164.864-4.746l-37.218-21.484c-72.98-42.142-103.739-129.615-77.41-206.513-15.596-10.417-20.756-31.173-11.244-47.655l29.44-51.003c-20.657-14.119-39.818-29.184-57.226-45.312-85.76-79.498-129.241-182.489-129.241-306.078 0-37.258 30.306-67.545 67.545-67.545h591.557c7.227 0 13.863 3.958 17.31 10.299s3.131 14.060-0.807 20.106c-21.169 32.591-32.374 70.223-32.374 108.879v0zM843.284 87.926c-77.214 0-140.012 62.818-140.012 140.012s62.818 140.012 140.012 140.012c77.214 0 140.012-62.818 140.012-140.012s-62.818-140.012-140.012-140.012v0zM843.284 407.335c-99.072 0-179.397-80.325-179.397-179.397s80.325-179.397 179.397-179.397c99.072 0 179.397 80.325 179.397 179.397s-80.325 179.397-179.397 179.397v0z" />
</font>
</defs>
</svg>
