<svg xmlns="http://www.w3.org/2000/svg" xmlns:xlink="http://www.w3.org/1999/xlink" width="28px" height="28px" viewBox="0 0 28 28" version="1.1">
    <defs>
        <path d="M14,1.16666667 C21.0876543,1.16666667 26.8333333,6.91234571 26.8333333,14 C26.8333333,21.0876543 21.0876543,26.8333333 14,26.8333333 C11.8794014,26.8333333 9.87893424,26.3189899 8.11654512,25.4082496 L1.31848145,26.8398844 L2.51718182,19.7368524 C1.65298483,18.0104468 1.16666667,16.0620163 1.16666667,14 C1.16666667,6.91234571 6.91234571,1.16666667 14,1.16666667 Z M14,3.5 C8.20101013,3.5 3.5,8.20101013 3.5,14 C3.5,15.893556 4.00123664,17.670042 4.87826723,19.2040152 L3.70621745,24.4131266 L8.52911522,22.9638755 C10.1223748,23.9383628 11.9955987,24.5 14,24.5 C19.7989899,24.5 24.5,19.7989899 24.5,14 C24.5,8.20101013 19.7989899,3.5 14,3.5 Z M19.4846747,14.8244756 L21.4497567,15.8402453 C20.1706775,18.8822971 17.3161594,21 13.9999998,21 C10.6914602,21 7.84244304,18.8920182 6.55908519,15.8612011 L8.52379653,14.8476517 C9.34398411,17.0767297 11.4863171,18.6666667 13.9999998,18.6666667 C16.5223856,18.6666667 18.6708458,17.065701 19.4846747,14.8244756 Z M9.33333333,9.33333333 L11.6666667,9.33333333 L11.6666667,12.8333333 L9.33333333,12.8333333 L9.33333333,9.33333333 Z M16.3333333,9.33333333 L18.6666667,9.33333333 L18.6666667,12.8333333 L16.3333333,12.8333333 L16.3333333,9.33333333 Z" id="path-1"/>
    </defs>
    <g stroke-width="1" fill="none" fill-rule="evenodd">
        <g>
            <mask id="mask-2" fill="white">
                <use xlink:href="#path-1"/>
            </mask>
            <use fill="#000000" fill-rule="nonzero" xlink:href="#path-1"/>
            <g mask="url(#mask-2)" fill="#FFFFFF">
                <rect id="Rectangle-3" x="0" y="0" width="28" height="28"/>
            </g>
        </g>
    </g>
</svg>