<?xml version="1.0" encoding="UTF-8"?>
<svg width="154px" height="34px" viewBox="0 0 154 34" version="1.1" xmlns="http://www.w3.org/2000/svg" xmlns:xlink="http://www.w3.org/1999/xlink">
    <!-- Generator: Sketch 52.4 (67378) - http://www.bohemiancoding.com/sketch -->
    <title>footer/components/pay systems</title>
    <desc>Created with Sketch.</desc>
    <g id="footer/components/pay-systems" stroke="none" stroke-width="1" fill="none" fill-rule="evenodd">
        <g id="paying-systems">
            <rect id="Rectangle" fill="#FFFFFF" x="0" y="0" width="154" height="34"></rect>
            <g id="privat" transform="translate(126.000000, 0.000000)">
                <g id="Group" transform="translate(5.000000, 24.000000)" fill="#5BB245">
                    <polyline id="Fill-7" points="0.441931818 1.61658824 0 1.61658824 0 0 1.59022727 0 1.59022727 1.61658824 1.14863636 1.61658824 1.14863636 0.314 0.441931818 0.314 0.441931818 1.61658824"></polyline>
                    <path d="M9.41897727,0.914352941 L9.78568182,0.914352941 C9.89272727,0.914352941 10.1069318,0.926352941 10.1069318,1.11988235 C10.1069318,1.27247059 9.95159091,1.30235294 9.77761364,1.30235294 L9.41897727,1.30235294 L9.41897727,0.914352941 Z M9.41897727,0.314 L10.4331818,0.314 L10.4331818,0 L8.97727273,0 L8.97727273,1.61658824 L9.87147727,1.61658824 C10.3051136,1.61658824 10.5834091,1.45976471 10.5834091,1.12952941 C10.5834091,0.612352941 10.0267045,0.600588235 9.87147727,0.600588235 L9.41897727,0.600588235 L9.41897727,0.314 Z" id="Fill-13"></path>
                    <path d="M2.20636364,0.981176471 C2.20636364,0.653411765 2.40193182,0.588705882 2.525,0.588705882 C2.64556818,0.588705882 2.84102273,0.653411765 2.84102273,0.981176471 C2.84102273,1.18458824 2.75784091,1.37835294 2.525,1.37835294 C2.28681818,1.37835294 2.20636364,1.18458824 2.20636364,0.981176471 Z M1.81818182,0.396823529 L1.81818182,1.99729412 L2.22545455,1.99729412 L2.22545455,1.44964706 C2.36170455,1.60282353 2.58397727,1.61376471 2.6375,1.61376471 C3.02556818,1.61376471 3.26375,1.35788235 3.26375,0.985529412 C3.26375,0.597764706 3.02863636,0.352941176 2.64556818,0.352941176 C2.54920455,0.352941176 2.36170455,0.369294118 2.20636364,0.537882353 L2.19829545,0.537882353 L2.20113636,0.396823529 L1.81818182,0.396823529 Z" id="Fill-8"></path>
                    <path d="M4.20568182,1.38529412 C4.05568182,1.53082353 3.91113636,1.56988235 3.75056818,1.56988235 C3.31170455,1.56988235 3.29545455,1.22847059 3.29545455,1.08729412 L3.29545455,0.352941176 L3.70238636,0.352941176 L3.70238636,1.03211765 C3.70238636,1.26529412 3.78,1.33447059 3.93022727,1.33447059 C4.18681818,1.33447059 4.20568182,1.09658824 4.20568182,1.01117647 L4.20568182,0.352941176 L4.6125,0.352941176 L4.6125,1.52623529 L4.20568182,1.52623529 L4.20568182,1.38529412" id="Fill-9"></path>
                    <path d="M5.29329545,0.588705882 L5.51284091,0.588705882 C5.62784091,0.588705882 5.72681818,0.607058824 5.72681818,0.704 C5.72681818,0.810235294 5.57170455,0.812588235 5.50465909,0.812588235 L5.29329545,0.812588235 L5.29329545,0.588705882 Z M4.88636364,0.352941176 L4.88636364,1.52623529 L5.69465909,1.52623529 C5.98920455,1.52623529 6.19272727,1.466 6.19272727,1.226 C6.19272727,1.04117647 6.09352273,0.960470588 5.86863636,0.918823529 L5.86863636,0.911882353 C6.01602273,0.891294118 6.14443182,0.796588235 6.14443182,0.637176471 C6.14443182,0.352941176 5.82329545,0.352941176 5.69738636,0.352941176 L4.88636364,0.352941176 Z M5.29329545,1.03211765 L5.54215909,1.03211765 C5.73522727,1.03211765 5.77488636,1.09188235 5.77488636,1.17047059 C5.77488636,1.22129412 5.74829545,1.29058824 5.54738636,1.29058824 L5.29329545,1.29058824 L5.29329545,1.03211765 Z" id="Fill-10"></path>
                    <path d="M7.17363636,1.08505882 C7.17363636,1.32070588 6.97568182,1.37835294 6.87647727,1.37835294 C6.80170455,1.37835294 6.66772727,1.35317647 6.66772727,1.24223529 C6.66772727,1.11035294 6.82011364,1.08505882 6.90613636,1.07341176 C7.06375,1.05035294 7.05056818,1.05741176 7.17363636,1.01141176 L7.17363636,1.08505882 Z M6.70238636,0.775882353 C6.70238636,0.602352941 6.87886364,0.588705882 6.95147727,0.588705882 C6.99704545,0.588705882 7.16556818,0.591058824 7.17113636,0.743294118 C7.17113636,0.754823529 7.17113636,0.764235294 7.17113636,0.775882353 C7.16284091,0.891294118 7.05568182,0.867882353 6.75602273,0.907294118 C6.50965909,0.941882353 6.25,1.00670588 6.25,1.27447059 C6.25,1.37152941 6.29034091,1.61376471 6.72397727,1.61376471 C6.89,1.61376471 7.07181818,1.57011765 7.17909091,1.45447059 L7.18715909,1.45447059 L7.22193182,1.57011765 L7.64988636,1.57011765 L7.64988636,1.54929412 C7.5725,1.53317647 7.56715909,1.45447059 7.56988636,1.32752941 L7.57784091,0.791764706 C7.58056818,0.655764706 7.56715909,0.352941176 6.95397727,0.352941176 C6.80693182,0.352941176 6.33329545,0.366823529 6.31431818,0.775882353 L6.70238636,0.775882353 Z" id="Fill-11"></path>
                    <polyline id="Fill-12" points="7.61363636 0.588705882 7.61363636 0.352941176 8.91977273 0.352941176 8.91977273 0.588705882 8.47 0.588705882 8.47 1.52623529 8.06318182 1.52623529 8.06318182 0.588705882 7.61363636 0.588705882"></polyline>
                    <path d="M11.6052273,1.08505882 C11.6052273,1.32070588 11.4072727,1.37835294 11.3082955,1.37835294 C11.2331818,1.37835294 11.0994318,1.35317647 11.0994318,1.24223529 C11.0994318,1.11035294 11.2519318,1.08505882 11.3375,1.07341176 C11.4954545,1.05035294 11.4821591,1.05741176 11.6052273,1.01141176 L11.6052273,1.08505882 Z M11.1343182,0.775882353 C11.1343182,0.602352941 11.3109091,0.588705882 11.3829545,0.588705882 C11.42875,0.588705882 11.5975,0.591058824 11.6027273,0.743294118 C11.6027273,0.754823529 11.6027273,0.764235294 11.6027273,0.775882353 C11.5947727,0.891294118 11.4876136,0.867882353 11.1877273,0.907294118 C10.9414773,0.941882353 10.6818182,1.00670588 10.6818182,1.27447059 C10.6818182,1.37152941 10.7220455,1.61376471 11.1557955,1.61376471 C11.3215909,1.61376471 11.5036364,1.57011765 11.6106818,1.45447059 L11.61875,1.45447059 L11.6536364,1.57011765 L12.0819318,1.57011765 L12.0819318,1.54929412 C12.0042045,1.53317647 11.99875,1.45447059 12.0015909,1.32752941 L12.0095455,0.791764706 C12.0121591,0.655764706 11.99875,0.352941176 11.3856818,0.352941176 C11.2385227,0.352941176 10.7648864,0.366823529 10.7460227,0.775882353 L11.1343182,0.775882353 Z" id="Fill-14"></path>
                    <polyline id="Fill-15" points="12.5657955 1.52623529 12.1590909 1.52623529 12.1590909 0.352941176 12.5657955 0.352941176 12.5657955 0.794235294 13.0556818 0.794235294 13.0556818 0.352941176 13.4626136 0.352941176 13.4626136 1.52623529 13.0556818 1.52623529 13.0556818 1.02952941 12.5657955 1.02952941 12.5657955 1.52623529"></polyline>
                    <polyline id="Fill-16" points="14.4875 0.352941176 14.9402273 0.352941176 14.3804545 0.902470588 14.9668182 1.52623529 14.4903409 1.52623529 14.05125 1.01352941 14.0432955 1.01352941 14.0432955 1.52623529 13.6363636 1.52623529 13.6363636 0.352941176 14.0432955 0.352941176 14.0432955 0.824 14.05125 0.824 14.4875 0.352941176"></polyline>
                </g>
                <g id="Group-2" transform="translate(5.000000, 8.000000)">
                    <polygon id="Fill-17" fill="#1A1919" points="0 15 5.86956522 15 5.86956522 9.13043478 0 9.13043478"></polygon>
                    <path d="M0,0 L0,7.2985875 L1.55107023,7.2985875 C5.63145734,7.2985875 7.70173068,9.36895109 7.70173068,13.4488622 L7.70173068,15 L15,15 L15,0 L0,0 Z M11.8991674,3.10162176 C11.8991674,5.09416688 11.8991674,9.90517918 11.8991674,11.8983782 C11.3413837,11.8983782 11.2439513,11.8983782 10.7031693,11.8983782 C10.1872357,7.54773738 7.45128384,4.81493591 3.10148655,4.29897986 C3.10148655,3.75555846 3.10148655,3.65942977 3.10148655,3.10162176 C5.09459872,3.10162176 9.90605519,3.10162176 11.8991674,3.10162176 Z" id="Fill-18" fill="#5BB245"></path>
                </g>
                <rect id="Rectangle-Copy-3" fill-rule="nonzero" x="0" y="0" width="28" height="34"></rect>
            </g>
            <g id="Mastercard-logo">
                <g id="Group" transform="translate(20.374110, 24.315126) scale(-1, 1) rotate(-180.000000) translate(-20.374110, -24.315126) translate(9.374110, 22.815126)" fill="#231F20" fill-rule="nonzero">
                    <path d="M21.1018573,0.465190454 C21.1233558,0.465190454 21.1400281,0.460417044 21.1518742,0.450870225 C21.1637203,0.441323406 21.169424,0.428305017 21.169424,0.411815057 C21.169424,0.397928775 21.1650366,0.38664617 21.1553842,0.377533298 C21.1461705,0.368854371 21.1330082,0.363213069 21.1154584,0.361043337 L21.1707402,0.298121121 L21.1277433,0.298121121 L21.0764102,0.360609391 L21.0597379,0.360609391 L21.0597379,0.298121121 L21.0237608,0.298121121 L21.0237608,0.465190454 L21.1018573,0.465190454 Z M21.0908887,0.240406261 C21.1106322,0.240406261 21.1290595,0.244311778 21.1457318,0.251688865 C21.1628428,0.259065952 21.1777601,0.269046718 21.1904837,0.281631161 C21.2032073,0.294215604 21.2132985,0.308969779 21.2207571,0.326327632 C21.227777,0.343251538 21.2317257,0.361477284 21.2317257,0.381004868 C21.2317257,0.400532452 21.227777,0.418758198 21.2207571,0.435682104 C21.2132985,0.452606011 21.2032073,0.467794132 21.1904837,0.480378575 C21.1777601,0.492963018 21.1628428,0.502943784 21.1457318,0.510320871 C21.1290595,0.517264012 21.1106322,0.520735583 21.0908887,0.520735583 C21.0711452,0.520735583 21.0522792,0.517264012 21.0351682,0.510320871 C21.0176184,0.502943784 21.0022623,0.492963018 20.9895387,0.480378575 C20.9768151,0.467794132 20.966724,0.452606011 20.9597041,0.435682104 C20.9522455,0.418758198 20.9487355,0.400532452 20.9487355,0.381004868 C20.9487355,0.361477284 20.9522455,0.343251538 20.9597041,0.326327632 C20.966724,0.308969779 20.9768151,0.294215604 20.9895387,0.281631161 C21.0022623,0.269046718 21.0176184,0.259065952 21.0351682,0.251688865 C21.0522792,0.244311778 21.0711452,0.240406261 21.0908887,0.240406261 Z M21.0908887,0.56109259 C21.1167747,0.56109259 21.1404669,0.556319181 21.1632816,0.546772362 C21.1856575,0.537659489 21.2049623,0.5246411 21.2220733,0.50815114 C21.2387456,0.492095126 21.251908,0.473001488 21.2615604,0.450870225 C21.2712127,0.42917291 21.2760389,0.405739808 21.2760389,0.381004868 C21.2760389,0.356269928 21.2712127,0.332836827 21.2615604,0.311139511 C21.251908,0.289442195 21.2387456,0.270348557 21.2220733,0.253858597 C21.2049623,0.237802583 21.1856575,0.224784193 21.1632816,0.215237374 C21.1404669,0.205690555 21.1167747,0.200917146 21.0908887,0.200917146 C21.0645641,0.200917146 21.0404331,0.205690555 21.0176184,0.215237374 C20.9948037,0.224784193 20.9750602,0.237802583 20.9583879,0.253858597 C20.9417156,0.270348557 20.9285532,0.289442195 20.9189009,0.311139511 C20.9092485,0.332836827 20.9044223,0.356269928 20.9044223,0.381004868 C20.9044223,0.405739808 20.9092485,0.42917291 20.9189009,0.450870225 C20.9285532,0.473001488 20.9417156,0.492095126 20.9583879,0.50815114 C20.9750602,0.5246411 20.9948037,0.537659489 21.0176184,0.546772362 C21.0404331,0.556319181 21.0645641,0.56109259 21.0908887,0.56109259 Z M3.99696275,1.20463498 C3.99696275,1.52315158 4.20799887,1.78482121 4.55285208,1.78482121 C4.88234923,1.78482121 5.10479271,1.53443418 5.10479271,1.20463498 C5.10479271,0.874835779 4.88234923,0.624448753 4.55285208,0.624448753 C4.20799887,0.624448753 3.99696275,0.886118383 3.99696275,1.20463498 Z M5.48035803,1.20463498 L5.48035803,2.1107149 L5.08197799,2.1107149 L5.08197799,1.89070411 C4.95561957,2.05386793 4.7638882,2.15627926 4.50327395,2.15627926 C3.98950409,2.15627926 3.5867366,1.75791654 3.5867366,1.20463498 C3.5867366,0.650919479 3.98950409,0.252990704 4.50327395,0.252990704 C4.7638882,0.252990704 4.95561957,0.355402035 5.08197799,0.518565851 L5.08197799,0.298555067 L5.48035803,0.298555067 L5.48035803,1.20463498 Z M18.9427955,1.20463498 C18.9427955,1.52315158 19.1538316,1.78482121 19.4986848,1.78482121 C19.8286207,1.78482121 20.0506254,1.53443418 20.0506254,1.20463498 C20.0506254,0.874835779 19.8286207,0.624448753 19.4986848,0.624448753 C19.1538316,0.624448753 18.9427955,0.886118383 18.9427955,1.20463498 Z M20.4266295,1.20463498 L20.4266295,2.83844287 L20.0278107,2.83844287 L20.0278107,1.89070411 C19.9014523,2.05386793 19.7097209,2.15627926 19.4491067,2.15627926 C18.9353368,2.15627926 18.5325693,1.75791654 18.5325693,1.20463498 C18.5325693,0.650919479 18.9353368,0.252990704 19.4491067,0.252990704 C19.7097209,0.252990704 19.9014523,0.355402035 20.0278107,0.518565851 L20.0278107,0.298555067 L20.4266295,0.298555067 L20.4266295,1.20463498 Z M10.4254477,1.8034809 C10.6821133,1.8034809 10.8470812,1.6442226 10.8892007,1.36389328 L9.93844129,1.36389328 C9.98099951,1.62556291 10.14158,1.8034809 10.4254477,1.8034809 Z M10.4333451,2.15627926 C9.89632182,2.15627926 9.52075649,1.76963309 9.52075649,1.20463498 C9.52075649,0.62835427 9.91167788,0.252990704 10.4601086,0.252990704 C10.7360789,0.252990704 10.9887957,0.321120276 11.2112392,0.506849301 L11.0159979,0.798895173 C10.8624373,0.67782415 10.6667572,0.609260632 10.4829233,0.609260632 C10.2262577,0.609260632 9.99240687,0.726860084 9.93493134,1.05318772 L11.2954782,1.05318772 C11.2994269,1.10222365 11.3033756,1.15169353 11.3033756,1.20463498 C11.2994269,1.76963309 10.9466762,2.15627926 10.4333451,2.15627926 Z M15.2437403,1.20463498 C15.2437403,1.52315158 15.4547764,1.78482121 15.7996296,1.78482121 C16.1291267,1.78482121 16.3515702,1.53443418 16.3515702,1.20463498 C16.3515702,0.874835779 16.1291267,0.624448753 15.7996296,0.624448753 C15.4547764,0.624448753 15.2437403,0.886118383 15.2437403,1.20463498 Z M16.7271355,1.20463498 L16.7271355,2.1107149 L16.3287555,2.1107149 L16.3287555,1.89070411 C16.2019583,2.05386793 16.0106657,2.15627926 15.7500515,2.15627926 C15.2362816,2.15627926 14.8335141,1.75791654 14.8335141,1.20463498 C14.8335141,0.650919479 15.2362816,0.252990704 15.7500515,0.252990704 C16.0106657,0.252990704 16.2019583,0.355402035 16.3287555,0.518565851 L16.3287555,0.298555067 L16.7271355,0.298555067 L16.7271355,1.20463498 Z M12.9938583,1.20463498 C12.9938583,0.654824995 13.3808309,0.252990704 13.9713811,0.252990704 C14.2473514,0.252990704 14.4311854,0.313743189 14.6303754,0.469095971 L14.4390828,0.787612569 C14.2894709,0.681295721 14.1324003,0.624448753 13.959535,0.624448753 C13.6414452,0.62835427 13.4075944,0.855742141 13.4075944,1.20463498 C13.4075944,1.55352782 13.6414452,1.78091569 13.959535,1.78482121 C14.1324003,1.78482121 14.2894709,1.72797424 14.4390828,1.62165739 L14.6303754,1.94017399 C14.4311854,2.09552677 14.2473514,2.15627926 13.9713811,2.15627926 C13.3808309,2.15627926 12.9938583,1.75444497 12.9938583,1.20463498 Z M18.1302406,2.15627926 C17.9003384,2.15627926 17.7507266,2.04996241 17.6471828,1.89070411 L17.6471828,2.1107149 L17.2523128,2.1107149 L17.2523128,0.298555067 L17.6511315,0.298555067 L17.6511315,1.3144234 C17.6511315,1.61428031 17.7814387,1.78091569 18.0420529,1.78091569 C18.1227819,1.78091569 18.2070209,1.76963309 18.2912598,1.73535133 L18.4141083,2.10680938 C18.3259206,2.14109114 18.2109696,2.15627926 18.1302406,2.15627926 Z M7.45075976,1.96664472 C7.2590284,2.09162126 6.99490418,2.15627926 6.70357781,2.15627926 C6.23938609,2.15627926 5.94060106,1.93626848 5.94060106,1.57609303 C5.94060106,1.28057559 6.16304454,1.09831813 6.57283194,1.04147117 L6.76105334,1.01500044 C6.97954812,0.984624198 7.08265309,0.92777723 7.08265309,0.825365899 C7.08265309,0.685201238 6.9369899,0.605355115 6.66496829,0.605355115 C6.38899797,0.605355115 6.18980795,0.692578325 6.05555213,0.794989656 L5.86776946,0.488189609 C6.08626424,0.32893131 6.36223456,0.252990704 6.66101959,0.252990704 C7.1901455,0.252990704 7.49682794,0.499472213 7.49682794,0.844459537 C7.49682794,1.16297613 7.25551844,1.32961152 6.85669965,1.38645849 L6.66891699,1.41336316 C6.49649039,1.43592837 6.35828586,1.46977618 6.35828586,1.59128115 C6.35828586,1.72406873 6.48859298,1.8034809 6.70708777,1.8034809 C6.9409386,1.8034809 7.16733079,1.71625769 7.27833315,1.64812812 L7.45075976,1.96664472 Z M12.5910908,2.15627926 C12.3611886,2.15627926 12.2115767,2.04996241 12.1084718,1.89070411 L12.1084718,2.1107149 L11.7136017,2.1107149 L11.7136017,0.298555067 L12.1119817,0.298555067 L12.1119817,1.3144234 C12.1119817,1.61428031 12.2422889,1.78091569 12.5029031,1.78091569 C12.5836321,1.78091569 12.6678711,1.76963309 12.75211,1.73535133 L12.8749585,2.10680938 C12.7867708,2.14109114 12.6718198,2.15627926 12.5910908,2.15627926 Z M9.19125934,2.1107149 L8.5397237,2.1107149 L8.5397237,2.66052488 L8.13695622,2.66052488 L8.13695622,2.1107149 L7.76533959,2.1107149 L7.76533959,1.75053945 L8.13695622,1.75053945 L8.13695622,0.923871713 C8.13695622,0.50337773 8.30192416,0.252990704 8.7731358,0.252990704 C8.94600115,0.252990704 9.14519117,0.305932155 9.27154959,0.393155365 L9.15659853,0.730765601 C9.03769876,0.662636029 8.90739163,0.62835427 8.80384792,0.62835427 C8.6046579,0.62835427 8.5397237,0.749859239 8.5397237,0.931682747 L8.5397237,1.75053945 L9.19125934,1.75053945 L9.19125934,2.1107149 Z M3.23442474,0.298555067 L3.23442474,1.43592837 C3.23442474,1.86423339 2.95845443,2.15237374 2.51356746,2.15627926 C2.27971662,2.16018478 2.03840713,2.08814969 1.86949048,1.83385714 C1.74313205,2.03477429 1.54394203,2.15627926 1.26402302,2.15627926 C1.06834295,2.15627926 0.877050333,2.09943229 0.727438445,1.88723254 L0.727438445,2.1107149 L0.32861966,2.1107149 L0.32861966,0.298555067 L0.730948402,0.298555067 L0.730948402,1.3031408 C0.730948402,1.61775188 0.907323706,1.78482121 1.17978406,1.78482121 C1.44434702,1.78482121 1.57816411,1.61428031 1.57816411,1.30704631 L1.57816411,0.298555067 L1.98093159,0.298555067 L1.98093159,1.3031408 C1.98093159,1.61775188 2.16476555,1.78482121 2.42932851,1.78482121 C2.70135013,1.78482121 2.83165725,1.61428031 2.83165725,1.30704631 L2.83165725,0.298555067 L3.23442474,0.298555067 Z" id="Shape"></path>
                </g>
                <g id="Group" transform="translate(30.802056, 18.989924) scale(-1, 1) rotate(-180.000000) translate(-30.802056, -18.989924) translate(29.802056, 18.489924)" fill="#F79410" fill-rule="nonzero">
                    <path d="M0.877489078,5.55111512e-17 L0.877489078,0.267634169 L0.807728696,0.267634169 L0.726999701,0.0838002069 L0.64670945,0.267634169 L0.576510324,0.267634169 L0.576510324,5.55111512e-17 L0.626088457,5.55111512e-17 L0.626088457,0.201822488 L0.701552518,0.0276409059 L0.752885629,0.0276409059 L0.828349689,0.202261232 L0.828349689,5.55111512e-17 L0.877489078,5.55111512e-17 Z M0.434795838,-5.55111512e-17 L0.434795838,0.222004737 L0.524299724,0.222004737 L0.524299724,0.267195424 L0.296152564,0.267195424 L0.296152564,0.222004737 L0.38565645,0.222004737 L0.38565645,-5.55111512e-17 L0.434795838,-5.55111512e-17 Z" id="Shape"></path>
                </g>
                <polygon id="Shape" fill="#FF5F00" points="22.747044 20.6285996 16.7092171 20.6285996 16.7092171 9.89623921 22.747044 9.89623921"></polygon>
                <g id="Group" transform="translate(14.321124, 15.204692) scale(-1, 1) rotate(-180.000000) translate(-14.321124, -15.204692) translate(8.321124, 8.204692)" fill="#EB001B">
                    <path d="M8.77489078,6.9431411 C8.77489078,9.12024979 9.8055017,11.0595559 11.4104292,12.3093213 C10.2367876,13.2232122 8.75558602,13.7686828 7.1458323,13.7686828 C3.33489724,13.7686828 0.245696942,10.7128328 0.245696942,6.9431411 C0.245696942,3.17344943 3.33489724,0.117599452 7.1458323,0.117599452 C8.75558602,0.117599452 10.2367876,0.663069975 11.4104292,1.57696092 C9.8055017,2.82672632 8.77489078,4.76603242 8.77489078,6.9431411" id="Shape"></path>
                </g>
                <g id="Group" transform="translate(25.482785, 15.204692) scale(-1, 1) rotate(-180.000000) translate(-25.482785, -15.204692) translate(19.482785, 8.204692)" fill="#F79E1B">
                    <path d="M11.407358,6.9431411 C11.407358,3.17344943 8.31815771,0.117599452 4.50722265,0.117599452 C2.89746893,0.117599452 1.41626737,0.663069975 0.242186985,1.57696092 C1.84755325,2.82672632 2.87816417,4.76603242 2.87816417,6.9431411 C2.87816417,9.12024979 1.84755325,11.0595559 0.242186985,12.3093213 C1.41626737,13.2232122 2.89746893,13.7686828 4.50722265,13.7686828 C8.31815771,13.7686828 11.407358,10.7128328 11.407358,6.9431411" id="Shape"></path>
                </g>
                <rect id="Rectangle" fill-rule="nonzero" x="0" y="0" width="37" height="34"></rect>
            </g>
            <g id="Visa_Inc._logo" transform="translate(96.000000, 0.000000)">
                <polygon id="polygon9" fill="#00579F" points="13.983796 19.9130435 12.1122245 19.9130435 13.2828394 13.1304348 15.1543086 13.1304348"></polygon>
                <path d="M20.6853707,13.2884889 C20.3186507,13.1513824 19.7370024,13 19.0177959,13 C17.1817556,13 15.888831,13.9226663 15.8809008,15.2418013 C15.8656504,16.2150561 16.806597,16.7556255 17.5103497,17.0801396 C18.2296579,17.4117438 18.4741718,17.6281823 18.4741718,17.9237613 C18.4668516,18.3777169 17.8929302,18.5869696 17.3576429,18.5869696 C16.6153576,18.5869696 16.2176285,18.4790857 15.6132063,18.2265261 L15.3683874,18.118259 L15.1082164,19.6393649 C15.5442747,19.8265809 16.3476631,19.9927183 17.1817556,20 C19.1325802,20 20.4026293,19.0916096 20.4176763,17.6858609 C20.4250981,16.9144813 19.9282417,16.3234191 18.8570572,15.8404325 C18.2067823,15.530386 17.8085449,15.3213249 17.8085449,15.0040925 C17.8161701,14.7156994 18.1453743,14.4203121 18.8794244,14.4203121 C19.4838466,14.4058445 19.9279367,14.5427594 20.2643594,14.6797701 L20.43252,14.7517246 L20.6853707,13.2884889 Z" id="path11" fill="#00579F"></path>
                <path d="M23.1983062,17.5102682 C23.3516939,17.1206108 23.941921,15.6125226 23.941921,15.6125226 C23.9341803,15.6270041 24.0950032,15.2156724 24.1869747,14.9631576 L24.3171404,15.5475957 C24.3171404,15.5475957 24.6698507,17.1711521 24.7464428,17.5102682 C24.4553523,17.5102682 23.5661923,17.5102682 23.1983062,17.5102682 Z M25.4973909,13.1304348 L24.0567072,13.1304348 C23.6124327,13.1304348 23.2748982,13.2529999 23.0832144,13.6931986 L20.3166333,19.9130435 L22.270952,19.9130435 C22.270952,19.9130435 22.5926996,19.0758987 22.6618565,18.8955994 C22.876253,18.8955994 24.7774055,18.8955994 25.0532182,18.8955994 C25.1066901,19.1337287 25.2754573,19.9130435 25.2754573,19.9130435 L27,19.9130435 L25.4973909,13.1304348 Z" id="path13" fill="#00579F" fill-rule="nonzero"></path>
                <path d="M10.518328,13.1304348 L8.70063086,17.7604348 L8.50200261,16.8214166 C8.16594837,15.7379119 7.11201083,14.560707 5.93587174,13.9753687 L7.60081699,19.9130435 L9.56355238,19.9130435 L12.4809619,13.1304348 L10.518328,13.1304348 Z" id="path15" fill="#00579F"></path>
                <path d="M7.0241419,13.1304348 L4.03062499,13.1304348 L4,13.2677878 C6.33513039,13.8319061 7.88164174,15.1916915 8.51703407,16.826087 L7.86627837,13.701858 C7.75914176,13.2676917 7.42989764,13.1447564 7.0241419,13.1304348 Z" id="path17" fill="#FAA61A"></path>
                <rect id="Rectangle-Copy-2" fill-rule="nonzero" x="0" y="0" width="31" height="34"></rect>
            </g>
            <g id="logo-portmone" transform="translate(36.000000, 0.000000)" fill-rule="nonzero">
                <rect id="Rectangle-Copy" x="0" y="0" width="61" height="34"></rect>
                <path d="M4.11685393,14.0966667 L5.16853933,14.0966667 L5.16853933,14.7033333 C5.47235955,14.26 5.96314607,13.98 6.50067416,14.0033333 C6.99146067,14.0033333 7.4588764,14.2133333 7.76269663,14.5866667 C8.11325843,14.96 8.27685393,15.4966667 8.27685393,16.1733333 C8.27685393,16.8733333 8.11325843,17.41 7.76269663,17.8066667 C7.43550562,18.18 6.99146067,18.39 6.50067416,18.39 C6.29033708,18.39 6.05662921,18.3433333 5.86966292,18.25 C5.63595506,18.1333333 5.42561798,17.97 5.26202247,17.7833333 L5.26202247,19.8833333 L4.11685393,19.8833333 L4.11685393,14.0966667 Z M5.23865169,16.1033333 C5.23865169,16.57 5.33213483,16.92 5.51910112,17.1533333 C5.68269663,17.3633333 5.93977528,17.5033333 6.22022472,17.48 C6.47730337,17.48 6.71101124,17.3633333 6.87460674,17.1766667 C7.03820225,16.9666667 7.13168539,16.64 7.13168539,16.1733333 C7.13168539,15.73 7.03820225,15.4033333 6.85123596,15.1933333 C6.68764045,14.9833333 6.45393258,14.8666667 6.17348315,14.8666667 C5.91640449,14.8666667 5.65932584,14.9833333 5.49573034,15.17 C5.33213483,15.38 5.23865169,15.7066667 5.23865169,16.1033333 Z M8.72089888,16.1266667 C8.72089888,15.7533333 8.81438202,15.38 9.00134831,15.0533333 C9.18831461,14.7266667 9.44539326,14.4466667 9.79595506,14.26 C10.1465169,14.0733333 10.5438202,13.98 10.9411236,13.98 C11.5253933,13.9566667 12.1096629,14.19 12.5303371,14.5866667 C12.9510112,15.0066667 13.1613483,15.5666667 13.1613483,16.15 C13.1847191,17.34 12.2732584,18.32 11.0813483,18.3433333 C11.0346067,18.3433333 10.9878652,18.3433333 10.9644944,18.3433333 C10.567191,18.3433333 10.1932584,18.25 9.84269663,18.0866667 C9.49213483,17.9233333 9.21168539,17.6666667 9.0247191,17.3166667 C8.79101124,16.9666667 8.69752809,16.5466667 8.72089888,16.1266667 Z M9.8894382,16.1733333 C9.8894382,16.5933333 9.98292135,16.8966667 10.1932584,17.13 C10.567191,17.55 11.1982022,17.5733333 11.5955056,17.2 C11.6188764,17.1766667 11.6422472,17.1533333 11.665618,17.13 C11.8759551,16.92 11.9694382,16.5933333 11.9694382,16.1733333 C11.9694382,15.7533333 11.8759551,15.45 11.665618,15.2166667 C11.2916854,14.7966667 10.6606742,14.7733333 10.2633708,15.1466667 C10.24,15.17 10.2166292,15.1933333 10.1932584,15.2166667 C9.98292135,15.45 9.8894382,15.7533333 9.8894382,16.1733333 Z M18.8638202,14.0966667 L18.8638202,14.9833333 L18.0925843,14.9833333 L18.0925843,16.6633333 C18.0925843,16.8733333 18.0925843,17.06 18.1159551,17.27 C18.1393258,17.3166667 18.1626966,17.3866667 18.2094382,17.41 C18.2561798,17.4566667 18.3262921,17.4566667 18.3964045,17.4566667 C18.56,17.4566667 18.7002247,17.41 18.8404494,17.34 L18.9339326,18.2033333 C18.6534831,18.32 18.3496629,18.3666667 18.0458427,18.3666667 C17.8588764,18.3666667 17.6719101,18.3433333 17.4849438,18.2733333 C17.3447191,18.2266667 17.2278652,18.1333333 17.134382,18.0166667 C17.0408989,17.8766667 16.9941573,17.7366667 16.9707865,17.5966667 C16.9474157,17.34 16.9240449,17.0833333 16.9240449,16.8266667 L16.9240449,15.0066667 L16.4098876,15.0066667 L16.4098876,14.12 L16.9240449,14.12 L16.9240449,13.56 L18.0692135,13.1866667 L18.0692135,14.1433333 L18.8638202,14.1433333 L18.8638202,14.0966667 Z M19.4714607,14.0966667 L20.5231461,14.0966667 L20.5231461,14.68 C20.8970787,14.2366667 21.3411236,14.0033333 21.8552809,14.0033333 C22.1123596,14.0033333 22.3460674,14.05 22.5797753,14.1666667 C22.7901124,14.2833333 22.9537079,14.4466667 23.0705618,14.6566667 C23.2341573,14.4466667 23.4444944,14.2833333 23.6782022,14.1666667 C23.8885393,14.05 24.145618,14.0033333 24.3793258,14.0033333 C24.6597753,14.0033333 24.9402247,14.05 25.1739326,14.19 C25.3842697,14.3066667 25.571236,14.5166667 25.6647191,14.75 C25.7348315,14.9366667 25.781573,15.2166667 25.781573,15.6133333 L25.781573,18.2966667 L24.6364045,18.2966667 L24.6364045,15.8933333 C24.6364045,15.4733333 24.5896629,15.2166667 24.5195506,15.1 C24.4026966,14.9366667 24.2157303,14.8433333 24.028764,14.8666667 C23.6782022,14.8666667 23.374382,15.1 23.2808989,15.4266667 C23.2107865,15.7066667 23.1640449,16.01 23.1874157,16.29 L23.1874157,18.2966667 L22.0422472,18.2966667 L22.0422472,16.01 C22.0422472,15.6133333 22.0188764,15.3333333 21.9721348,15.2166667 C21.948764,15.1 21.8786517,15.0066667 21.7851685,14.96 C21.6916854,14.89 21.5514607,14.8666667 21.4346067,14.8666667 C21.2710112,14.8666667 21.1074157,14.9133333 20.967191,15.0066667 C20.8269663,15.1 20.7101124,15.24 20.6633708,15.4033333 C20.5932584,15.6833333 20.5698876,15.9866667 20.5698876,16.2666667 L20.5698876,18.2966667 L19.4247191,18.2966667 L19.4714607,14.0966667 Z M26.2022472,16.1266667 C26.2022472,15.7533333 26.2957303,15.38 26.4826966,15.0533333 C26.6696629,14.7266667 26.9267416,14.4466667 27.2773034,14.26 C27.6278652,14.0733333 28.0251685,13.98 28.4224719,13.98 C29.0768539,13.98 29.5910112,14.19 30.0116854,14.5866667 C30.4323596,15.0066667 30.6426966,15.5666667 30.6426966,16.15 C30.6660674,17.34 29.7546067,18.32 28.5626966,18.3433333 C28.5159551,18.3433333 28.4692135,18.3433333 28.4458427,18.3433333 C28.0485393,18.3433333 27.6746067,18.25 27.3240449,18.0866667 C26.9734831,17.9233333 26.6930337,17.6666667 26.5060674,17.3166667 C26.2957303,16.9666667 26.2022472,16.5466667 26.2022472,16.1266667 Z M27.3707865,16.1733333 C27.3707865,16.5933333 27.4642697,16.8966667 27.6746067,17.13 C28.0485393,17.55 28.6795506,17.5733333 29.0768539,17.2 C29.1002247,17.1766667 29.1235955,17.1533333 29.1469663,17.13 C29.3573034,16.92 29.4507865,16.5933333 29.4507865,16.1733333 C29.4507865,15.7533333 29.3573034,15.45 29.1469663,15.2166667 C28.7730337,14.7966667 28.1420225,14.7733333 27.7447191,15.1466667 C27.7213483,15.17 27.6979775,15.1933333 27.6746067,15.2166667 C27.4642697,15.45 27.3707865,15.7533333 27.3707865,16.1733333 Z M34.9662921,18.2733333 L33.8444944,18.2733333 L33.8444944,16.1266667 C33.8444944,15.6833333 33.8211236,15.38 33.774382,15.24 C33.7276404,15.1233333 33.6575281,15.0066667 33.5406742,14.9366667 C33.4238202,14.8666667 33.2835955,14.82 33.1433708,14.82 C32.9564045,14.82 32.7694382,14.8666667 32.6058427,14.9833333 C32.465618,15.0766667 32.348764,15.24 32.2786517,15.4033333 C32.2319101,15.5666667 32.1851685,15.8933333 32.1851685,16.36 L32.1851685,18.25 L31.04,18.25 L31.04,14.0733333 L32.0916854,14.0733333 L32.0916854,14.68 C32.4188764,14.2366667 32.9564045,13.9566667 33.4939326,13.98 C33.7276404,13.98 33.9613483,14.0266667 34.1716854,14.12 C34.3586517,14.19 34.5222472,14.3066667 34.6391011,14.4466667 C34.7559551,14.5866667 34.8260674,14.75 34.8494382,14.9133333 C34.8961798,15.17 34.9195506,15.4033333 34.9195506,15.66 L34.9662921,18.2733333 Z M38.3316854,16.9433333 L39.4534831,17.13 C39.3366292,17.5033333 39.0795506,17.83 38.7757303,18.0633333 C38.4251685,18.2966667 38.0044944,18.39 37.607191,18.39 C36.8593258,18.39 36.3217978,18.1566667 35.9478652,17.6666667 C35.6674157,17.2933333 35.527191,16.8033333 35.527191,16.22 C35.527191,15.52 35.7141573,14.9833333 36.0880899,14.5866667 C36.4386517,14.19 36.952809,13.98 37.4903371,14.0033333 C38.1213483,14.0033333 38.6355056,14.2133333 38.9860674,14.61 C39.36,15.03 39.5235955,15.66 39.5235955,16.5 L36.6957303,16.5 C36.6957303,16.78 36.7892135,17.06 36.9761798,17.27 C37.1397753,17.4566667 37.3734831,17.55 37.6305618,17.55 C37.7941573,17.55 37.9577528,17.5033333 38.0746067,17.41 C38.1914607,17.27 38.2849438,17.1066667 38.3316854,16.9433333 Z M38.4017978,15.8233333 C38.4017978,15.4966667 38.3083146,15.2633333 38.1447191,15.1 C37.8175281,14.7733333 37.3033708,14.7733333 36.9761798,15.0766667 C36.9761798,15.0766667 36.952809,15.1 36.952809,15.1 C36.7892135,15.31 36.6957303,15.5666667 36.7191011,15.8233333 L38.4017978,15.8233333 Z M15.6620225,15.0766667 C15.1478652,15.0766667 14.7505618,15.4033333 14.7505618,16.1266667 L14.7505618,18.2966667 L13.6053933,18.2966667 L13.6053933,14.12 L14.5869663,14.12 L14.5869663,14.8433333 L14.6103371,14.8433333 C14.8206742,14.3066667 15.2647191,14.0266667 15.6620225,14.0266667 C15.7555056,14.0266667 15.825618,14.0266667 15.9191011,14.05 L15.9191011,15.1 C15.8489888,15.0766667 15.7555056,15.0533333 15.6620225,15.0766667 Z" id="portmone_1_" fill="#FF0000"></path>
                <path d="M40.2013483,18.2266667 L40.2013483,17.4333333 L41.0193258,17.4333333 L41.0193258,18.25 L40.2013483,18.25 L40.2013483,18.2266667 Z M44.501573,16.71 L45.2260674,16.8033333 C45.1793258,17.2466667 44.9689888,17.6433333 44.618427,17.9233333 C44.291236,18.2033333 43.8705618,18.3433333 43.4498876,18.32 C42.865618,18.32 42.3982022,18.1333333 42.0476404,17.76 C41.6970787,17.3866667 41.5101124,16.85 41.5101124,16.15 C41.5101124,15.7533333 41.5802247,15.3333333 41.7438202,14.96 C41.8840449,14.6333333 42.1177528,14.3766667 42.4449438,14.19 C42.748764,14.0266667 43.0993258,13.9333333 43.4732584,13.9333333 C43.8705618,13.91 44.291236,14.0266667 44.618427,14.2833333 C44.9222472,14.5166667 45.1325843,14.8666667 45.1793258,15.2633333 L44.4782022,15.3566667 C44.4314607,15.1233333 44.3146067,14.89 44.1276404,14.7266667 C43.9640449,14.5866667 43.7303371,14.5166667 43.52,14.5166667 C43.192809,14.4933333 42.865618,14.6566667 42.6319101,14.89 C42.3982022,15.1466667 42.2813483,15.5433333 42.2813483,16.1033333 C42.2813483,16.6633333 42.3982022,17.0833333 42.6085393,17.3166667 C42.8188764,17.5733333 43.1460674,17.7133333 43.4732584,17.69 C43.7303371,17.69 43.9874157,17.5966667 44.174382,17.4333333 C44.3379775,17.3166667 44.4548315,17.06 44.501573,16.71 Z M45.5532584,16.15 C45.5532584,15.38 45.7635955,14.7966667 46.2076404,14.4233333 C46.581573,14.12 47.0723596,13.9566667 47.5397753,13.9566667 C48.0773034,13.9333333 48.5914607,14.1433333 48.988764,14.5166667 C49.3626966,14.89 49.5496629,15.4033333 49.5496629,16.08 C49.5496629,16.6166667 49.4561798,17.0366667 49.2925843,17.34 C49.1289888,17.6433333 48.8719101,17.9 48.5680899,18.0633333 C48.2408989,18.2266667 47.8903371,18.32 47.5397753,18.32 C46.9321348,18.32 46.4647191,18.1333333 46.0907865,17.76 C45.7402247,17.3866667 45.5532584,16.85 45.5532584,16.15 Z M46.3011236,16.15 C46.3011236,16.6866667 46.4179775,17.0833333 46.6516854,17.3633333 C47.0957303,17.8533333 47.8669663,17.9 48.3577528,17.4566667 C48.3811236,17.4333333 48.4278652,17.3866667 48.451236,17.3633333 C48.6849438,17.0833333 48.8017978,16.6866667 48.8017978,16.15 C48.8017978,15.6366667 48.6849438,15.24 48.451236,14.9833333 C48.007191,14.4933333 47.2359551,14.4466667 46.7451685,14.89 C46.7217978,14.9133333 46.6750562,14.9366667 46.6516854,14.9833333 C46.4179775,15.2166667 46.3011236,15.6133333 46.3011236,16.15 Z M49.9703371,18.2266667 L49.9703371,14.05 L50.6247191,14.05 L50.6247191,14.6333333 C50.7649438,14.4233333 50.9519101,14.26 51.1622472,14.1433333 C51.3959551,14.0266667 51.6530337,13.9566667 51.9101124,13.9566667 C52.1905618,13.9566667 52.4476404,14.0033333 52.6813483,14.1433333 C52.8916854,14.26 53.0319101,14.47 53.1020225,14.68 C53.4525843,14.19 53.8732584,13.9566667 54.4341573,13.9566667 C54.8548315,13.9566667 55.1820225,14.0733333 55.4157303,14.3066667 C55.6494382,14.54 55.7662921,14.89 55.7662921,15.3566667 L55.7662921,18.2266667 L55.0417978,18.2266667 L55.0417978,15.59 C55.0417978,15.38 55.018427,15.17 54.9716854,14.9833333 C54.9249438,14.8666667 54.8314607,14.75 54.7146067,14.68 C54.574382,14.61 54.4341573,14.5633333 54.2705618,14.5633333 C53.9901124,14.5633333 53.7096629,14.6566667 53.5226966,14.8666667 C53.3357303,15.0533333 53.2188764,15.38 53.2188764,15.8 L53.2188764,18.2266667 L52.494382,18.2266667 L52.494382,15.52 C52.494382,15.1933333 52.4242697,14.96 52.3074157,14.82 C52.1905618,14.6566667 52.0035955,14.5866667 51.7231461,14.5866667 C51.512809,14.5866667 51.3258427,14.6333333 51.1622472,14.75 C50.9986517,14.8666667 50.858427,15.0066667 50.7883146,15.2166667 C50.6948315,15.4966667 50.6480899,15.8 50.6714607,16.08 L50.6714607,18.25 L49.9703371,18.2266667 Z" id="_.com_1_" fill="#A7A9AB"></path>
            </g>
        </g>
    </g>
</svg>