<svg xmlns="http://www.w3.org/2000/svg" xmlns:xlink="http://www.w3.org/1999/xlink" width="18px" height="18px" viewBox="0 0 18 18" version="1.1">
    <defs>
        <path d="M801.864494,78.3207547 L801.051458,78.3207547 L800.763293,78.0428816 C801.77187,76.8696398 802.379074,75.3464837 802.379074,73.6895369 C802.379074,69.9948542 799.38422,67 795.689537,67 C791.994854,67 789,69.9948542 789,73.6895369 C789,77.3842196 791.994854,80.3790738 795.689537,80.3790738 C797.346484,80.3790738 798.86964,79.7718696 800.042882,78.7632933 L800.320755,79.051458 L800.320755,79.864494 L805.466552,85 L807,83.4665523 L801.864494,78.3207547 Z M795.689537,78.3207547 C793.12693,78.3207547 791.058319,76.2521441 791.058319,73.6895369 C791.058319,71.1269297 793.12693,69.058319 795.689537,69.058319 C798.252144,69.058319 800.320755,71.1269297 800.320755,73.6895369 C800.320755,76.2521441 798.252144,78.3207547 795.689537,78.3207547 Z" id="path-1"/>
    </defs>
    <g id="Page-1" stroke="none" stroke-width="1" fill="none" fill-rule="evenodd">
        <g id="1040-/-Product-page-/-Ended" transform="translate(-789.000000, -67.000000)">
            <mask id="mask-2" fill="white">
                <use xlink:href="#path-1"/>
            </mask>
            <use id="Menu-/-Ico-/-Search" fill="#C2C8CF" fill-rule="nonzero" xlink:href="#path-1"/>
        </g>
    </g>
</svg>