<svg xmlns="http://www.w3.org/2000/svg" xmlns:xlink="http://www.w3.org/1999/xlink" width="80px" height="25px" viewBox="0 0 80 25" version="1.1">
    <g fill="#D0D8DB">
        <g transform="translate(-1, -1)">
            <polygon points="7.5 11.3094118 3.63728757 13.3770825 4.375 8.99768562 1.25 5.89617955 5.56864379 5.25723416 7.5 1.27272727 9.43135621 5.25723416 13.75 5.89617955 10.625 8.99768562 11.3627124 13.3770825"/>
        </g>
        <g transform="translate(15, -1)">
            <polygon points="7.5 11.3094118 3.63728757 13.3770825 4.375 8.99768562 1.25 5.89617955 5.56864379 5.25723416 7.5 1.27272727 9.43135621 5.25723416 13.75 5.89617955 10.625 8.99768562 11.3627124 13.3770825"/>
        </g>
        <g transform="translate(32, -1)">
            <polygon points="7.5 11.3094118 3.63728757 13.3770825 4.375 8.99768562 1.25 5.89617955 5.56864379 5.25723416 7.5 1.27272727 9.43135621 5.25723416 13.75 5.89617955 10.625 8.99768562 11.3627124 13.3770825"/>
        </g>
        <g transform="translate(48, -1)">
            <polygon points="7.5 11.3094118 3.63728757 13.3770825 4.375 8.99768562 1.25 5.89617955 5.56864379 5.25723416 7.5 1.27272727 9.43135621 5.25723416 13.75 5.89617955 10.625 8.99768562 11.3627124 13.3770825"/>
        </g>
        <g transform="translate(64, -1)">
            <polygon points="7.5 11.3094118 3.63728757 13.3770825 4.375 8.99768562 1.25 5.89617955 5.56864379 5.25723416 7.5 1.27272727 9.43135621 5.25723416 13.75 5.89617955 10.625 8.99768562 11.3627124 13.3770825"/>
        </g>
    </g>
</svg>